<svg xmlns="http://www.w3.org/2000/svg" width="24" height="24" fill="none" viewBox="0 0 24 24"><path stroke="#0f0e0e" stroke-linecap="round" stroke-linejoin="round" stroke-width="1.714" d="M15.544 7.678c1.044 0 1.89-1.11 1.89-2.481s-.846-2.482-1.89-2.482c-1.043 0-1.89 1.111-1.89 2.482 0 1.37.847 2.481 1.89 2.481M8.456 7.678c1.044 0 1.89-1.11 1.89-2.481S9.5 2.715 8.456 2.715c-1.043 0-1.89 1.111-1.89 2.482 0 1.37.847 2.481 1.89 2.481M20.662 13.978c1.096 0 1.985-1.111 1.985-2.482 0-1.37-.889-2.48-1.985-2.48s-1.986 1.11-1.986 2.48.89 2.482 1.986 2.482M3.337 13.978c1.097 0 1.986-1.111 1.986-2.482 0-1.37-.89-2.48-1.986-2.48s-1.985 1.11-1.985 2.48.889 2.482 1.985 2.482M16.963 17.976c0 2.283-2.68 3.309-4.963 3.309s-4.963-1.026-4.963-3.309 1.654-5.79 4.963-5.79c3.308 0 4.963 3.507 4.963 5.79"/></svg>