<svg width="24" height="24" viewBox="0 0 24 24" fill="none" xmlns="http://www.w3.org/2000/svg">
<path d="M15.5443 7.67817C16.5878 7.67817 17.4337 6.56723 17.4337 5.19683C17.4337 3.82641 16.5878 2.71547 15.5443 2.71547C14.5008 2.71547 13.6549 3.82641 13.6549 5.19683C13.6549 6.56723 14.5008 7.67817 15.5443 7.67817Z" stroke="#0F0E0E" stroke-width="1.71429" stroke-linecap="round" stroke-linejoin="round"/>
<path d="M8.45617 7.67817C9.49966 7.67817 10.3456 6.56723 10.3456 5.19683C10.3456 3.82641 9.49966 2.71547 8.45617 2.71547C7.41269 2.71547 6.56677 3.82641 6.56677 5.19683C6.56677 6.56723 7.41269 7.67817 8.45617 7.67817Z" stroke="#0F0E0E" stroke-width="1.71429" stroke-linecap="round" stroke-linejoin="round"/>
<path d="M20.6619 13.9778C21.7583 13.9778 22.6472 12.8669 22.6472 11.4965C22.6472 10.1261 21.7583 9.01514 20.6619 9.01514C19.5654 9.01514 18.6764 10.1261 18.6764 11.4965C18.6764 12.8669 19.5654 13.9778 20.6619 13.9778Z" stroke="#0F0E0E" stroke-width="1.71429" stroke-linecap="round" stroke-linejoin="round"/>
<path d="M3.33734 13.9778C4.43383 13.9778 5.32274 12.8669 5.32274 11.4965C5.32274 10.1261 4.43383 9.01514 3.33734 9.01514C2.24083 9.01514 1.35193 10.1261 1.35193 11.4965C1.35193 12.8669 2.24083 13.9778 3.33734 13.9778Z" stroke="#0F0E0E" stroke-width="1.71429" stroke-linecap="round" stroke-linejoin="round"/>
<path d="M16.9626 17.9761C16.9626 20.259 14.2827 21.2846 11.9999 21.2846C9.71703 21.2846 7.03717 20.259 7.03717 17.9761C7.03717 15.6933 8.6914 12.1863 11.9999 12.1863C15.3083 12.1863 16.9626 15.6933 16.9626 17.9761Z" stroke="#0F0E0E" stroke-width="1.71429" stroke-linecap="round" stroke-linejoin="round"/>
</svg>
