<svg width="24" height="24" viewBox="0 0 24 24" fill="none" xmlns="http://www.w3.org/2000/svg">
<path d="M1 11.169C1 11.169 1.88453 12.9689 3.97242 12.9689C6.06031 12.9689 6.554 10.7987 8.84759 10.6753C11.1412 10.5519 11.2646 13.1746 14.0005 13.1746C16.7363 13.1746 16.582 10.7165 19.359 10.7165C22.136 10.7165 23 12.5575 23 12.5575" stroke="#468DA6" stroke-width="2" stroke-miterlimit="10" stroke-linecap="round"/>
<path d="M1 4.99791C1 4.99791 1.88453 6.79782 3.97242 6.79782C6.06031 6.79782 6.554 4.62765 8.84759 4.50422C11.1412 4.3808 11.2646 7.00352 14.0005 7.00352C16.7363 7.00352 16.582 4.54536 19.359 4.54536C22.136 4.54536 23 6.38641 23 6.38641" stroke="#468DA6" stroke-width="2" stroke-miterlimit="10" stroke-linecap="round"/>
<path d="M1 17.3401C1 17.3401 1.88453 19.14 3.97242 19.14C6.06031 19.14 6.554 16.9699 8.84759 16.8464C11.1412 16.723 11.2646 19.3457 14.0005 19.3457C16.7363 19.3457 16.582 16.8876 19.359 16.8876C22.136 16.8876 23 18.7286 23 18.7286" stroke="#468DA6" stroke-width="2" stroke-miterlimit="10" stroke-linecap="round"/>
</svg>
