<svg xmlns="http://www.w3.org/2000/svg" width="24" height="24" fill="none" viewBox="0 0 24 24"><path stroke="#468da6" stroke-linecap="round" stroke-miterlimit="10" stroke-width="2" d="M1 11.169s.885 1.8 2.972 1.8c2.088 0 2.582-2.17 4.876-2.294 2.293-.123 2.417 2.5 5.153 2.5s2.581-2.459 5.358-2.459S23 12.559 23 12.559M1 4.998s.885 1.8 2.972 1.8c2.088 0 2.582-2.17 4.876-2.294 2.293-.123 2.417 2.5 5.153 2.5s2.581-2.459 5.358-2.459S23 6.386 23 6.386M1 17.34s.885 1.8 2.972 1.8c2.088 0 2.582-2.17 4.876-2.294 2.293-.123 2.417 2.5 5.153 2.5s2.581-2.458 5.358-2.458S23 18.728 23 18.728"/></svg>