<svg width="24" height="24" viewBox="0 0 24 24" fill="none" xmlns="http://www.w3.org/2000/svg">
<g clip-path="url(#clip0_2018_1369)">
<g clip-path="url(#clip1_2018_1369)">
<path d="M22.3489 22.3171H21.5528C20.7084 22.3171 19.8985 21.9816 19.3012 21.3844C18.704 20.7872 18.3686 19.9773 18.3686 19.1328C18.3686 19.9773 18.0331 20.7872 17.4359 21.3844C16.8387 21.9816 16.0288 22.3171 15.1843 22.3171C14.3398 22.3171 13.5298 21.9816 12.9327 21.3844C12.3355 20.7872 12 19.9773 12 19.1328C12 19.9773 11.6645 20.7872 11.0673 21.3844C10.4702 21.9816 9.66023 22.3171 8.8157 22.3171C7.97118 22.3171 7.16125 21.9816 6.56408 21.3844C5.9669 20.7872 5.63142 19.9773 5.63142 19.1328C5.63142 19.9773 5.29594 20.7872 4.69876 21.3844C4.10159 21.9816 3.29165 22.3171 2.44713 22.3171H1.65106" stroke="#0F0E0E" stroke-width="1.71" stroke-linecap="round" stroke-linejoin="round"/>
<path d="M16.7764 15.9484C15.9565 14.9515 14.9258 14.1486 13.7586 13.5973C12.5914 13.046 11.3166 12.7601 10.0258 12.7601C8.73493 12.7601 7.46011 13.046 6.29291 13.5973C5.1257 14.1486 4.09509 14.9515 3.27509 15.9484" stroke="#0F0E0E" stroke-width="1.71" stroke-linecap="round" stroke-linejoin="round"/>
<path d="M11.2039 12.8438C11.2994 9.24557 12.398 5.96576 14.7862 4.78757" stroke="#0F0E0E" stroke-width="1.71" stroke-linecap="round" stroke-linejoin="round"/>
<path d="M10.0258 1.76252C11.0578 1.55929 12.1285 1.75975 13.0172 2.32257C13.9059 2.88539 14.5448 3.76768 14.8022 4.78759" stroke="#0F0E0E" stroke-width="1.71" stroke-linecap="round" stroke-linejoin="round"/>
<path d="M20.6135 5.37674C19.8806 4.58548 18.8843 4.089 17.8113 3.98053C16.7383 3.87206 15.6626 4.15907 14.7863 4.78765" stroke="#0F0E0E" stroke-width="1.71" stroke-linecap="round" stroke-linejoin="round"/>
<path d="M8.94299 6.49125C9.56687 5.5721 10.4916 4.89917 11.5581 4.58824C12.6246 4.27729 13.7661 4.34781 14.7862 4.78765C15.8094 5.03789 16.6953 5.67602 17.2567 6.56727C17.8183 7.45852 18.0114 8.5331 17.7954 9.56408" stroke="#0F0E0E" stroke-width="1.71" stroke-linecap="round" stroke-linejoin="round"/>
</g>
</g>
<defs>
<clipPath id="clip0_2018_1369">
<rect width="24" height="24" fill="white"/>
</clipPath>
<clipPath id="clip1_2018_1369">
<rect width="24" height="24" fill="white"/>
</clipPath>
</defs>
</svg>
