<svg width="24" height="24" viewBox="0 0 24 24" fill="none" xmlns="http://www.w3.org/2000/svg">
<g clip-path="url(#clip0_2018_1369)">
<g clip-path="url(#clip1_2018_1369)">
<path d="M22.349 22.3171H21.5529C20.7084 22.3171 19.8985 21.9816 19.3013 21.3844C18.7041 20.7872 18.3686 19.9773 18.3686 19.1328C18.3686 19.9773 18.0332 20.7872 17.4359 21.3844C16.8387 21.9816 16.0289 22.3171 15.1843 22.3171C14.3398 22.3171 13.5299 21.9816 12.9327 21.3844C12.3355 20.7872 12.0001 19.9773 12.0001 19.1328C12.0001 19.9773 11.6646 20.7872 11.0674 21.3844C10.4702 21.9816 9.66029 22.3171 8.81577 22.3171C7.97125 22.3171 7.16131 21.9816 6.56414 21.3844C5.96696 20.7872 5.63148 19.9773 5.63148 19.1328C5.63148 19.9773 5.296 20.7872 4.69882 21.3844C4.10165 21.9816 3.29171 22.3171 2.44719 22.3171H1.65112" stroke="#0F0E0E" stroke-width="1.71" stroke-linecap="round" stroke-linejoin="round"/>
<path d="M16.7765 15.9484C15.9565 14.9515 14.9259 14.1486 13.7587 13.5973C12.5915 13.046 11.3167 12.7601 10.0258 12.7601C8.73499 12.7601 7.46017 13.046 6.29297 13.5973C5.12576 14.1486 4.09515 14.9515 3.27515 15.9484" stroke="#0F0E0E" stroke-width="1.71" stroke-linecap="round" stroke-linejoin="round"/>
<path d="M11.204 12.8437C11.2995 9.24547 12.3981 5.96566 14.7863 4.78748" stroke="#0F0E0E" stroke-width="1.71" stroke-linecap="round" stroke-linejoin="round"/>
<path d="M10.0258 1.76246C11.0578 1.55924 12.1285 1.75969 13.0172 2.32251C13.9059 2.88534 14.5448 3.76763 14.8022 4.78754" stroke="#0F0E0E" stroke-width="1.71" stroke-linecap="round" stroke-linejoin="round"/>
<path d="M20.6135 5.37668C19.8806 4.58541 18.8843 4.08894 17.8113 3.98046C16.7383 3.87199 15.6626 4.15901 14.7863 4.78758" stroke="#0F0E0E" stroke-width="1.71" stroke-linecap="round" stroke-linejoin="round"/>
<path d="M8.94312 6.49115C9.567 5.57201 10.4917 4.89907 11.5582 4.58814C12.6247 4.2772 13.7662 4.34772 14.7863 4.78756C15.8095 5.0378 16.6954 5.67593 17.2569 6.56718C17.8184 7.45843 18.0115 8.53301 17.7955 9.56399" stroke="#0F0E0E" stroke-width="1.71" stroke-linecap="round" stroke-linejoin="round"/>
</g>
</g>
<defs>
<clipPath id="clip0_2018_1369">
<rect width="24" height="24" fill="white"/>
</clipPath>
<clipPath id="clip1_2018_1369">
<rect width="24" height="24" fill="white"/>
</clipPath>
</defs>
</svg>
