<svg xmlns="http://www.w3.org/2000/svg" width="24" height="24" fill="none" viewBox="0 0 24 24"><g clip-path="url(#a)"><g stroke="#0f0e0e" stroke-linecap="round" stroke-linejoin="round" stroke-width="1.71" clip-path="url(#b)"><path d="M22.349 22.317h-.796a3.185 3.185 0 0 1-3.184-3.184 3.184 3.184 0 0 1-6.369 0 3.184 3.184 0 0 1-6.369 0 3.184 3.184 0 0 1-3.184 3.184h-.796M16.776 15.948a8.74 8.74 0 0 0-13.5 0"/><path d="M11.204 12.844c.095-3.598 1.194-6.878 3.582-8.056M10.026 1.763a4.11 4.11 0 0 1 4.776 3.025"/><path d="M20.614 5.377a4.426 4.426 0 0 0-5.828-.59"/><path d="M8.943 6.491a4.776 4.776 0 0 1 5.843-1.703 4.06 4.06 0 0 1 3.01 4.776"/></g></g><defs><clipPath id="a"><path fill="#fff" d="M0 0h24v24H0z"/></clipPath><clipPath id="b"><path fill="#fff" d="M0 0h24v24H0z"/></clipPath></defs></svg>