<svg width="24" height="24" viewBox="0 0 24 24" fill="none" xmlns="http://www.w3.org/2000/svg">
<g clip-path="url(#clip0_2018_1343)">
<path d="M2 18.226V12.601C2 12.1843 2.08333 11.7926 2.25 11.426C2.41667 11.0593 2.66666 10.7593 3 10.526V7.62595C3 6.87595 3.25417 6.2468 3.7625 5.73845C4.27083 5.2301 4.9 4.97595 5.65 4.97595H10.15C10.5166 4.97595 10.8583 5.0593 11.175 5.22595C11.4917 5.3926 11.7667 5.6176 12 5.90095C12.2333 5.6176 12.5042 5.3926 12.8125 5.22595C13.1208 5.0593 13.4584 4.97595 13.825 4.97595H18.325C19.075 4.97595 19.7084 5.2301 20.225 5.73845C20.7416 6.2468 21 6.87595 21 7.62595V10.526C21.3333 10.7593 21.5833 11.0593 21.75 11.426C21.9167 11.7926 22 12.1843 22 12.601V18.226C22 18.4426 21.9291 18.6218 21.7875 18.7635C21.6459 18.9051 21.4667 18.976 21.25 18.976C21.0333 18.976 20.8541 18.9051 20.7125 18.7635C20.5709 18.6218 20.5 18.4426 20.5 18.226V16.976H3.5V18.226C3.5 18.4426 3.42916 18.6218 3.2875 18.7635C3.14583 18.9051 2.96667 18.976 2.75 18.976C2.53333 18.976 2.35417 18.9051 2.2125 18.7635C2.07084 18.6218 2 18.4426 2 18.226ZM12.75 10.101H19.5V7.62595C19.5 7.2926 19.3875 7.0176 19.1625 6.80095C18.9375 6.5843 18.6583 6.47595 18.325 6.47595H13.75C13.4667 6.47595 13.2292 6.5926 13.0375 6.82595C12.8458 7.0593 12.75 7.32595 12.75 7.62595V10.101ZM4.5 10.101H11.25V7.62595C11.25 7.32595 11.1542 7.0593 10.9625 6.82595C10.7708 6.5926 10.5333 6.47595 10.25 6.47595H5.65C5.33335 6.47595 5.0625 6.58845 4.8375 6.81345C4.6125 7.03845 4.5 7.3093 4.5 7.62595V10.101ZM3.5 15.476H20.5V12.601C20.5 12.3176 20.4042 12.0801 20.2125 11.8885C20.0208 11.6968 19.7833 11.601 19.5 11.601H4.5C4.21667 11.601 3.97916 11.6968 3.7875 11.8885C3.59583 12.0801 3.5 12.3176 3.5 12.601V15.476Z" fill="#0F0E0E"/>
</g>
<defs>
<clipPath id="clip0_2018_1343">
<rect width="24" height="24" fill="white"/>
</clipPath>
</defs>
</svg>
