<svg width="24" height="24" viewBox="0 0 24 24" fill="none" xmlns="http://www.w3.org/2000/svg">
<g clip-path="url(#clip0_2018_1684)">
<g clip-path="url(#clip1_2018_1684)">
<path d="M4.66349 20.8248C6.8928 20.8248 8.70002 19.0176 8.70002 16.7882C8.70002 14.5589 6.8928 12.7517 4.66349 12.7517C2.43417 12.7517 0.626953 14.5589 0.626953 16.7882C0.626953 19.0176 2.43417 20.8248 4.66349 20.8248Z" stroke="#0F0E0E" stroke-width="1.51749" stroke-miterlimit="10"/>
<path d="M19.3365 21.017C21.5658 21.017 23.373 19.2098 23.373 16.9805C23.373 14.7512 21.5658 12.944 19.3365 12.944C17.1071 12.944 15.2999 14.7512 15.2999 16.9805C15.2999 19.2098 17.1071 21.017 19.3365 21.017Z" stroke="#0F0E0E" stroke-width="1.51749" stroke-miterlimit="10"/>
<path d="M18.6953 9.29175H15.3316L12.3522 6.3124C12.3522 6.3124 11.9678 6.15222 11.8076 6.3124L8.34773 9.77229C8.09145 10.0286 8.09145 10.413 8.34773 10.6693L11.4552 13.7768C11.6474 13.969 11.7756 14.2573 11.7756 14.5136V18.422" stroke="#0F0E0E" stroke-width="1.51749" stroke-miterlimit="10" stroke-linecap="round"/>
<path d="M14.9468 4.96718C15.796 4.96718 16.4845 4.27871 16.4845 3.42945C16.4845 2.58019 15.796 1.89172 14.9468 1.89172C14.0975 1.89172 13.4091 2.58019 13.4091 3.42945C13.4091 4.27871 14.0975 4.96718 14.9468 4.96718Z" fill="#0F0E0E" stroke="#0F0E0E" stroke-width="1.51749" stroke-miterlimit="10"/>
</g>
</g>
<defs>
<clipPath id="clip0_2018_1684">
<rect width="24" height="24" fill="white"/>
</clipPath>
<clipPath id="clip1_2018_1684">
<rect width="24.3473" height="20.7273" fill="white" transform="translate(-0.173706 1.09094)"/>
</clipPath>
</defs>
</svg>
