<svg xmlns="http://www.w3.org/2000/svg" width="24" height="24" fill="none" viewBox="0 0 24 24"><path fill="#0f0e0e" d="M0 3.188C0 2.254.766 1.5 1.714 1.5h20.572c.948 0 1.714.754 1.714 1.688s-.766 1.687-1.714 1.687H1.714C.766 4.875 0 4.121 0 3.188m0 8.437c0-.933.766-1.687 1.714-1.687h20.572c.948 0 1.714.754 1.714 1.687s-.766 1.688-1.714 1.688H1.714C.766 13.313 0 12.558 0 11.625m24 8.438c0 .933-.766 1.687-1.714 1.687H1.714C.766 21.75 0 20.996 0 20.063c0-.934.766-1.688 1.714-1.688h20.572c.948 0 1.714.754 1.714 1.688"/></svg>