<svg width="24" height="24" viewBox="0 0 24 24" fill="none" xmlns="http://www.w3.org/2000/svg">
<path d="M0 3.1875C0 2.2541 0.766071 1.5 1.71429 1.5H22.2857C23.2339 1.5 24 2.2541 24 3.1875C24 4.1209 23.2339 4.875 22.2857 4.875H1.71429C0.766071 4.875 0 4.1209 0 3.1875ZM0 11.625C0 10.6916 0.766071 9.9375 1.71429 9.9375H22.2857C23.2339 9.9375 24 10.6916 24 11.625C24 12.5584 23.2339 13.3125 22.2857 13.3125H1.71429C0.766071 13.3125 0 12.5584 0 11.625ZM24 20.0625C24 20.9959 23.2339 21.75 22.2857 21.75H1.71429C0.766071 21.75 0 20.9959 0 20.0625C0 19.1291 0.766071 18.375 1.71429 18.375H22.2857C23.2339 18.375 24 19.1291 24 20.0625Z" fill="#0F0E0E"/>
</svg>
