<svg xmlns="http://www.w3.org/2000/svg" width="24" height="24" fill="none" viewBox="0 0 24 24"><g clip-path="url(#a)"><g stroke="#0f0e0e" stroke-miterlimit="10" stroke-width="1.517" clip-path="url(#b)"><path d="M4.663 20.825a4.037 4.037 0 1 0 0-8.073 4.037 4.037 0 0 0 0 8.073ZM19.337 21.017a4.036 4.036 0 1 0 0-8.073 4.036 4.036 0 0 0 0 8.073Z"/><path stroke-linecap="round" d="M18.695 9.292h-3.363l-2.98-2.98s-.384-.16-.544 0l-3.46 3.46a.62.62 0 0 0 0 .897l3.107 3.108c.192.192.32.48.32.737v3.908"/><path fill="#0f0e0e" d="M14.947 4.967a1.538 1.538 0 1 0 0-3.075 1.538 1.538 0 0 0 0 3.075Z"/></g></g><defs><clipPath id="a"><path fill="#fff" d="M0 0h24v24H0z"/></clipPath><clipPath id="b"><path fill="#fff" d="M-.174 1.09h24.347v20.728H-.174z"/></clipPath></defs></svg>