<svg width="24" height="24" viewBox="0 0 24 24" fill="none" xmlns="http://www.w3.org/2000/svg">
<g clip-path="url(#clip0_2018_1346)">
<g clip-path="url(#clip1_2018_1346)">
<path d="M17.6297 9.00387C17.7972 9.00395 17.9626 9.04091 18.1141 9.11214C18.2657 9.18336 18.3997 9.2871 18.5066 9.41598C18.6135 9.54486 18.6907 9.69571 18.7328 9.85781C18.7748 10.0199 18.7806 10.1893 18.7497 10.3539C18.4041 11.8832 17.5486 13.2495 16.3238 14.2284C15.0989 15.2073 13.5776 15.7405 12.0097 15.7405C10.4418 15.7405 8.92049 15.2073 7.69567 14.2284C6.47086 13.2495 5.61537 11.8832 5.26972 10.3539C5.2368 10.1882 5.24144 10.0173 5.28329 9.85367C5.32514 9.69004 5.40314 9.53788 5.51154 9.40837C5.61995 9.27885 5.75601 9.17529 5.90971 9.10529C6.06341 9.03529 6.23085 9.00064 6.39972 9.00387H17.6297Z" stroke="#0F0E0E" stroke-width="1.5" stroke-linecap="round" stroke-linejoin="round"/>
<path d="M19.4997 23.2539L16.2297 14.3339" stroke="#0F0E0E" stroke-width="1.5" stroke-linecap="round" stroke-linejoin="round"/>
<path d="M4.49969 23.2539L7.76969 14.3339" stroke="#0F0E0E" stroke-width="1.5" stroke-linecap="round" stroke-linejoin="round"/>
<path d="M18.3997 20.2539H5.59967" stroke="#0F0E0E" stroke-width="1.5" stroke-linecap="round" stroke-linejoin="round"/>
<path d="M6.91969 0.753906L6.29969 1.57391C6.05214 1.8986 5.93899 2.30607 5.98367 2.71191C6.02835 3.11775 6.22744 3.49085 6.53969 3.75391C6.71343 3.89829 6.85463 4.07782 6.95399 4.28069C7.05336 4.48356 7.10864 4.70518 7.1162 4.93095C7.12375 5.15672 7.08342 5.38154 6.99784 5.5906C6.91226 5.79967 6.78339 5.98824 6.61969 6.14391" stroke="#0F0E0E" stroke-width="1.5" stroke-linecap="round" stroke-linejoin="round"/>
<path d="M12.5597 0.753906L11.9397 1.57391C11.6922 1.8986 11.579 2.30607 11.6237 2.71191C11.6684 3.11775 11.8675 3.49085 12.1797 3.75391C12.3507 3.90006 12.4894 4.08023 12.587 4.28293C12.6846 4.48564 12.7388 4.70644 12.7464 4.93128C12.7539 5.15612 12.7145 5.38006 12.6307 5.58884C12.5469 5.79761 12.4206 5.98665 12.2597 6.14391" stroke="#0F0E0E" stroke-width="1.5" stroke-linecap="round" stroke-linejoin="round"/>
<path d="M17.8097 0.753906L17.1897 1.57391C16.9422 1.8986 16.829 2.30607 16.8737 2.71191C16.9184 3.11775 17.1175 3.49085 17.4297 3.75391C17.6007 3.90006 17.7394 4.08023 17.837 4.28293C17.9346 4.48564 17.9888 4.70644 17.9964 4.93128C18.0039 5.15612 17.9645 5.38006 17.8807 5.58884C17.7969 5.79761 17.6706 5.98665 17.5097 6.14391" stroke="#0F0E0E" stroke-width="1.5" stroke-linecap="round" stroke-linejoin="round"/>
</g>
</g>
<defs>
<clipPath id="clip0_2018_1346">
<rect width="24" height="24" fill="white"/>
</clipPath>
<clipPath id="clip1_2018_1346">
<rect width="24" height="24" fill="white" transform="translate(-0.000305176 0.00390625)"/>
</clipPath>
</defs>
</svg>
