<svg width="24" height="24" viewBox="0 0 24 24" fill="none" xmlns="http://www.w3.org/2000/svg">
<g clip-path="url(#clip0_2018_1378)">
<g clip-path="url(#clip1_2018_1378)">
<path d="M12.0001 22.3489C17.7157 22.3489 22.349 17.7156 22.349 12C22.349 6.28443 17.7157 1.65105 12.0001 1.65105C6.28456 1.65105 1.65118 6.28443 1.65118 12C1.65118 17.7156 6.28456 22.3489 12.0001 22.3489Z" stroke="#0F0E0E" stroke-width="1.71" stroke-linecap="round" stroke-linejoin="round"/>
<path d="M9.61188 16.7764H14.3883" stroke="#0F0E0E" stroke-width="1.71" stroke-linecap="round" stroke-linejoin="round"/>
<path d="M12.0001 16.7764V11.2039H10.408" stroke="#0F0E0E" stroke-width="1.71" stroke-linecap="round" stroke-linejoin="round"/>
<path d="M12.0001 7.62159C11.7803 7.62159 11.6021 7.44338 11.6021 7.22355C11.6021 7.00372 11.7803 6.82552 12.0001 6.82552" stroke="#0F0E0E" stroke-width="1.71" stroke-linecap="round" stroke-linejoin="round"/>
<path d="M12.0001 7.62159C12.2199 7.62159 12.3981 7.44338 12.3981 7.22355C12.3981 7.00372 12.2199 6.82552 12.0001 6.82552" stroke="#0F0E0E" stroke-width="1.71" stroke-linecap="round" stroke-linejoin="round"/>
</g>
</g>
<defs>
<clipPath id="clip0_2018_1378">
<rect width="24" height="24" fill="white"/>
</clipPath>
<clipPath id="clip1_2018_1378">
<rect width="24" height="24" fill="white"/>
</clipPath>
</defs>
</svg>
