<svg width="24" height="24" viewBox="0 0 24 24" fill="none" xmlns="http://www.w3.org/2000/svg">
<g clip-path="url(#clip0_2018_1378)">
<g clip-path="url(#clip1_2018_1378)">
<path d="M12.0002 22.349C17.7158 22.349 22.3491 17.7157 22.3491 12.0001C22.3491 6.2845 17.7158 1.65112 12.0002 1.65112C6.28462 1.65112 1.65125 6.2845 1.65125 12.0001C1.65125 17.7157 6.28462 22.349 12.0002 22.349Z" stroke="#0F0E0E" stroke-width="1.71" stroke-linecap="round" stroke-linejoin="round"/>
<path d="M9.61194 16.7765H14.3884" stroke="#0F0E0E" stroke-width="1.71" stroke-linecap="round" stroke-linejoin="round"/>
<path d="M12.0002 16.7765V11.204H10.4081" stroke="#0F0E0E" stroke-width="1.71" stroke-linecap="round" stroke-linejoin="round"/>
<path d="M12.0002 7.62163C11.7804 7.62163 11.6022 7.44342 11.6022 7.2236C11.6022 7.00377 11.7804 6.82556 12.0002 6.82556" stroke="#0F0E0E" stroke-width="1.71" stroke-linecap="round" stroke-linejoin="round"/>
<path d="M12.0002 7.62163C12.2201 7.62163 12.3983 7.44342 12.3983 7.2236C12.3983 7.00377 12.2201 6.82556 12.0002 6.82556" stroke="#0F0E0E" stroke-width="1.71" stroke-linecap="round" stroke-linejoin="round"/>
</g>
</g>
<defs>
<clipPath id="clip0_2018_1378">
<rect width="24" height="24" fill="white"/>
</clipPath>
<clipPath id="clip1_2018_1378">
<rect width="24" height="24" fill="white"/>
</clipPath>
</defs>
</svg>
