<svg xmlns="http://www.w3.org/2000/svg" width="24" height="24" fill="none" viewBox="0 0 24 24"><g clip-path="url(#a)"><g clip-path="url(#b)"><path stroke="#0f0e0e" stroke-linecap="round" stroke-linejoin="round" stroke-width="1.71" d="M9.156 21.499a5.07 5.07 0 0 1-6.355-.7l-.715-.699a1.716 1.716 0 0 1 0-2.399l3.035-3.003a1.7 1.7 0 0 1 2.383 0 1.716 1.716 0 0 0 2.4 0l4.766-4.766a1.683 1.683 0 0 0 0-2.4 1.7 1.7 0 0 1 0-2.382l3.018-3.02a1.716 1.716 0 0 1 2.4 0l.699.716a5.07 5.07 0 0 1 .699 6.355A46 46 0 0 1 9.156 21.5"/></g></g><defs><clipPath id="a"><path fill="#fff" d="M0 0h24v24H0z"/></clipPath><clipPath id="b"><path fill="#fff" d="M-.054-.025h24v24h-24z"/></clipPath></defs></svg>