<svg width="24" height="24" viewBox="0 0 24 24" fill="none" xmlns="http://www.w3.org/2000/svg">
<g clip-path="url(#clip0_2018_1404)">
<g clip-path="url(#clip1_2018_1404)">
<path d="M9.15638 21.4986C8.17794 22.1297 7.012 22.4048 5.85459 22.2776C4.6972 22.1502 3.61892 21.6283 2.8011 20.7994L2.08612 20.1003C1.77267 19.7797 1.59717 19.3492 1.59717 18.9008C1.59717 18.4525 1.77267 18.0218 2.08612 17.7013L5.12077 14.6984C5.43871 14.3859 5.86663 14.2109 6.31239 14.2109C6.75815 14.2109 7.18608 14.3859 7.504 14.6984C7.82461 15.0118 8.25519 15.1873 8.70357 15.1873C9.15195 15.1873 9.58251 15.0118 9.90312 14.6984L14.6696 9.93191C14.8286 9.77521 14.9549 9.58847 15.041 9.38254C15.1272 9.17661 15.1716 8.95559 15.1716 8.73236C15.1716 8.50911 15.1272 8.2881 15.041 8.08216C14.9549 7.87623 14.8286 7.68949 14.6696 7.53279C14.3571 7.21487 14.1821 6.78693 14.1821 6.34118C14.1821 5.89541 14.3571 5.46749 14.6696 5.14956L17.6883 2.1308C18.009 1.81735 18.4395 1.64185 18.8878 1.64185C19.3363 1.64185 19.7669 1.81735 20.0875 2.1308L20.7866 2.84578C21.6153 3.6636 22.1372 4.74188 22.2646 5.89927C22.392 7.05668 22.1169 8.22262 21.4856 9.20105C18.1967 14.0481 14.0119 18.2221 9.15638 21.4986Z" stroke="#0F0E0E" stroke-width="1.71" stroke-linecap="round" stroke-linejoin="round"/>
</g>
</g>
<defs>
<clipPath id="clip0_2018_1404">
<rect width="24" height="24" fill="white"/>
</clipPath>
<clipPath id="clip1_2018_1404">
<rect width="24" height="24" fill="white" transform="translate(-0.0539551 -0.0251617)"/>
</clipPath>
</defs>
</svg>
