<svg width="24" height="24" viewBox="0 0 24 24" fill="none" xmlns="http://www.w3.org/2000/svg">
<g clip-path="url(#clip0_2018_1387)">
<path d="M12.9584 15.8334C13.5137 15.8326 14.0573 15.9928 14.5236 16.2944C14.9899 16.596 15.3588 17.0262 15.5859 17.5329C15.8129 18.0397 15.8883 18.6014 15.803 19.1501C15.7177 19.6989 15.4753 20.2111 15.105 20.625" stroke="#0F0E0E" stroke-linecap="round" stroke-linejoin="round"/>
<path d="M17.75 12H17.7596" stroke="#0F0E0E" stroke-linecap="round" stroke-linejoin="round"/>
<path d="M17.75 20.625H10.0833C9.06667 20.625 8.09165 20.2212 7.37276 19.5023C6.65387 18.7834 6.25 17.8084 6.25 16.7917C6.25 15.0125 6.95677 13.3062 8.21483 12.0482C9.47288 10.7901 11.1792 10.0834 12.9583 10.0834H13.15L9.7 6.63336C9.52381 6.45717 9.38405 6.248 9.28869 6.01779C9.19334 5.78759 9.14426 5.54086 9.14426 5.29169C9.14426 5.04252 9.19334 4.79579 9.28869 4.56559C9.38405 4.33538 9.52381 4.12621 9.7 3.95002C9.87619 3.77383 10.0854 3.63407 10.3156 3.53872C10.5458 3.44336 10.7925 3.39429 11.0417 3.39429C11.2908 3.39429 11.5376 3.44336 11.7678 3.53872C11.998 3.63407 12.2071 3.77383 12.3833 3.95002L15.6417 7.20836H15.8333C18.9958 7.20836 21.5833 9.79586 21.5833 12.9584V13.9167C21.5833 14.425 21.3814 14.9125 21.022 15.272C20.6625 15.6314 20.175 15.8334 19.6667 15.8334H18.7083C17.9458 15.8334 17.2146 16.1363 16.6754 16.6754C16.1362 17.2146 15.8333 17.9459 15.8333 18.7084" stroke="#0F0E0E" stroke-linecap="round" stroke-linejoin="round"/>
<path d="M19.6667 8.68413V4.33329C19.6667 3.82496 19.4648 3.33745 19.1053 2.978C18.7459 2.61856 18.2584 2.41663 17.75 2.41663C17.2417 2.41663 16.7542 2.61856 16.3948 2.978C16.0353 3.33745 15.8334 3.82496 15.8334 4.33329V7.20829" stroke="#0F0E0E" stroke-linecap="round" stroke-linejoin="round"/>
<path d="M7.79481 12.5022C7.52534 12.0253 7.12521 11.6353 6.64155 11.3781C6.15788 11.1209 5.61081 11.0072 5.06473 11.0505C4.51865 11.0937 3.99629 11.2921 3.55914 11.6222C3.122 11.9524 2.78827 12.4005 2.59724 12.9139C2.4062 13.4273 2.36582 13.9846 2.48084 14.5202C2.59586 15.0558 2.8615 15.5473 3.24648 15.937C3.63146 16.3267 4.11977 16.5983 4.65391 16.7199C5.18805 16.8414 5.74579 16.8078 6.26148 16.623" stroke="#0F0E0E" stroke-linecap="round" stroke-linejoin="round"/>
</g>
<defs>
<clipPath id="clip0_2018_1387">
<rect width="24" height="24" fill="white"/>
</clipPath>
</defs>
</svg>
