<svg xmlns="http://www.w3.org/2000/svg" width="24" height="24" fill="none" viewBox="0 0 24 24"><g stroke="#0f0e0e" stroke-linecap="round" stroke-linejoin="round" clip-path="url(#a)"><path d="M12.958 15.833a2.875 2.875 0 0 1 2.147 4.792M17.75 12h.01"/><path d="M17.75 20.625h-7.667a3.833 3.833 0 0 1-3.833-3.833 6.71 6.71 0 0 1 6.708-6.709h.192L9.7 6.633a1.897 1.897 0 0 1 2.683-2.683l3.259 3.258h.191c3.163 0 5.75 2.588 5.75 5.75v.959a1.917 1.917 0 0 1-1.916 1.916h-.959a2.875 2.875 0 0 0-2.875 2.875"/><path d="M19.667 8.684v-4.35a1.916 1.916 0 1 0-3.834 0v2.874M7.795 12.502a2.875 2.875 0 1 0-1.534 4.121"/></g><defs><clipPath id="a"><path fill="#fff" d="M0 0h24v24H0z"/></clipPath></defs></svg>