<svg width="24" height="24" viewBox="0 0 24 24" fill="none" xmlns="http://www.w3.org/2000/svg">
<g clip-path="url(#clip0_2018_1387)">
<path d="M12.9584 15.8333C13.5137 15.8326 14.0573 15.9927 14.5236 16.2943C14.9899 16.5959 15.3588 17.0261 15.5859 17.5329C15.8129 18.0397 15.8883 18.6014 15.803 19.1501C15.7177 19.6988 15.4753 20.2111 15.105 20.625" stroke="#0F0E0E" stroke-linecap="round" stroke-linejoin="round"/>
<path d="M17.75 12H17.7596" stroke="#0F0E0E" stroke-linecap="round" stroke-linejoin="round"/>
<path d="M17.75 20.625H10.0833C9.06667 20.625 8.09165 20.2211 7.37276 19.5022C6.65387 18.7834 6.25 17.8083 6.25 16.7917C6.25 15.0125 6.95677 13.3062 8.21483 12.0482C9.47288 10.7901 11.1792 10.0833 12.9583 10.0833H13.15L9.7 6.63333C9.52381 6.45714 9.38405 6.24798 9.28869 6.01777C9.19334 5.78757 9.14426 5.54084 9.14426 5.29167C9.14426 5.0425 9.19334 4.79577 9.28869 4.56556C9.38405 4.33536 9.52381 4.12619 9.7 3.95C9.87619 3.77381 10.0854 3.63405 10.3156 3.5387C10.5458 3.44334 10.7925 3.39426 11.0417 3.39426C11.2908 3.39426 11.5376 3.44334 11.7678 3.5387C11.998 3.63405 12.2071 3.77381 12.3833 3.95L15.6417 7.20833H15.8333C18.9958 7.20833 21.5833 9.79583 21.5833 12.9583V13.9167C21.5833 14.425 21.3814 14.9125 21.022 15.272C20.6625 15.6314 20.175 15.8333 19.6667 15.8333H18.7083C17.9458 15.8333 17.2146 16.1362 16.6754 16.6754C16.1362 17.2146 15.8333 17.9458 15.8333 18.7083" stroke="#0F0E0E" stroke-linecap="round" stroke-linejoin="round"/>
<path d="M19.6667 8.68416V4.33333C19.6667 3.825 19.4648 3.33749 19.1053 2.97804C18.7459 2.6186 18.2584 2.41666 17.75 2.41666C17.2417 2.41666 16.7542 2.6186 16.3948 2.97804C16.0353 3.33749 15.8334 3.825 15.8334 4.33333V7.20833" stroke="#0F0E0E" stroke-linecap="round" stroke-linejoin="round"/>
<path d="M7.79481 12.5022C7.52534 12.0252 7.12521 11.6352 6.64155 11.378C6.15788 11.1209 5.61081 11.0072 5.06473 11.0505C4.51865 11.0937 3.99629 11.2921 3.55914 11.6222C3.122 11.9523 2.78827 12.4005 2.59724 12.9139C2.4062 13.4273 2.36582 13.9846 2.48084 14.5201C2.59586 15.0557 2.8615 15.5473 3.24648 15.937C3.63146 16.3267 4.11977 16.5983 4.65391 16.7198C5.18805 16.8414 5.74579 16.8078 6.26148 16.623" stroke="#0F0E0E" stroke-linecap="round" stroke-linejoin="round"/>
</g>
<defs>
<clipPath id="clip0_2018_1387">
<rect width="24" height="24" fill="white"/>
</clipPath>
</defs>
</svg>
