<svg width="24" height="24" viewBox="0 0 24 24" fill="none" xmlns="http://www.w3.org/2000/svg">
<path d="M12.3467 2.00934L17.9778 7.64041C17.9778 7.64041 18.082 7.74546 17.9358 7.74546C17.7896 7.74546 14.7525 7.74546 14.7525 7.74546C14.7525 7.74546 14.6211 7.74546 14.7105 7.84002C14.8 7.93457 19.9739 13.7022 19.9739 13.7022C19.9739 13.7022 19.9739 13.7968 19.9319 13.7968H16.0238C15.9712 13.7968 15.9397 13.8598 15.9817 13.9018L21.928 19.8481C21.928 19.8481 21.9385 19.9531 21.886 19.9531H2.0615C2.00897 19.9531 1.97745 19.8901 2.01947 19.8481L7.91325 13.9543C7.91325 13.9543 7.92375 13.8493 7.87122 13.8493H3.90002C3.90002 13.8493 3.81597 13.7863 3.85799 13.7442L9.24749 7.91356C9.24749 7.91356 9.24749 7.8085 9.20547 7.8085H6.34788C6.29535 7.8085 6.26383 7.74547 6.30585 7.70344L12.2627 2.00934C12.2627 2.00934 12.3257 1.98833 12.3467 2.00934Z" stroke="#327150" stroke-width="2" stroke-miterlimit="10"/>
<path d="M11.9685 23V19.9428" stroke="#327150" stroke-width="2" stroke-miterlimit="10"/>
</svg>
