<svg xmlns="http://www.w3.org/2000/svg" width="24" height="24" fill="none" viewBox="0 0 24 24"><path stroke="#327150" stroke-miterlimit="10" stroke-width="2" d="m12.347 2.01 5.63 5.63s.105.105-.041.105h-3.184s-.13 0-.042.095c.09.095 5.264 5.862 5.264 5.862s0 .095-.042.095h-3.908a.06.06 0 0 0-.042.105l5.946 5.946s.01.105-.042.105H2.062a.06.06 0 0 1-.043-.105l5.894-5.894s.01-.105-.042-.105H3.9s-.084-.063-.042-.105l5.39-5.83s0-.105-.043-.105H6.348a.06.06 0 0 1-.042-.106l5.957-5.694s.063-.02.084 0ZM11.969 23v-3.057"/></svg>