<svg width="24" height="24" viewBox="0 0 24 24" fill="none" xmlns="http://www.w3.org/2000/svg">
<g clip-path="url(#clip0_2018_1320)">
<g clip-path="url(#clip1_2018_1320)">
<path d="M17.0313 12.7175H21.3438C21.725 12.7175 22.0907 12.5661 22.3603 12.2965C22.6299 12.0269 22.7813 11.6612 22.7813 11.28V2.65503C22.7813 2.27378 22.6299 1.90815 22.3603 1.63856C22.0907 1.36898 21.725 1.21753 21.3438 1.21753H18.4688C18.0876 1.21753 17.7219 1.36898 17.4523 1.63856C17.1827 1.90815 17.0313 2.27378 17.0313 2.65503V12.7175Z" stroke="#0F0E0E" stroke-linecap="round" stroke-linejoin="round"/>
<path d="M5.53131 9.84253C5.15007 9.84253 4.78442 9.99398 4.51485 10.2636C4.24527 10.5332 4.09381 10.8988 4.09381 11.28C4.09381 11.6612 4.24527 12.0269 4.51485 12.2965C4.78442 12.5661 5.15007 12.7175 5.53131 12.7175H17.0313V9.84253H5.53131Z" stroke="#0F0E0E" stroke-linecap="round" stroke-linejoin="round"/>
<path d="M19.3792 15.4496C19.9508 15.2581 20.4476 14.8919 20.7997 14.4026C21.1517 13.9134 21.341 13.3258 21.3409 12.7231H5.53131C5.53104 14.1807 5.93367 15.6098 6.69471 16.8529C7.45575 18.0959 8.54558 19.1044 9.84381 19.7669L9.12506 22.7818H18.4688V16.821C18.4605 16.5264 18.5436 16.2364 18.7066 15.9909C18.8695 15.7453 19.1045 15.5563 19.3792 15.4496Z" stroke="#0F0E0E" stroke-linecap="round" stroke-linejoin="round"/>
</g>
</g>
<defs>
<clipPath id="clip0_2018_1320">
<rect width="24" height="24" fill="white"/>
</clipPath>
<clipPath id="clip1_2018_1320">
<rect width="24" height="24" fill="white" transform="translate(6.10352e-05 -0.000244141)"/>
</clipPath>
</defs>
</svg>
