<svg width="24" height="24" viewBox="0 0 24 24" fill="none" xmlns="http://www.w3.org/2000/svg">
<g clip-path="url(#clip0_2018_1355)">
<g clip-path="url(#clip1_2018_1355)">
<path d="M19.7141 0.857262H4.28557C3.33881 0.857262 2.57129 1.62477 2.57129 2.57155V21.4287C2.57129 22.3755 3.33881 23.143 4.28557 23.143H19.7141C20.6609 23.143 21.4284 22.3755 21.4284 21.4287V2.57155C21.4284 1.62477 20.6609 0.857262 19.7141 0.857262Z" stroke="#0F0E0E" stroke-width="1.71429" stroke-linecap="round" stroke-linejoin="round"/>
<path d="M17.0715 15.4287H15.6306C14.3702 15.4287 13.1271 15.1353 11.9997 14.5716C10.8724 14.0079 9.62925 13.7144 8.36882 13.7144H6.92798M17.1426 14.5716C17.1426 17.412 14.84 19.7144 11.9997 19.7144C9.15942 19.7144 6.85687 17.412 6.85687 14.5716C6.85687 13.9705 6.95999 13.3935 7.14952 12.8573C7.85551 10.8598 9.7605 9.42872 11.9997 9.42872C14.84 9.42872 17.1426 11.7313 17.1426 14.5716Z" stroke="#0F0E0E" stroke-width="1.71429" stroke-linecap="round" stroke-linejoin="round"/>
<path d="M2.57117 6.00014H21.4283" stroke="#0F0E0E" stroke-width="1.71429" stroke-linecap="round" stroke-linejoin="round"/>
</g>
</g>
<defs>
<clipPath id="clip0_2018_1355">
<rect width="24" height="24" fill="white"/>
</clipPath>
<clipPath id="clip1_2018_1355">
<rect width="24" height="24" fill="white"/>
</clipPath>
</defs>
</svg>
