<svg xmlns="http://www.w3.org/2000/svg" width="24" height="24" fill="none" viewBox="0 0 24 24"><g clip-path="url(#a)"><g stroke="#0f0e0e" stroke-linecap="round" stroke-linejoin="round" stroke-width="1.714" clip-path="url(#b)"><path d="M19.714.857H4.286c-.947 0-1.715.768-1.715 1.715v18.857c0 .947.768 1.714 1.715 1.714h15.428c.947 0 1.714-.768 1.714-1.714V2.572c0-.947-.767-1.715-1.714-1.715"/><path d="M17.072 15.429H15.63A8.1 8.1 0 0 1 12 14.572a8.1 8.1 0 0 0-3.631-.858H6.928m10.215.858a5.143 5.143 0 1 1-10.286 0 5.143 5.143 0 0 1 10.286 0M2.571 6h18.857"/></g></g><defs><clipPath id="a"><path fill="#fff" d="M0 0h24v24H0z"/></clipPath><clipPath id="b"><path fill="#fff" d="M0 0h24v24H0z"/></clipPath></defs></svg>