<svg xmlns="http://www.w3.org/2000/svg" width="24" height="24" fill="none" viewBox="0 0 24 24"><g clip-path="url(#a)"><g stroke="#0f0e0e" stroke-linecap="round" stroke-linejoin="round" clip-path="url(#b)"><path d="M17.031 12.718h4.313a1.44 1.44 0 0 0 1.437-1.438V2.655a1.437 1.437 0 0 0-1.437-1.437h-2.875a1.44 1.44 0 0 0-1.438 1.437zM5.531 9.843a1.437 1.437 0 0 0 0 2.874h11.5V9.843zM19.38 15.45a2.875 2.875 0 0 0 1.96-2.727H5.532a7.91 7.91 0 0 0 4.313 7.044l-.719 3.015h9.344V16.82a1.43 1.43 0 0 1 .91-1.371"/></g></g><defs><clipPath id="a"><path fill="#fff" d="M0 0h24v24H0z"/></clipPath><clipPath id="b"><path fill="#fff" d="M0 0h24v24H0z"/></clipPath></defs></svg>