<svg width="24" height="24" viewBox="0 0 24 24" fill="none" xmlns="http://www.w3.org/2000/svg">
<g clip-path="url(#clip0_2018_1320)">
<g clip-path="url(#clip1_2018_1320)">
<path d="M17.0313 12.7175H21.3438C21.725 12.7175 22.0907 12.5661 22.3603 12.2965C22.6299 12.027 22.7813 11.6613 22.7813 11.28V2.65505C22.7813 2.27381 22.6299 1.90817 22.3603 1.63858C22.0907 1.369 21.725 1.21755 21.3438 1.21755H18.4688C18.0876 1.21755 17.7219 1.369 17.4523 1.63858C17.1827 1.90817 17.0313 2.27381 17.0313 2.65505V12.7175Z" stroke="#0F0E0E" stroke-linecap="round" stroke-linejoin="round"/>
<path d="M5.53131 9.84255C5.15007 9.84255 4.78442 9.99401 4.51485 10.2636C4.24527 10.5332 4.09381 10.8988 4.09381 11.28C4.09381 11.6613 4.24527 12.027 4.51485 12.2965C4.78442 12.5661 5.15007 12.7175 5.53131 12.7175H17.0313V9.84255H5.53131Z" stroke="#0F0E0E" stroke-linecap="round" stroke-linejoin="round"/>
<path d="M19.3792 15.4496C19.9508 15.2582 20.4476 14.8919 20.7997 14.4027C21.1517 13.9134 21.341 13.3259 21.3409 12.7232H5.53131C5.53104 14.1807 5.93367 15.6099 6.69471 16.8529C7.45575 18.096 8.54558 19.1044 9.84381 19.7669L9.12506 22.7819H18.4688V16.821C18.4605 16.5264 18.5436 16.2364 18.7066 15.9909C18.8695 15.7454 19.1045 15.5563 19.3792 15.4496Z" stroke="#0F0E0E" stroke-linecap="round" stroke-linejoin="round"/>
</g>
</g>
<defs>
<clipPath id="clip0_2018_1320">
<rect width="24" height="24" fill="white"/>
</clipPath>
<clipPath id="clip1_2018_1320">
<rect width="24" height="24" fill="white" transform="translate(6.10352e-05 -0.000259399)"/>
</clipPath>
</defs>
</svg>
