<svg preserveAspectRatio="none" width="100%" height="100%" overflow="visible" style="display: block;" viewBox="0 0 22 25" fill="none" xmlns="http://www.w3.org/2000/svg">
<path id="Vector" d="M16 23.641H5.77778C4.42223 23.641 3.1222 23.1025 2.16368 22.144C1.20516 21.1855 0.666667 19.8854 0.666667 18.5299C0.666667 16.1577 1.60902 13.8826 3.28643 12.2052C4.96384 10.5278 7.2389 9.58543 9.61111 9.58543H9.86667L5.26667 4.98543C5.03175 4.75051 4.8454 4.47161 4.71826 4.16468C4.59112 3.85774 4.52568 3.52876 4.52568 3.19654C4.52568 2.86431 4.59112 2.53534 4.71826 2.2284C4.8454 1.92146 5.03175 1.64257 5.26667 1.40765C5.50159 1.17273 5.78048 0.986379 6.08742 0.859241C6.39435 0.732104 6.72333 0.666667 7.05556 0.666667C7.38778 0.666667 7.71676 0.732104 8.0237 0.859241C8.33063 0.986379 8.60952 1.17273 8.84444 1.40765L13.1889 5.75209H13.4444C17.6611 5.75209 21.1111 9.20209 21.1111 13.4188V14.6965C21.1111 15.3743 20.8419 16.0243 20.3626 16.5036C19.8833 16.9828 19.2333 17.2521 18.5556 17.2521H17.2778C16.2611 17.2521 15.2861 17.656 14.5672 18.3749C13.8483 19.0937 13.4444 20.0688 13.4444 21.0854" stroke="var(--stroke-0, #0F0E0E)" stroke-width="1.33333" stroke-linecap="round" stroke-linejoin="round"/>
</svg>
