<svg preserveAspectRatio="none" width="100%" height="100%" overflow="visible" style="display: block;" viewBox="0 0 94 94" fill="none" xmlns="http://www.w3.org/2000/svg">
<g id="beach--island-waves-outdoor-recreation-tree-beach-palm-wave-water-travel-places">
<path id="Vector" d="M89.8036 89.5293H86.4866C82.968 89.5293 79.5933 88.1316 77.1049 85.6432C74.6165 83.1548 73.2188 79.7801 73.2188 76.2615C73.2188 79.7801 71.821 83.1548 69.3326 85.6432C66.8442 88.1316 63.4697 89.5293 59.9509 89.5293C56.4321 89.5293 53.0573 88.1316 50.5691 85.6432C48.0809 83.1548 46.683 79.7801 46.683 76.2615C46.683 79.7801 45.2852 83.1548 42.797 85.6432C40.3088 88.1316 36.934 89.5293 33.4152 89.5293C29.8963 89.5293 26.5216 88.1316 24.0334 85.6432C21.5452 83.1548 20.1473 79.7801 20.1473 76.2615C20.1473 79.7801 18.7495 83.1548 16.2612 85.6432C13.773 88.1316 10.3983 89.5293 6.87946 89.5293H3.5625" stroke="var(--stroke-0, #0F0E0E)" stroke-width="7.125" stroke-linecap="round" stroke-linejoin="round"/>
<path id="Vector_2" d="M66.5849 62.9932C63.1683 58.8393 58.8741 55.4938 54.0107 53.1968C49.1474 50.8999 43.8356 49.7087 38.4571 49.7087C33.0786 49.7087 27.7669 50.8999 22.9035 53.1968C18.0401 55.4938 13.7459 58.8393 10.3293 62.9932" stroke="var(--stroke-0, #0F0E0E)" stroke-width="7.125" stroke-linecap="round" stroke-linejoin="round"/>
<path id="Vector_3" d="M43.3666 50.0569C43.7646 35.0642 48.342 21.3984 58.2929 16.4892" stroke="var(--stroke-0, #0F0E0E)" stroke-width="7.125" stroke-linecap="round" stroke-linejoin="round"/>
<path id="Vector_4" d="M38.4573 3.88503C42.7576 3.03826 47.2189 3.87349 50.9217 6.21857C54.6245 8.56368 57.2865 12.2399 58.3591 16.4895" stroke="var(--stroke-0, #0F0E0E)" stroke-width="7.125" stroke-linecap="round" stroke-linejoin="round"/>
<path id="Vector_5" d="M82.5729 18.9443C79.5193 15.6473 75.3678 13.5787 70.8972 13.1267C66.4261 12.6747 61.9441 13.8706 58.2927 16.4897" stroke="var(--stroke-0, #0F0E0E)" stroke-width="7.125" stroke-linecap="round" stroke-linejoin="round"/>
<path id="Vector_6" d="M33.9458 23.5879C36.5453 19.7581 40.3984 16.9542 44.842 15.6587C49.2856 14.3631 54.0419 14.6569 58.2923 16.4896C62.5557 17.5323 66.2469 20.1911 68.5864 23.9047C70.9262 27.6182 71.7309 32.0957 70.8307 36.3914" stroke="var(--stroke-0, #0F0E0E)" stroke-width="7.125" stroke-linecap="round" stroke-linejoin="round"/>
</g>
</svg>
