<svg preserveAspectRatio="none" width="100%" height="100%" overflow="visible" style="display: block;" viewBox="0 0 25 21" fill="none" xmlns="http://www.w3.org/2000/svg">
<g id="Group">
<path id="Vector" d="M4.79528 19.6917C7.02459 19.6917 8.83181 17.8845 8.83181 15.6552C8.83181 13.4258 7.02459 11.6186 4.79528 11.6186C2.56596 11.6186 0.758747 13.4258 0.758747 15.6552C0.758747 17.8845 2.56596 19.6917 4.79528 19.6917Z" stroke="var(--stroke-0, #0F0E0E)" stroke-width="1.51749" stroke-miterlimit="10"/>
<path id="Vector_2" d="M19.4682 19.8841C21.6975 19.8841 23.5047 18.0768 23.5047 15.8475C23.5047 13.6182 21.6975 11.811 19.4682 11.811C17.2389 11.811 15.4317 13.6182 15.4317 15.8475C15.4317 18.0768 17.2389 19.8841 19.4682 19.8841Z" stroke="var(--stroke-0, #0F0E0E)" stroke-width="1.51749" stroke-miterlimit="10"/>
<path id="Vector_3" d="M18.8271 8.15874H15.4634L12.484 5.17939C12.484 5.17939 12.0996 5.01921 11.9394 5.17939L8.47953 8.63928C8.22324 8.89556 8.22324 9.28 8.47953 9.53628L11.587 12.6438C11.7792 12.836 11.9074 13.1243 11.9074 13.3806V17.289" stroke="var(--stroke-0, #0F0E0E)" stroke-width="1.51749" stroke-miterlimit="10" stroke-linecap="round"/>
<path id="Vector_4" d="M15.0786 3.8342C15.9279 3.8342 16.6163 3.14574 16.6163 2.29647C16.6163 1.44721 15.9279 0.758747 15.0786 0.758747C14.2293 0.758747 13.5409 1.44721 13.5409 2.29647C13.5409 3.14574 14.2293 3.8342 15.0786 3.8342Z" fill="var(--fill-0, #0F0E0E)" stroke="var(--stroke-0, #0F0E0E)" stroke-width="1.51749" stroke-miterlimit="10"/>
</g>
</svg>
