<svg preserveAspectRatio="none" width="100%" height="100%" overflow="visible" style="display: block;" viewBox="0 0 23 23" fill="none" xmlns="http://www.w3.org/2000/svg">
<g id="phone--android-phone-mobile-device-smartphone-iphone">
<path id="Vector" d="M8.41421 20.7117C7.43577 21.3428 6.26983 21.618 5.11242 21.4907C3.95503 21.3634 2.87675 20.8415 2.05893 20.0126L1.34396 19.3135C1.03051 18.9928 0.855 18.5623 0.855 18.114C0.855 17.6656 1.03051 17.235 1.34396 16.9145L4.3786 13.9115C4.69654 13.5991 5.12446 13.424 5.57023 13.424C6.01598 13.424 6.44392 13.5991 6.76183 13.9115C7.08244 14.225 7.51302 14.4005 7.9614 14.4005C8.40978 14.4005 8.84035 14.225 9.16095 13.9115L13.9274 9.14506C14.0864 8.98837 14.2127 8.80162 14.2989 8.5957C14.3851 8.38977 14.4295 8.16875 14.4295 7.94551C14.4295 7.72226 14.3851 7.50126 14.2989 7.29531C14.2127 7.08939 14.0864 6.90264 13.9274 6.74594C13.615 6.42803 13.4399 6.00009 13.4399 5.55434C13.4399 5.10857 13.615 4.68065 13.9274 4.36271L16.9462 1.34395C17.2668 1.0305 17.6973 0.855 18.1457 0.855C18.5942 0.855 19.0247 1.0305 19.3454 1.34395L20.0445 2.05893C20.8732 2.87675 21.3951 3.95503 21.5224 5.11242C21.6498 6.26983 21.3747 7.43577 20.7434 8.41421C17.4545 13.2613 13.2697 17.4352 8.41421 20.7117Z" stroke="var(--stroke-0, #0F0E0E)" stroke-width="1.71" stroke-linecap="round" stroke-linejoin="round"/>
</g>
</svg>
