<svg preserveAspectRatio="none" width="100%" height="100%" overflow="visible" style="display: block;" viewBox="0 0 17 19" fill="none" xmlns="http://www.w3.org/2000/svg">
<path id="Vector" d="M12 17.7307H4.33333C3.31667 17.7307 2.34165 17.3269 1.62276 16.608C0.903868 15.8891 0.5 14.9141 0.5 13.8974C0.5 12.1182 1.20677 10.412 2.46483 9.1539C3.72288 7.89584 5.42917 7.18907 7.20833 7.18907H7.4L3.95 3.73907C3.77381 3.56288 3.63405 3.35371 3.53869 3.12351C3.44334 2.8933 3.39426 2.64657 3.39426 2.3974C3.39426 2.14823 3.44334 1.9015 3.53869 1.6713C3.63405 1.44109 3.77381 1.23193 3.95 1.05574C4.12619 0.879546 4.33536 0.739785 4.56556 0.644431C4.79577 0.549078 5.0425 0.5 5.29167 0.5C5.54084 0.5 5.78757 0.549078 6.01777 0.644431C6.24798 0.739785 6.45714 0.879546 6.63333 1.05574L9.89167 4.31407H10.0833C13.2458 4.31407 15.8333 6.90157 15.8333 10.0641V11.0224C15.8333 11.5307 15.6314 12.0182 15.272 12.3777C14.9125 12.7371 14.425 12.9391 13.9167 12.9391H12.9583C12.1958 12.9391 11.4646 13.242 10.9254 13.7811C10.3862 14.3203 10.0833 15.0516 10.0833 15.8141" stroke="var(--stroke-0, #0F0E0E)" stroke-linecap="round" stroke-linejoin="round"/>
</svg>
