<svg preserveAspectRatio="none" width="100%" height="100%" overflow="visible" style="display: block;" viewBox="0 0 28 32" fill="none" xmlns="http://www.w3.org/2000/svg">
<g id="hotel-laundry--laundry-machine-hotel">
<path id="Vector" d="M24.0001 1.14286H3.42865C2.1663 1.14286 1.14294 2.16621 1.14294 3.42857V28.5714C1.14294 29.8338 2.1663 30.8571 3.42865 30.8571H24.0001C25.2625 30.8571 26.2858 29.8338 26.2858 28.5714V3.42857C26.2858 2.16621 25.2625 1.14286 24.0001 1.14286Z" stroke="var(--stroke-0, #0F0E0E)" stroke-width="2.28571" stroke-linecap="round" stroke-linejoin="round"/>
<path id="Vector_2" d="M20.4765 20.5715H18.5554C16.8748 20.5715 15.2173 20.1802 13.7142 19.4286C12.211 18.677 10.5536 18.2858 8.87298 18.2858H6.95186M20.5713 19.4286C20.5713 23.2158 17.5013 26.2858 13.7142 26.2858C9.92711 26.2858 6.85705 23.2158 6.85705 19.4286C6.85705 18.6271 6.99454 17.8578 7.24724 17.1429C8.18857 14.4796 10.7285 12.5715 13.7142 12.5715C17.5013 12.5715 20.5713 15.6415 20.5713 19.4286Z" stroke="var(--stroke-0, #0F0E0E)" stroke-width="2.28571" stroke-linecap="round" stroke-linejoin="round"/>
<path id="Vector_3" d="M1.14286 8.00001H26.2857" stroke="var(--stroke-0, #0F0E0E)" stroke-width="2.28571" stroke-linecap="round" stroke-linejoin="round"/>
</g>
</svg>
