<svg preserveAspectRatio="none" width="100%" height="100%" overflow="visible" style="display: block;" viewBox="0 0 84 59" fill="none" xmlns="http://www.w3.org/2000/svg">
<path id="Vector" d="M0 55.2083V31.7708C0 30.0348 0.347229 28.4027 1.04167 26.875C1.7361 25.3473 2.77777 24.0973 4.16667 23.125V11.0417C4.16667 7.91667 5.22569 5.29521 7.34375 3.17708C9.46181 1.05896 12.0833 0 15.2083 0H33.9583C35.486 0 36.9098 0.347292 38.2292 1.04167C39.5485 1.73604 40.6944 2.67354 41.6667 3.85417C42.639 2.67354 43.7673 1.73604 45.0521 1.04167C46.3369 0.347292 47.7431 0 49.2708 0H68.0208C71.1458 0 73.7848 1.05896 75.9375 3.17708C78.0902 5.29521 79.1667 7.91667 79.1667 11.0417V23.125C80.5556 24.0973 81.5973 25.3473 82.2917 26.875C82.986 28.4027 83.3333 30.0348 83.3333 31.7708V55.2083C83.3333 56.111 83.0381 56.8577 82.4479 57.4479C81.8577 58.0381 81.111 58.3333 80.2083 58.3333C79.3056 58.3333 78.559 58.0381 77.9688 57.4479C77.3785 56.8577 77.0833 56.111 77.0833 55.2083V50H6.25V55.2083C6.25 56.111 5.95485 56.8577 5.36458 57.4479C4.77431 58.0381 4.02777 58.3333 3.125 58.3333C2.22223 58.3333 1.47569 58.0381 0.885417 57.4479C0.295146 56.8577 0 56.111 0 55.2083ZM44.7917 21.3542H72.9167V11.0417C72.9167 9.65271 72.4479 8.50687 71.5104 7.60417C70.5729 6.70146 69.4098 6.25 68.0208 6.25H48.9583C47.7777 6.25 46.7881 6.73604 45.9896 7.70833C45.191 8.68062 44.7917 9.79167 44.7917 11.0417V21.3542ZM10.4167 21.3542H38.5417V11.0417C38.5417 9.79167 38.1423 8.68062 37.3438 7.70833C36.5452 6.73604 35.5556 6.25 34.375 6.25H15.2083C13.889 6.25 12.7604 6.71875 11.8229 7.65625C10.8854 8.59375 10.4167 9.72229 10.4167 11.0417V21.3542ZM6.25 43.75H77.0833V31.7708C77.0833 30.5902 76.684 29.6006 75.8854 28.8021C75.0869 28.0035 74.0973 27.6042 72.9167 27.6042H10.4167C9.2361 27.6042 8.24652 28.0035 7.44792 28.8021C6.64931 29.6006 6.25 30.5902 6.25 31.7708V43.75Z" fill="var(--fill-0, #0F0E0E)"/>
</svg>
