<svg preserveAspectRatio="none" width="100%" height="100%" overflow="visible" style="display: block;" viewBox="0 0 27 19" fill="none" xmlns="http://www.w3.org/2000/svg">
<path id="Vector" d="M0 17.6667V10.1667C0 9.61113 0.111113 9.08887 0.333333 8.6C0.555553 8.11113 0.888887 7.71113 1.33333 7.4V3.53333C1.33333 2.53333 1.67222 1.69447 2.35 1.01667C3.02778 0.338866 3.86667 0 4.86667 0H10.8667C11.3555 0 11.8111 0.111133 12.2333 0.333333C12.6555 0.555533 13.0222 0.855534 13.3333 1.23333C13.6445 0.855534 14.0055 0.555533 14.4167 0.333333C14.8278 0.111133 15.2778 0 15.7667 0H21.7667C22.7667 0 23.6111 0.338866 24.3 1.01667C24.9889 1.69447 25.3333 2.53333 25.3333 3.53333V7.4C25.7778 7.71113 26.1111 8.11113 26.3333 8.6C26.5555 9.08887 26.6667 9.61113 26.6667 10.1667V17.6667C26.6667 17.9555 26.5722 18.1945 26.3833 18.3833C26.1945 18.5722 25.9555 18.6667 25.6667 18.6667C25.3778 18.6667 25.1389 18.5722 24.95 18.3833C24.7611 18.1945 24.6667 17.9555 24.6667 17.6667V16H2V17.6667C2 17.9555 1.90555 18.1945 1.71667 18.3833C1.52778 18.5722 1.28889 18.6667 1 18.6667C0.711113 18.6667 0.47222 18.5722 0.283333 18.3833C0.0944468 18.1945 0 17.9555 0 17.6667ZM14.3333 6.83333H23.3333V3.53333C23.3333 3.08887 23.1833 2.7222 22.8833 2.43333C22.5833 2.14447 22.2111 2 21.7667 2H15.6667C15.2889 2 14.9722 2.15553 14.7167 2.46667C14.4611 2.7778 14.3333 3.13333 14.3333 3.53333V6.83333ZM3.33333 6.83333H12.3333V3.53333C12.3333 3.13333 12.2055 2.7778 11.95 2.46667C11.6945 2.15553 11.3778 2 11 2H4.86667C4.44447 2 4.08333 2.15 3.78333 2.45C3.48333 2.75 3.33333 3.11113 3.33333 3.53333V6.83333ZM2 14H24.6667V10.1667C24.6667 9.78887 24.5389 9.4722 24.2833 9.21667C24.0278 8.96113 23.7111 8.83333 23.3333 8.83333H3.33333C2.95555 8.83333 2.63889 8.96113 2.38333 9.21667C2.12778 9.4722 2 9.78887 2 10.1667V14Z" fill="var(--fill-0, #0F0E0E)"/>
</svg>
