<svg preserveAspectRatio="none" width="100%" height="100%" overflow="visible" style="display: block;" viewBox="0 0 88 79" fill="none" xmlns="http://www.w3.org/2000/svg">
<path id="Vector" d="M68.7467 65.4964C69.778 65.5816 70.8211 65.625 71.8743 65.625C76.2424 65.625 80.436 64.8782 84.3345 63.5052C84.3609 63.1736 84.3743 62.8384 84.3743 62.5C84.3743 55.5964 78.7779 50 71.8743 50C69.2593 50 66.8317 50.803 64.8249 52.176M68.7467 65.4964C68.7469 65.5393 68.7469 65.5821 68.7469 65.625C68.7469 66.5625 68.6953 67.4879 68.5948 68.3985C61.275 72.5986 52.7914 75 43.7469 75C34.7025 75 26.2189 72.5986 18.8991 68.3985C18.7985 67.4879 18.7469 66.5625 18.7469 65.625C18.7469 65.5823 18.7471 65.5396 18.7473 65.4969M68.7467 65.4964C68.722 60.5941 67.2863 56.0255 64.8249 52.176M64.8249 52.176C60.3837 45.2299 52.6031 40.625 43.7469 40.625C34.8919 40.625 27.1122 45.2288 22.6707 52.1734M22.6707 52.1734C20.6646 50.802 18.2384 50 15.625 50C8.72144 50 3.125 55.5964 3.125 62.5C3.125 62.8384 3.13845 63.1736 3.16483 63.5052C7.06331 64.8782 11.2569 65.625 15.625 65.625C16.6764 65.625 17.7177 65.5817 18.7473 65.4969M22.6707 52.1734C20.2082 56.0236 18.7719 60.5933 18.7473 65.4969M56.2469 15.625C56.2469 22.5286 50.6505 28.125 43.7469 28.125C36.8434 28.125 31.2469 22.5286 31.2469 15.625C31.2469 8.72144 36.8434 3.125 43.7469 3.125C50.6505 3.125 56.2469 8.72144 56.2469 15.625ZM81.2469 28.125C81.2469 33.3027 77.0496 37.5 71.8719 37.5C66.6943 37.5 62.4969 33.3027 62.4969 28.125C62.4969 22.9473 66.6943 18.75 71.8719 18.75C77.0496 18.75 81.2469 22.9473 81.2469 28.125ZM24.9969 28.125C24.9969 33.3027 20.7996 37.5 15.6219 37.5C10.4443 37.5 6.24695 33.3027 6.24695 28.125C6.24695 22.9473 10.4443 18.75 15.6219 18.75C20.7996 18.75 24.9969 22.9473 24.9969 28.125Z" stroke="var(--stroke-0, #0F0E0E)" stroke-width="6.25" stroke-linecap="round" stroke-linejoin="round"/>
</svg>
