<svg preserveAspectRatio="none" width="100%" height="100%" overflow="visible" style="display: block;" viewBox="0 0 33 28" fill="none" xmlns="http://www.w3.org/2000/svg">
<g id="Group">
<path id="Vector" d="M6.3937 26.2557C9.36612 26.2557 11.7757 23.8461 11.7757 20.8737C11.7757 17.9013 9.36612 15.4916 6.3937 15.4916C3.42128 15.4916 1.01166 17.9013 1.01166 20.8737C1.01166 23.8461 3.42128 26.2557 6.3937 26.2557Z" stroke="var(--stroke-0, #0F0E0E)" stroke-width="2.02332" stroke-miterlimit="10"/>
<path id="Vector_2" d="M25.9576 26.5121C28.9301 26.5121 31.3397 24.1025 31.3397 21.13C31.3397 18.1576 28.9301 15.748 25.9576 15.748C22.9852 15.748 20.5756 18.1576 20.5756 21.13C20.5756 24.1025 22.9852 26.5121 25.9576 26.5121Z" stroke="var(--stroke-0, #0F0E0E)" stroke-width="2.02332" stroke-miterlimit="10"/>
<path id="Vector_3" d="M25.1032 10.8784H20.6181L16.6457 6.9059C16.6457 6.9059 16.1331 6.69233 15.9195 6.9059L11.3063 11.5191C10.9646 11.8608 10.9646 12.3734 11.3063 12.7151L15.4497 16.8584C15.7059 17.1147 15.8768 17.4991 15.8768 17.8408V23.052" stroke="var(--stroke-0, #0F0E0E)" stroke-width="2.02332" stroke-miterlimit="10" stroke-linecap="round"/>
<path id="Vector_4" d="M20.1049 5.11227C21.2373 5.11227 22.1552 4.19432 22.1552 3.06196C22.1552 1.92961 21.2373 1.01166 20.1049 1.01166C18.9726 1.01166 18.0546 1.92961 18.0546 3.06196C18.0546 4.19432 18.9726 5.11227 20.1049 5.11227Z" fill="var(--fill-0, #0F0E0E)" stroke="var(--stroke-0, #0F0E0E)" stroke-width="2.02332" stroke-miterlimit="10"/>
</g>
</svg>
