<svg preserveAspectRatio="none" width="100%" height="100%" overflow="visible" style="display: block;" viewBox="0 0 30 30" fill="none" xmlns="http://www.w3.org/2000/svg">
<g id="beach--island-waves-outdoor-recreation-tree-beach-palm-wave-water-travel-places">
<path id="Vector" d="M28.7371 28.6493H27.6757C26.5498 28.6493 25.4699 28.202 24.6736 27.4057C23.8773 26.6095 23.43 25.5296 23.43 24.4036C23.43 25.5296 22.9827 26.6095 22.1864 27.4057C21.3901 28.202 20.3103 28.6493 19.1843 28.6493C18.0583 28.6493 16.9783 28.202 16.1821 27.4057C15.3859 26.6095 14.9386 25.5296 14.9386 24.4036C14.9386 25.5296 14.4913 26.6095 13.695 27.4057C12.8988 28.202 11.8189 28.6493 10.6929 28.6493C9.56683 28.6493 8.48691 28.202 7.69069 27.4057C6.89445 26.6095 6.44714 25.5296 6.44714 24.4036C6.44714 25.5296 5.99984 26.6095 5.20359 27.4057C4.40737 28.202 3.32746 28.6493 2.20143 28.6493H1.14" stroke="var(--stroke-0, #0F0E0E)" stroke-width="2.28" stroke-linecap="round" stroke-linejoin="round"/>
<path id="Vector_2" d="M21.3072 20.1578C20.2139 18.8285 18.8397 17.7579 17.2834 17.0229C15.7272 16.2879 14.0274 15.9067 12.3063 15.9067C10.5852 15.9067 8.8854 16.2879 7.32913 17.0229C5.77285 17.7579 4.3987 18.8285 3.30536 20.1578" stroke="var(--stroke-0, #0F0E0E)" stroke-width="2.28" stroke-linecap="round" stroke-linejoin="round"/>
<path id="Vector_3" d="M13.8773 16.0183C14.0047 11.2206 15.4694 6.84756 18.6537 5.27664" stroke="var(--stroke-0, #0F0E0E)" stroke-width="2.28" stroke-linecap="round" stroke-linejoin="round"/>
<path id="Vector_4" d="M12.3063 1.24321C13.6824 0.972242 15.1101 1.23952 16.295 1.98994C17.4798 2.74038 18.3317 3.91676 18.6749 5.27664" stroke="var(--stroke-0, #0F0E0E)" stroke-width="2.28" stroke-linecap="round" stroke-linejoin="round"/>
<path id="Vector_5" d="M26.4233 6.06216C25.4462 5.00714 24.1177 4.34517 22.6871 4.20054C21.2563 4.05591 19.8221 4.4386 18.6537 5.2767" stroke="var(--stroke-0, #0F0E0E)" stroke-width="2.28" stroke-linecap="round" stroke-linejoin="round"/>
<path id="Vector_6" d="M10.8627 7.54821C11.6945 6.32269 12.9275 5.42544 14.3494 5.01087C15.7714 4.59627 17.2934 4.69029 18.6535 5.27675C20.0178 5.6104 21.199 6.46125 21.9477 7.64958C22.6964 8.83791 22.9539 10.2707 22.6658 11.6453" stroke="var(--stroke-0, #0F0E0E)" stroke-width="2.28" stroke-linecap="round" stroke-linejoin="round"/>
</g>
</svg>
