<svg preserveAspectRatio="none" width="100%" height="100%" overflow="visible" style="display: block;" viewBox="0 0 28 25" fill="none" xmlns="http://www.w3.org/2000/svg">
<path id="Vector" d="M21.9989 20.9589C22.3289 20.9861 22.6627 21 22.9998 21C24.3976 21 25.7395 20.761 26.987 20.3217C26.9955 20.2156 26.9998 20.1083 26.9998 20C26.9998 17.7909 25.2089 16 22.9998 16C22.163 16 21.3862 16.257 20.744 16.6963M21.9989 20.9589C21.999 20.9726 21.999 20.9863 21.999 21C21.999 21.3 21.9825 21.5961 21.9503 21.8875C19.608 23.2315 16.8932 24 13.999 24C11.1048 24 8.39005 23.2315 6.0477 21.8875C6.01553 21.5961 5.99902 21.3 5.99902 21C5.99902 20.9863 5.99906 20.9727 5.99913 20.959M21.9989 20.9589C21.991 19.3901 21.5316 17.9282 20.744 16.6963M20.744 16.6963C19.3228 14.4736 16.833 13 13.999 13C11.1654 13 8.67589 14.4732 7.25461 16.6955M7.25461 16.6955C6.61266 16.2567 5.8363 16 5 16C2.79086 16 1 17.7909 1 20C1 20.1083 1.0043 20.2156 1.01275 20.3217C2.26026 20.761 3.60222 21 5 21C5.33646 21 5.66968 20.9862 5.99913 20.959M7.25461 16.6955C6.46663 17.9275 6.007 19.3899 5.99913 20.959M17.999 5C17.999 7.20914 16.2082 9 13.999 9C11.7899 9 9.99902 7.20914 9.99902 5C9.99902 2.79086 11.7899 1 13.999 1C16.2082 1 17.999 2.79086 17.999 5ZM25.999 9C25.999 10.6569 24.6559 12 22.999 12C21.3422 12 19.999 10.6569 19.999 9C19.999 7.34315 21.3422 6 22.999 6C24.6559 6 25.999 7.34315 25.999 9ZM7.99902 9C7.99902 10.6569 6.65588 12 4.99902 12C3.34217 12 1.99902 10.6569 1.99902 9C1.99902 7.34315 3.34217 6 4.99902 6C6.65588 6 7.99902 7.34315 7.99902 9Z" stroke="var(--stroke-0, #0F0E0E)" stroke-width="2" stroke-linecap="round" stroke-linejoin="round"/>
</svg>
