<svg preserveAspectRatio="none" width="100%" height="100%" overflow="visible" style="display: block;" viewBox="0 0 24 24" fill="none" xmlns="http://www.w3.org/2000/svg">
<g id="Style Two Pin Home Streamline Ultimate Regular - Free">
<path id="Vector" d="M15 8.75403V14.254H9V8.75403" stroke="var(--stroke-0, #0F0E0E)" stroke-width="1.5" stroke-linecap="round" stroke-linejoin="round"/>
<path id="Vector_2" d="M7.5 9.75403L12 6.75403L16.5 9.75403" stroke="var(--stroke-0, #0F0E0E)" stroke-width="1.5" stroke-linecap="round" stroke-linejoin="round"/>
<path id="Vector_3" d="M21 9.75403C21 17.654 14.068 22.085 12.371 23.054C12.2579 23.1187 12.1298 23.1527 11.9995 23.1527C11.8692 23.1527 11.7411 23.1187 11.628 23.054C9.931 22.084 3 17.652 3 9.75403C3 7.36708 3.94821 5.07789 5.63604 3.39007C7.32387 1.70224 9.61305 0.754028 12 0.754028C14.3869 0.754028 16.6761 1.70224 18.364 3.39007C20.0518 5.07789 21 7.36708 21 9.75403Z" stroke="var(--stroke-0, #0F0E0E)" stroke-width="1.5" stroke-linecap="round" stroke-linejoin="round"/>
</g>
</svg>
