<svg preserveAspectRatio="none" width="100%" height="100%" overflow="visible" style="display: block;" viewBox="0 0 69 76" fill="none" xmlns="http://www.w3.org/2000/svg">
<path id="Vector" d="M50 73.8781H18.0556C13.8195 73.8781 9.75686 72.1953 6.76149 69.1999C3.76612 66.2045 2.08333 62.1419 2.08333 57.9058C2.08333 50.4927 5.0282 43.3831 10.2701 38.1412C15.512 32.8993 22.6216 29.9545 30.0347 29.9545H30.8333L16.4583 15.5795C15.7242 14.8453 15.1419 13.9738 14.7446 13.0146C14.3473 12.0554 14.1428 11.0274 14.1428 9.98918C14.1428 8.95097 14.3473 7.92292 14.7446 6.96374C15.1419 6.00456 15.7242 5.13303 16.4583 4.3989C17.1925 3.66478 18.064 3.08244 19.0232 2.68513C19.9824 2.28782 21.0104 2.08333 22.0486 2.08333C23.0868 2.08333 24.1149 2.28782 25.0741 2.68513C26.0332 3.08244 26.9048 3.66478 27.6389 4.3989L41.2153 17.9753H42.0139C55.191 17.9753 65.9722 28.7565 65.9722 41.9336V45.9267C65.9722 48.0447 65.1308 50.076 63.6332 51.5737C62.1355 53.0714 60.1042 53.9128 57.9861 53.9128H53.9931C50.816 53.9128 47.769 55.1749 45.5225 57.4214C43.276 59.6679 42.0139 62.7149 42.0139 65.892" stroke="var(--stroke-0, #0F0E0E)" stroke-width="4.16667" stroke-linecap="round" stroke-linejoin="round"/>
</svg>
