<svg preserveAspectRatio="none" width="100%" height="100%" overflow="visible" style="display: block;" viewBox="0 0 32 32" fill="none" xmlns="http://www.w3.org/2000/svg">
<g id="Smart Toilet Streamline Ultimate Regular - Free">
<path id="Vector" d="M22.7083 16.957H28.4583C28.9666 16.957 29.4542 16.7551 29.8137 16.3957C30.1731 16.0362 30.375 15.5486 30.375 15.0403V3.54036C30.375 3.03204 30.1731 2.54452 29.8137 2.18507C29.4542 1.82563 28.9666 1.6237 28.4583 1.6237H24.625C24.1167 1.6237 23.6291 1.82563 23.2697 2.18507C22.9102 2.54452 22.7083 3.03204 22.7083 3.54036V16.957Z" stroke="var(--stroke-0, #0F0E0E)" stroke-width="1.33333" stroke-linecap="round" stroke-linejoin="round"/>
<path id="Vector_2" d="M7.375 13.1237C6.86667 13.1237 6.37915 13.3256 6.01971 13.6851C5.66027 14.0446 5.45833 14.532 5.45833 15.0403C5.45833 15.5486 5.66027 16.0362 6.01971 16.3957C6.37915 16.7551 6.86667 16.957 7.375 16.957H22.7083V13.1237H7.375Z" stroke="var(--stroke-0, #0F0E0E)" stroke-width="1.33333" stroke-linecap="round" stroke-linejoin="round"/>
<path id="Vector_3" d="M25.8389 20.5998C26.601 20.3445 27.2634 19.8561 27.7328 19.2038C28.2021 18.5515 28.4546 17.7681 28.4545 16.9645H7.375C7.37464 18.9079 7.91147 20.8134 8.9262 22.4708C9.94092 24.1283 11.394 25.4729 13.125 26.3562L12.1667 30.3761H24.625V22.4283C24.6139 22.0355 24.7247 21.6489 24.942 21.3215C25.1592 20.9941 25.4726 20.742 25.8389 20.5998Z" stroke="var(--stroke-0, #0F0E0E)" stroke-width="1.33333" stroke-linecap="round" stroke-linejoin="round"/>
</g>
</svg>
