<svg preserveAspectRatio="none" width="100%" height="100%" overflow="visible" style="display: block;" viewBox="0 0 24 24" fill="none" xmlns="http://www.w3.org/2000/svg">
<g id="Smart Toilet Streamline Ultimate Regular - Free">
<path id="Vector" d="M17.0312 12.7178H21.3438C21.725 12.7178 22.0907 12.5664 22.3603 12.2968C22.6298 12.0272 22.7812 11.6615 22.7812 11.2803V2.65531C22.7812 2.27407 22.6298 1.90843 22.3603 1.63884C22.0907 1.36926 21.725 1.21781 21.3438 1.21781H18.4688C18.0875 1.21781 17.7218 1.36926 17.4522 1.63884C17.1827 1.90843 17.0312 2.27407 17.0312 2.65531V12.7178Z" stroke="var(--stroke-0, #0F0E0E)" stroke-linecap="round" stroke-linejoin="round"/>
<path id="Vector_2" d="M5.53125 9.84281C5.15001 9.84281 4.78436 9.99427 4.51478 10.2639C4.24521 10.5335 4.09375 10.8991 4.09375 11.2803C4.09375 11.6615 4.24521 12.0272 4.51478 12.2968C4.78436 12.5664 5.15001 12.7178 5.53125 12.7178H17.0312V9.84281H5.53125Z" stroke="var(--stroke-0, #0F0E0E)" stroke-linecap="round" stroke-linejoin="round"/>
<path id="Vector_3" d="M19.3792 15.4499C19.9507 15.2584 20.4475 14.8922 20.7996 14.4029C21.1516 13.9137 21.341 13.3261 21.3409 12.7234H5.53125C5.53098 14.181 5.93361 15.6101 6.69465 16.8532C7.45569 18.0962 8.54551 19.1047 9.84375 19.7672L9.125 22.7821H18.4688V16.8213C18.4604 16.5267 18.5435 16.2367 18.7065 15.9912C18.8694 15.7456 19.1044 15.5566 19.3792 15.4499Z" stroke="var(--stroke-0, #0F0E0E)" stroke-linecap="round" stroke-linejoin="round"/>
</g>
</svg>
