<svg preserveAspectRatio="none" width="100%" height="100%" overflow="visible" style="display: block;" viewBox="0 0 55 64" fill="none" xmlns="http://www.w3.org/2000/svg">
<g id="hotel-laundry--laundry-machine-hotel">
<path id="Vector" d="M48 2.28571H6.85714C4.33243 2.28571 2.28571 4.33241 2.28571 6.85714V57.1429C2.28571 59.6677 4.33243 61.7143 6.85714 61.7143H48C50.5248 61.7143 52.5714 59.6677 52.5714 57.1429V6.85714C52.5714 4.33241 50.5248 2.28571 48 2.28571Z" stroke="var(--stroke-0, #0F0E0E)" stroke-width="4.57143" stroke-linecap="round" stroke-linejoin="round"/>
<path id="Vector_2" d="M40.9531 41.1428H37.1109C33.7497 41.1428 30.4348 40.3602 27.4285 38.8571C24.4222 37.354 21.1072 36.5714 17.746 36.5714H13.9038M41.1428 38.8571C41.1428 46.4315 35.0026 52.5714 27.4285 52.5714C19.8543 52.5714 13.7142 46.4315 13.7142 38.8571C13.7142 37.2542 13.9892 35.7155 14.4946 34.2857C16.3772 28.9591 21.4572 25.1428 27.4285 25.1428C35.0026 25.1428 41.1428 31.2829 41.1428 38.8571Z" stroke="var(--stroke-0, #0F0E0E)" stroke-width="4.57143" stroke-linecap="round" stroke-linejoin="round"/>
<path id="Vector_3" d="M2.2858 16.0002H52.5715" stroke="var(--stroke-0, #0F0E0E)" stroke-width="4.57143" stroke-linecap="round" stroke-linejoin="round"/>
</g>
</svg>
