<svg preserveAspectRatio="none" width="100%" height="100%" overflow="visible" style="display: block;" viewBox="0 0 21 24" fill="none" xmlns="http://www.w3.org/2000/svg">
<g id="hotel-laundry--laundry-machine-hotel">
<path id="Vector" d="M18.0001 0.857143H2.57153C1.62477 0.857143 0.857247 1.62465 0.857247 2.57143V21.4286C0.857247 22.3754 1.62477 23.1429 2.57153 23.1429H18.0001C18.9469 23.1429 19.7144 22.3754 19.7144 21.4286V2.57143C19.7144 1.62465 18.9469 0.857143 18.0001 0.857143Z" stroke="var(--stroke-0, #0F0E0E)" stroke-width="1.71429" stroke-linecap="round" stroke-linejoin="round"/>
<path id="Vector_2" d="M15.3575 15.4286H13.9166C12.6562 15.4286 11.4131 15.1351 10.2857 14.5715C9.15835 14.0078 7.91523 13.7143 6.65481 13.7143H5.21397M15.4286 14.5715C15.4286 17.4119 13.126 19.7143 10.2857 19.7143C7.4454 19.7143 5.14286 17.4119 5.14286 14.5715C5.14286 13.9704 5.24597 13.3934 5.4355 12.8572C6.1415 10.8597 8.04648 9.4286 10.2857 9.4286C13.126 9.4286 15.4286 11.7311 15.4286 14.5715Z" stroke="var(--stroke-0, #0F0E0E)" stroke-width="1.71429" stroke-linecap="round" stroke-linejoin="round"/>
<path id="Vector_3" d="M0.857143 6.00003H19.7143" stroke="var(--stroke-0, #0F0E0E)" stroke-width="1.71429" stroke-linecap="round" stroke-linejoin="round"/>
</g>
</svg>
