<svg preserveAspectRatio="none" width="100%" height="100%" overflow="visible" style="display: block;" viewBox="0 0 86 100" fill="none" xmlns="http://www.w3.org/2000/svg">
<g id="hotel-laundry--laundry-machine-hotel">
<path id="Vector" d="M75 3.57143H10.7143C6.76943 3.57143 3.57143 6.76939 3.57143 10.7143V89.2857C3.57143 93.2307 6.76943 96.4286 10.7143 96.4286H75C78.945 96.4286 82.1429 93.2307 82.1429 89.2857V10.7143C82.1429 6.76939 78.945 3.57143 75 3.57143Z" stroke="var(--stroke-0, #0F0E0E)" stroke-width="7.14286" stroke-linecap="round" stroke-linejoin="round"/>
<path id="Vector_2" d="M63.9892 64.2857H57.9857C52.7339 64.2857 47.5543 63.0629 42.8569 60.7143C38.1596 58.3656 32.9799 57.1428 27.7281 57.1428H21.7246M64.2855 60.7143C64.2855 72.5493 54.6916 82.1428 42.8569 82.1428C31.0223 82.1428 21.4284 72.5493 21.4284 60.7143C21.4284 58.2097 21.858 55.8056 22.6477 53.5714C25.5894 45.2486 33.5268 39.2857 42.8569 39.2857C54.6916 39.2857 64.2855 48.8796 64.2855 60.7143Z" stroke="var(--stroke-0, #0F0E0E)" stroke-width="7.14286" stroke-linecap="round" stroke-linejoin="round"/>
<path id="Vector_3" d="M3.57151 25.0004H82.1429" stroke="var(--stroke-0, #0F0E0E)" stroke-width="7.14286" stroke-linecap="round" stroke-linejoin="round"/>
</g>
</svg>
