<svg preserveAspectRatio="none" width="100%" height="100%" overflow="visible" style="display: block;" viewBox="0 0 65 56" fill="none" xmlns="http://www.w3.org/2000/svg">
<g id="Group">
<path id="Vector" d="M12.7874 52.5115C18.7322 52.5115 23.5515 47.6922 23.5515 41.7474C23.5515 35.8025 18.7322 30.9833 12.7874 30.9833C6.84257 30.9833 2.02332 35.8025 2.02332 41.7474C2.02332 47.6922 6.84257 52.5115 12.7874 52.5115Z" stroke="var(--stroke-0, #0F0E0E)" stroke-width="4.04665" stroke-miterlimit="10"/>
<path id="Vector_2" d="M51.9149 53.0241C57.8598 53.0241 62.679 48.2049 62.679 42.2601C62.679 36.3152 57.8598 31.496 51.9149 31.496C45.9701 31.496 41.1508 36.3152 41.1508 42.2601C41.1508 48.2049 45.9701 53.0241 51.9149 53.0241Z" stroke="var(--stroke-0, #0F0E0E)" stroke-width="4.04665" stroke-miterlimit="10"/>
<path id="Vector_3" d="M50.206 21.7567H41.2359L33.291 13.8118C33.291 13.8118 32.2659 13.3847 31.8387 13.8118L22.6123 23.0382C21.9289 23.7216 21.9289 24.7467 22.6123 25.4302L30.899 33.7168C31.4116 34.2294 31.7533 34.9983 31.7533 35.6817V46.1041" stroke="var(--stroke-0, #0F0E0E)" stroke-width="4.04665" stroke-miterlimit="10" stroke-linecap="round"/>
<path id="Vector_4" d="M40.2098 10.2245C42.4745 10.2245 44.3104 8.38863 44.3104 6.12393C44.3104 3.85923 42.4745 2.02332 40.2098 2.02332C37.9451 2.02332 36.1092 3.85923 36.1092 6.12393C36.1092 8.38863 37.9451 10.2245 40.2098 10.2245Z" fill="var(--fill-0, #0F0E0E)" stroke="var(--stroke-0, #0F0E0E)" stroke-width="4.04665" stroke-miterlimit="10"/>
</g>
</svg>
