<svg preserveAspectRatio="none" width="100%" height="100%" overflow="visible" style="display: block;" viewBox="0 0 56 50" fill="none" xmlns="http://www.w3.org/2000/svg">
<path id="Vector" d="M43.9979 41.9177C44.6579 41.9722 45.3255 42 45.9996 42C48.7951 42 51.4791 41.522 53.9741 40.6433C53.991 40.4311 53.9996 40.2166 53.9996 40C53.9996 35.5817 50.4179 32 45.9996 32C44.3259 32 42.7723 32.5139 41.4879 33.3926M43.9979 41.9177C43.998 41.9451 43.998 41.9726 43.998 42C43.998 42.6 43.965 43.1922 43.9007 43.7751C39.216 46.4631 33.7865 48 27.998 48C22.2096 48 16.7801 46.4631 12.0954 43.7751C12.0311 43.1922 11.998 42.6 11.998 42C11.998 41.9726 11.9981 41.9453 11.9983 41.918M43.9979 41.9177C43.9821 38.7802 43.0632 35.8563 41.4879 33.3926M41.4879 33.3926C38.6455 28.9472 33.666 26 27.998 26C22.3308 26 17.3518 28.9464 14.5092 33.391M14.5092 33.391C13.2253 32.5133 11.6726 32 10 32C5.58172 32 2 35.5817 2 40C2 40.2166 2.00861 40.4311 2.02549 40.6433C4.52052 41.522 7.20444 42 10 42C10.6729 42 11.3394 41.9723 11.9983 41.918M14.5092 33.391C12.9333 35.8551 12.014 38.7797 11.9983 41.918M35.998 10C35.998 14.4183 32.4163 18 27.998 18C23.5798 18 19.998 14.4183 19.998 10C19.998 5.58172 23.5798 2 27.998 2C32.4163 2 35.998 5.58172 35.998 10ZM51.998 18C51.998 21.3137 49.3118 24 45.998 24C42.6843 24 39.998 21.3137 39.998 18C39.998 14.6863 42.6843 12 45.998 12C49.3118 12 51.998 14.6863 51.998 18ZM15.998 18C15.998 21.3137 13.3118 24 9.99805 24C6.68434 24 3.99805 21.3137 3.99805 18C3.99805 14.6863 6.68434 12 9.99805 12C13.3118 12 15.998 14.6863 15.998 18Z" stroke="var(--stroke-0, #0F0E0E)" stroke-width="4" stroke-linecap="round" stroke-linejoin="round"/>
</svg>
