<svg preserveAspectRatio="none" width="100%" height="100%" overflow="visible" style="display: block;" viewBox="0 0 64 64" fill="none" xmlns="http://www.w3.org/2000/svg">
<g id="Style Two Pin Home Streamline Ultimate Regular - Free">
<path id="Vector" d="M40 23.3441V38.0107H24V23.3441" stroke="var(--stroke-0, #0F0E0E)" stroke-width="4" stroke-linecap="round" stroke-linejoin="round"/>
<path id="Vector_2" d="M20 26.0107L32 18.0107L44 26.0107" stroke="var(--stroke-0, #0F0E0E)" stroke-width="4" stroke-linecap="round" stroke-linejoin="round"/>
<path id="Vector_3" d="M56 26.0107C56 47.0773 37.5147 58.8933 32.9893 61.4773C32.6877 61.6499 32.3461 61.7405 31.9987 61.7405C31.6512 61.7405 31.3096 61.6499 31.008 61.4773C26.4827 58.8907 8 47.072 8 26.0107C8 19.6455 10.5286 13.541 15.0294 9.04019C19.5303 4.53931 25.6348 2.01074 32 2.01074C38.3651 2.01074 44.4696 4.53931 48.9707 9.04019C53.4715 13.541 56 19.6455 56 26.0107Z" stroke="var(--stroke-0, #0F0E0E)" stroke-width="4" stroke-linecap="round" stroke-linejoin="round"/>
</g>
</svg>
