<svg preserveAspectRatio="none" width="100%" height="100%" overflow="visible" style="display: block;" viewBox="0 0 60 60" fill="none" xmlns="http://www.w3.org/2000/svg">
<g id="phone--android-phone-mobile-device-smartphone-iphone">
<path id="Vector" d="M22.4379 55.2312C19.8287 56.9142 16.7195 57.6479 13.6331 57.3087C10.5467 56.969 7.67134 55.5773 5.49048 53.3669L3.58388 51.5026C2.74801 50.6476 2.28 49.4995 2.28 48.3039C2.28 47.1083 2.74801 45.9599 3.58388 45.1052L11.6763 37.0974C12.5241 36.2642 13.6652 35.7974 14.8539 35.7974C16.0426 35.7974 17.1838 36.2642 18.0316 37.0974C18.8865 37.9333 20.0347 38.4013 21.2304 38.4013C22.4261 38.4013 23.5743 37.9333 24.4292 37.0974L37.1398 24.3868C37.5638 23.969 37.9005 23.471 38.1303 22.9219C38.3602 22.3727 38.4785 21.7833 38.4785 21.188C38.4785 20.5927 38.3602 20.0034 38.1303 19.4542C37.9005 18.905 37.5638 18.407 37.1398 17.9892C36.3066 17.1414 35.8397 16.0002 35.8397 14.8116C35.8397 13.6229 36.3066 12.4817 37.1398 11.6339L45.1897 3.58388C46.0448 2.74801 47.1929 2.28 48.3885 2.28C49.5845 2.28 50.7325 2.74801 51.5876 3.58388L53.4519 5.49048C55.6618 7.67134 57.0535 10.5467 57.3932 13.6331C57.7328 16.7195 56.9992 19.8287 55.3158 22.4379C46.5454 35.3634 35.386 46.494 22.4379 55.2312Z" stroke="var(--stroke-0, #0F0E0E)" stroke-width="4.56" stroke-linecap="round" stroke-linejoin="round"/>
</g>
</svg>
