<svg preserveAspectRatio="none" width="100%" height="100%" overflow="visible" style="display: block;" viewBox="0 0 54 38" fill="none" xmlns="http://www.w3.org/2000/svg">
<path id="Vector" d="M0 35.3333V20.3333C0 19.2223 0.222227 18.1777 0.666667 17.2C1.11111 16.2223 1.77777 15.4223 2.66667 14.8V7.06667C2.66667 5.06667 3.34444 3.38893 4.7 2.03333C6.05556 0.677733 7.73333 0 9.73333 0H21.7333C22.7111 0 23.6223 0.222267 24.4667 0.666667C25.3111 1.11107 26.0444 1.71107 26.6667 2.46667C27.2889 1.71107 28.0111 1.11107 28.8333 0.666667C29.6556 0.222267 30.5556 0 31.5333 0H43.5333C45.5333 0 47.2223 0.677733 48.6 2.03333C49.9777 3.38893 50.6667 5.06667 50.6667 7.06667V14.8C51.5556 15.4223 52.2223 16.2223 52.6667 17.2C53.1111 18.1777 53.3333 19.2223 53.3333 20.3333V35.3333C53.3333 35.9111 53.1444 36.3889 52.7667 36.7667C52.3889 37.1444 51.9111 37.3333 51.3333 37.3333C50.7556 37.3333 50.2777 37.1444 49.9 36.7667C49.5223 36.3889 49.3333 35.9111 49.3333 35.3333V32H4V35.3333C4 35.9111 3.81111 36.3889 3.43333 36.7667C3.05556 37.1444 2.57777 37.3333 2 37.3333C1.42223 37.3333 0.94444 37.1444 0.566667 36.7667C0.188894 36.3889 0 35.9111 0 35.3333ZM28.6667 13.6667H46.6667V7.06667C46.6667 6.17773 46.3667 5.4444 45.7667 4.86667C45.1667 4.28893 44.4223 4 43.5333 4H31.3333C30.5777 4 29.9444 4.31107 29.4333 4.93333C28.9223 5.5556 28.6667 6.26667 28.6667 7.06667V13.6667ZM6.66667 13.6667H24.6667V7.06667C24.6667 6.26667 24.4111 5.5556 23.9 4.93333C23.3889 4.31107 22.7556 4 22 4H9.73333C8.88893 4 8.16667 4.3 7.56667 4.9C6.96667 5.5 6.66667 6.22227 6.66667 7.06667V13.6667ZM4 28H49.3333V20.3333C49.3333 19.5777 49.0777 18.9444 48.5667 18.4333C48.0556 17.9223 47.4223 17.6667 46.6667 17.6667H6.66667C5.91111 17.6667 5.27777 17.9223 4.76667 18.4333C4.25556 18.9444 4 19.5777 4 20.3333V28Z" fill="var(--fill-0, #0F0E0E)"/>
</svg>
