<svg preserveAspectRatio="none" width="100%" height="100%" overflow="visible" style="display: block;" viewBox="0 0 94 94" fill="none" xmlns="http://www.w3.org/2000/svg">
<g id="phone--android-phone-mobile-device-smartphone-iphone">
<path id="Vector" d="M35.0592 86.2988C30.9824 88.9285 26.1243 90.0748 21.3018 89.5448C16.4793 89.0141 11.9865 86.8395 8.57888 83.3858L5.59981 80.4729C4.29377 79.1368 3.5625 77.343 3.5625 75.4749C3.5625 73.6068 4.29377 71.8123 5.59981 70.4769L18.2442 57.9647C19.5689 56.6628 21.3519 55.9334 23.2093 55.9334C25.0666 55.9334 26.8496 56.6628 28.1743 57.9647C29.5102 59.2708 31.3043 60.002 33.1725 60.002C35.0408 60.002 36.8348 59.2708 38.1706 57.9647L58.0309 38.1044C58.6934 37.4515 59.2196 36.6734 59.5787 35.8154C59.9378 34.9574 60.1227 34.0364 60.1227 33.1063C60.1227 32.1761 59.9378 31.2552 59.5787 30.3971C59.2196 29.5391 58.6934 28.761 58.0309 28.1081C56.7291 26.7834 55.9996 25.0004 55.9996 23.1431C55.9996 21.2857 56.7291 19.5027 58.0309 18.178L70.609 5.59981C71.945 4.29376 73.7389 3.5625 75.607 3.5625C77.4757 3.5625 79.2696 4.29376 80.6056 5.59981L83.5186 8.57888C86.9716 11.9865 89.1462 16.4793 89.6769 21.3018C90.2076 26.1243 89.0612 30.9824 86.4309 35.0592C72.7272 55.2553 55.2906 72.6468 35.0592 86.2988Z" stroke="var(--stroke-0, #0F0E0E)" stroke-width="7.125" stroke-linecap="round" stroke-linejoin="round"/>
</g>
</svg>
