<svg preserveAspectRatio="none" width="100%" height="100%" overflow="visible" style="display: block;" viewBox="0 0 102 87" fill="none" xmlns="http://www.w3.org/2000/svg">
<g id="Group">
<path id="Vector" d="M19.9803 82.0491C29.2691 82.0491 36.7992 74.5191 36.7992 65.2303C36.7992 55.9415 29.2691 48.4114 19.9803 48.4114C10.6915 48.4114 3.16144 55.9415 3.16144 65.2303C3.16144 74.5191 10.6915 82.0491 19.9803 82.0491Z" stroke="var(--stroke-0, #0F0E0E)" stroke-width="6.32289" stroke-miterlimit="10"/>
<path id="Vector_2" d="M81.1171 82.8502C90.4059 82.8502 97.936 75.3202 97.936 66.0314C97.936 56.7425 90.4059 49.2125 81.1171 49.2125C71.8283 49.2125 64.2982 56.7425 64.2982 66.0314C64.2982 75.3202 71.8283 82.8502 81.1171 82.8502Z" stroke="var(--stroke-0, #0F0E0E)" stroke-width="6.32289" stroke-miterlimit="10"/>
<path id="Vector_3" d="M78.4469 33.9949H64.4311L52.0172 21.5809C52.0172 21.5809 50.4154 20.9135 49.748 21.5809L35.3318 35.9971C34.2639 37.065 34.2639 38.6668 35.3318 39.7347L48.2797 52.6825C49.0806 53.4834 49.6145 54.6848 49.6145 55.7526V72.0376" stroke="var(--stroke-0, #0F0E0E)" stroke-width="6.32289" stroke-miterlimit="10" stroke-linecap="round"/>
<path id="Vector_4" d="M62.8278 15.9758C66.3664 15.9758 69.235 13.1072 69.235 9.56864C69.235 6.03004 66.3664 3.16144 62.8278 3.16144C59.2892 3.16144 56.4206 6.03004 56.4206 9.56864C56.4206 13.1072 59.2892 15.9758 62.8278 15.9758Z" fill="var(--fill-0, #0F0E0E)" stroke="var(--stroke-0, #0F0E0E)" stroke-width="6.32289" stroke-miterlimit="10"/>
</g>
</svg>
