<svg preserveAspectRatio="none" width="100%" height="100%" overflow="visible" style="display: block;" viewBox="0 0 44 49" fill="none" xmlns="http://www.w3.org/2000/svg">
<path id="Vector" d="M32 47.282H11.5556C8.84445 47.282 6.24439 46.205 4.32735 44.2879C2.41031 42.3709 1.33333 39.7708 1.33333 37.0597C1.33333 32.3153 3.21805 27.7652 6.57287 24.4104C9.92768 21.0556 14.4778 19.1709 19.2222 19.1709H19.7333L10.5333 9.97085C10.0635 9.50101 9.69079 8.94323 9.43652 8.32935C9.18224 7.71548 9.05137 7.05753 9.05137 6.39307C9.05137 5.72862 9.18224 5.07067 9.43652 4.4568C9.69079 3.84292 10.0635 3.28514 10.5333 2.8153C11.0032 2.34546 11.561 1.97276 12.1748 1.71848C12.7887 1.46421 13.4467 1.33333 14.1111 1.33333C14.7756 1.33333 15.4335 1.46421 16.0474 1.71848C16.6613 1.97276 17.219 2.34546 17.6889 2.8153L26.3778 11.5042H26.8889C35.3222 11.5042 42.2222 18.4042 42.2222 26.8375V29.3931C42.2222 30.7486 41.6837 32.0487 40.7252 33.0072C39.7667 33.9657 38.4667 34.5042 37.1111 34.5042H34.5556C32.5222 34.5042 30.5722 35.3119 29.1344 36.7497C27.6966 38.1875 26.8889 40.1375 26.8889 42.1709" stroke="var(--stroke-0, #0F0E0E)" stroke-width="2.66667" stroke-linecap="round" stroke-linejoin="round"/>
</svg>
