<svg preserveAspectRatio="none" width="100%" height="100%" overflow="visible" style="display: block;" viewBox="0 0 20 14" fill="none" xmlns="http://www.w3.org/2000/svg">
<path id="Vector" d="M0 13.25V7.625C0 7.20835 0.083335 6.81665 0.25 6.45C0.416665 6.08335 0.666665 5.78335 1 5.55V2.65C1 1.9 1.25417 1.27085 1.7625 0.7625C2.27084 0.25415 2.9 0 3.65 0H8.15C8.51665 0 8.85835 0.08335 9.175 0.25C9.49165 0.41665 9.76665 0.64165 10 0.925C10.2333 0.64165 10.5042 0.41665 10.8125 0.25C11.1208 0.08335 11.4583 0 11.825 0H16.325C17.075 0 17.7084 0.25415 18.225 0.7625C18.7417 1.27085 19 1.9 19 2.65V5.55C19.3334 5.78335 19.5834 6.08335 19.75 6.45C19.9166 6.81665 20 7.20835 20 7.625V13.25C20 13.4666 19.9292 13.6459 19.7875 13.7875C19.6459 13.9292 19.4666 14 19.25 14C19.0334 14 18.8541 13.9292 18.7125 13.7875C18.5708 13.6459 18.5 13.4666 18.5 13.25V12H1.5V13.25C1.5 13.4666 1.42916 13.6459 1.2875 13.7875C1.14583 13.9292 0.966665 14 0.75 14C0.533335 14 0.354165 13.9292 0.2125 13.7875C0.0708351 13.6459 0 13.4666 0 13.25ZM10.75 5.125H17.5V2.65C17.5 2.31665 17.3875 2.04165 17.1625 1.825C16.9375 1.60835 16.6584 1.5 16.325 1.5H11.75C11.4667 1.5 11.2292 1.61665 11.0375 1.85C10.8459 2.08335 10.75 2.35 10.75 2.65V5.125ZM2.5 5.125H9.25V2.65C9.25 2.35 9.15415 2.08335 8.9625 1.85C8.77085 1.61665 8.53335 1.5 8.25 1.5H3.65C3.33335 1.5 3.0625 1.6125 2.8375 1.8375C2.6125 2.0625 2.5 2.33335 2.5 2.65V5.125ZM1.5 10.5H18.5V7.625C18.5 7.34165 18.4041 7.10415 18.2125 6.9125C18.0208 6.72085 17.7833 6.625 17.5 6.625H2.5C2.21666 6.625 1.97916 6.72085 1.7875 6.9125C1.59583 7.10415 1.5 7.34165 1.5 7.625V10.5Z" fill="var(--fill-0, #0F0E0E)"/>
</svg>
