<svg preserveAspectRatio="none" width="100%" height="100%" overflow="visible" style="display: block;" viewBox="0 0 60 60" fill="none" xmlns="http://www.w3.org/2000/svg">
<g id="information-circle--information-frame-info-more-help-point-circle">
<path id="Vector" d="M29.8771 57.4743C45.1188 57.4743 57.4743 45.1188 57.4743 29.8771C57.4743 14.6357 45.1188 2.28 29.8771 2.28C14.6357 2.28 2.28 14.6357 2.28 29.8771C2.28 45.1188 14.6357 57.4743 29.8771 57.4743Z" stroke="var(--stroke-0, #0F0E0E)" stroke-width="4.56" stroke-linecap="round" stroke-linejoin="round"/>
<path id="Vector_2" d="M23.5084 42.6144H36.2456" stroke="var(--stroke-0, #0F0E0E)" stroke-width="4.56" stroke-linecap="round" stroke-linejoin="round"/>
<path id="Vector_3" d="M29.8772 42.6143V27.7543H25.6315" stroke="var(--stroke-0, #0F0E0E)" stroke-width="4.56" stroke-linecap="round" stroke-linejoin="round"/>
<g id="Group 2605">
<path id="Ellipse 1111" d="M29.8772 18.2014C29.291 18.2014 28.8157 17.7262 28.8157 17.14C28.8157 16.5538 29.291 16.0785 29.8772 16.0785" stroke="var(--stroke-0, #0F0E0E)" stroke-width="4.56" stroke-linecap="round" stroke-linejoin="round"/>
<path id="Ellipse 1112" d="M29.877 18.2014C30.4632 18.2014 30.9384 17.7261 30.9384 17.1399C30.9384 16.5537 30.4632 16.0785 29.877 16.0785" stroke="var(--stroke-0, #0F0E0E)" stroke-width="4.56" stroke-linecap="round" stroke-linejoin="round"/>
</g>
</g>
</svg>
