<svg preserveAspectRatio="none" width="100%" height="100%" overflow="visible" style="display: block;" viewBox="0 0 32 32" fill="none" xmlns="http://www.w3.org/2000/svg">
<g id="Style Two Pin Home Streamline Ultimate Regular - Free">
<path id="Vector" d="M20 11.672V19.0053H12V11.672" stroke="var(--stroke-0, #0F0E0E)" stroke-width="2" stroke-linecap="round" stroke-linejoin="round"/>
<path id="Vector_2" d="M10 13.0054L16 9.00537L22 13.0054" stroke="var(--stroke-0, #0F0E0E)" stroke-width="2" stroke-linecap="round" stroke-linejoin="round"/>
<path id="Vector_3" d="M28 13.0054C28 23.5387 18.7573 29.4467 16.4947 30.7387C16.3439 30.8249 16.1731 30.8703 15.9993 30.8703C15.8256 30.8703 15.6548 30.8249 15.504 30.7387C13.2413 29.4453 4 23.536 4 13.0054C4 9.82277 5.26428 6.77052 7.51472 4.52009C9.76516 2.26965 12.8174 1.00537 16 1.00537C19.1825 1.00537 22.2348 2.26965 24.4853 4.52009C26.7357 6.77052 28 9.82277 28 13.0054Z" stroke="var(--stroke-0, #0F0E0E)" stroke-width="2" stroke-linecap="round" stroke-linejoin="round"/>
</g>
</svg>
