<svg preserveAspectRatio="none" width="100%" height="100%" overflow="visible" style="display: block;" viewBox="0 0 64 64" fill="none" xmlns="http://www.w3.org/2000/svg">
<g id="Barbecue Grill Streamline Ultimate Regular - Free">
<path id="Vector" d="M47.0133 23.9999C47.4599 24.0002 47.901 24.0987 48.305 24.2887C48.7093 24.4786 49.0666 24.7552 49.3517 25.0989C49.6367 25.4426 49.8426 25.8448 49.9549 26.2771C50.0669 26.7094 50.0823 27.1611 49.9999 27.6C49.0783 31.6782 46.797 35.3216 43.5309 37.932C40.2645 40.5424 36.2077 41.9643 32.0266 41.9643C27.8455 41.9643 23.7887 40.5424 20.5225 37.932C17.2564 35.3216 14.975 31.6782 14.0533 27.6C13.9655 27.1582 13.9779 26.7024 14.0895 26.2661C14.2011 25.8297 14.4091 25.424 14.6982 25.0786C14.9873 24.7332 15.3501 24.4571 15.7599 24.2704C16.1698 24.0837 16.6163 23.9913 17.0666 23.9999H47.0133Z" stroke="var(--stroke-0, #0F0E0E)" stroke-width="4" stroke-linecap="round" stroke-linejoin="round"/>
<path id="Vector_2" d="M52 61.9999L43.28 38.2133" stroke="var(--stroke-0, #0F0E0E)" stroke-width="4" stroke-linecap="round" stroke-linejoin="round"/>
<path id="Vector_3" d="M12.0001 61.9999L20.7201 38.2133" stroke="var(--stroke-0, #0F0E0E)" stroke-width="4" stroke-linecap="round" stroke-linejoin="round"/>
<path id="Vector_4" d="M49.0671 54H14.9337" stroke="var(--stroke-0, #0F0E0E)" stroke-width="4" stroke-linecap="round" stroke-linejoin="round"/>
<path id="Vector_5" d="M18.4533 2.00004L16.7999 4.18671C16.1398 5.05255 15.8381 6.13913 15.9572 7.22137C16.0763 8.30361 16.6073 9.29855 17.4399 10C17.9032 10.3851 18.2798 10.8638 18.5447 11.4048C18.8097 11.9458 18.9571 12.5368 18.9773 13.1388C18.9974 13.7409 18.8899 14.3404 18.6617 14.8979C18.4334 15.4554 18.0898 15.9583 17.6533 16.3734" stroke="var(--stroke-0, #0F0E0E)" stroke-width="4" stroke-linecap="round" stroke-linejoin="round"/>
<path id="Vector_6" d="M33.4936 2.00004L31.8402 4.18671C31.1802 5.05255 30.8784 6.13913 30.9976 7.22137C31.1168 8.30361 31.6477 9.29855 32.4802 10C32.9362 10.3898 33.3061 10.8702 33.5664 11.4108C33.8266 11.9513 33.9712 12.5401 33.9914 13.1397C34.0114 13.7393 33.9064 14.3364 33.6829 14.8932C33.4594 15.4499 33.1226 15.954 32.6936 16.3734" stroke="var(--stroke-0, #0F0E0E)" stroke-width="4" stroke-linecap="round" stroke-linejoin="round"/>
<path id="Vector_7" d="M47.4936 2.00004L45.8402 4.18671C45.1802 5.05255 44.8784 6.13913 44.9976 7.22137C45.1168 8.30361 45.6477 9.29855 46.4802 10C46.9362 10.3898 47.3061 10.8702 47.5664 11.4108C47.8266 11.9513 47.9712 12.5401 47.9914 13.1397C48.0114 13.7393 47.9064 14.3364 47.6829 14.8932C47.4594 15.4499 47.1226 15.954 46.6936 16.3734" stroke="var(--stroke-0, #0F0E0E)" stroke-width="4" stroke-linecap="round" stroke-linejoin="round"/>
</g>
</svg>
