<svg preserveAspectRatio="none" width="100%" height="100%" overflow="visible" style="display: block;" viewBox="0 0 23 23" fill="none" xmlns="http://www.w3.org/2000/svg">
<g id="information-circle--information-frame-info-more-help-point-circle">
<path id="Vector" d="M11.2039 21.5529C16.9196 21.5529 21.5529 16.9196 21.5529 11.2039C21.5529 5.48838 16.9196 0.855 11.2039 0.855C5.48838 0.855 0.855 5.48838 0.855 11.2039C0.855 16.9196 5.48838 21.5529 11.2039 21.5529Z" stroke="var(--stroke-0, #0F0E0E)" stroke-width="1.71" stroke-linecap="round" stroke-linejoin="round"/>
<path id="Vector_2" d="M8.81571 15.9804H13.5921" stroke="var(--stroke-0, #0F0E0E)" stroke-width="1.71" stroke-linecap="round" stroke-linejoin="round"/>
<path id="Vector_3" d="M11.2039 15.9804V10.4079H9.61179" stroke="var(--stroke-0, #0F0E0E)" stroke-width="1.71" stroke-linecap="round" stroke-linejoin="round"/>
<g id="Group 2605">
<path id="Ellipse 1111" d="M11.2039 6.82554C10.9841 6.82554 10.8059 6.64733 10.8059 6.4275C10.8059 6.20767 10.9841 6.02946 11.2039 6.02946" stroke="var(--stroke-0, #0F0E0E)" stroke-width="1.71" stroke-linecap="round" stroke-linejoin="round"/>
<path id="Ellipse 1112" d="M11.2039 6.82554C11.4238 6.82554 11.602 6.64733 11.602 6.4275C11.602 6.20767 11.4238 6.02946 11.2039 6.02946" stroke="var(--stroke-0, #0F0E0E)" stroke-width="1.71" stroke-linecap="round" stroke-linejoin="round"/>
</g>
</g>
</svg>
