<svg preserveAspectRatio="none" width="100%" height="100%" overflow="visible" style="display: block;" viewBox="0 0 24 24" fill="none" xmlns="http://www.w3.org/2000/svg">
<g id="Barbecue Grill Streamline Ultimate Regular - Free">
<path id="Vector" d="M17.63 8.99996C17.7975 9.00004 17.9629 9.037 18.1144 9.10823C18.266 9.17945 18.4 9.28319 18.5069 9.41207C18.6138 9.54095 18.691 9.6918 18.7331 9.8539C18.7751 10.016 18.7809 10.1854 18.75 10.35C18.4044 11.8793 17.5489 13.2456 16.3241 14.2245C15.0992 15.2034 13.5779 15.7366 12.01 15.7366C10.4421 15.7366 8.92079 15.2034 7.69597 14.2245C6.47116 13.2456 5.61567 11.8793 5.27002 10.35C5.2371 10.1843 5.24174 10.0134 5.28359 9.84976C5.32544 9.68613 5.40344 9.53397 5.51184 9.40446C5.62025 9.27494 5.75631 9.17138 5.91001 9.10138C6.06371 9.03138 6.23115 8.99673 6.40002 8.99996H17.63Z" stroke="var(--stroke-0, #0F0E0E)" stroke-width="1.5" stroke-linecap="round" stroke-linejoin="round"/>
<path id="Vector_2" d="M19.5 23.25L16.23 14.33" stroke="var(--stroke-0, #0F0E0E)" stroke-width="1.5" stroke-linecap="round" stroke-linejoin="round"/>
<path id="Vector_3" d="M4.5 23.25L7.77 14.33" stroke="var(--stroke-0, #0F0E0E)" stroke-width="1.5" stroke-linecap="round" stroke-linejoin="round"/>
<path id="Vector_4" d="M18.4 20.25H5.59998" stroke="var(--stroke-0, #0F0E0E)" stroke-width="1.5" stroke-linecap="round" stroke-linejoin="round"/>
<path id="Vector_5" d="M6.92 0.75L6.3 1.57C6.05245 1.89469 5.9393 2.30216 5.98398 2.708C6.02866 3.11384 6.22775 3.48694 6.54 3.75C6.71374 3.89438 6.85494 4.07391 6.9543 4.27678C7.05367 4.47965 7.10895 4.70127 7.11651 4.92704C7.12406 5.15281 7.08373 5.37763 6.99815 5.58669C6.91257 5.79576 6.7837 5.98433 6.62 6.14" stroke="var(--stroke-0, #0F0E0E)" stroke-width="1.5" stroke-linecap="round" stroke-linejoin="round"/>
<path id="Vector_6" d="M12.56 0.75L11.94 1.57C11.6925 1.89469 11.5793 2.30216 11.624 2.708C11.6687 3.11384 11.8678 3.48694 12.18 3.75C12.351 3.89615 12.4897 4.07632 12.5873 4.27902C12.6849 4.48173 12.7391 4.70253 12.7467 4.92737C12.7542 5.15221 12.7148 5.37615 12.631 5.58493C12.5472 5.7937 12.4209 5.98274 12.26 6.14" stroke="var(--stroke-0, #0F0E0E)" stroke-width="1.5" stroke-linecap="round" stroke-linejoin="round"/>
<path id="Vector_7" d="M17.81 0.75L17.19 1.57C16.9425 1.89469 16.8293 2.30216 16.874 2.708C16.9187 3.11384 17.1178 3.48694 17.43 3.75C17.601 3.89615 17.7397 4.07632 17.8373 4.27902C17.9349 4.48173 17.9891 4.70253 17.9967 4.92737C18.0042 5.15221 17.9648 5.37615 17.881 5.58493C17.7972 5.7937 17.6709 5.98274 17.51 6.14" stroke="var(--stroke-0, #0F0E0E)" stroke-width="1.5" stroke-linecap="round" stroke-linejoin="round"/>
</g>
</svg>
