<svg preserveAspectRatio="none" width="100%" height="100%" overflow="visible" style="display: block;" viewBox="0 0 60 60" fill="none" xmlns="http://www.w3.org/2000/svg">
<g id="beach--island-waves-outdoor-recreation-tree-beach-palm-wave-water-travel-places">
<path id="Vector" d="M57.4743 57.2988H55.3514C53.0995 57.2988 50.9397 56.4042 49.3471 54.8116C47.7546 53.2191 46.86 51.0593 46.86 48.8074C46.86 51.0593 45.9654 53.2191 44.3729 54.8116C42.7803 56.4042 40.6206 57.2988 38.3686 57.2988C36.1165 57.2988 33.9567 56.4042 32.3642 54.8116C30.7718 53.2191 29.8771 51.0593 29.8771 48.8074C29.8771 51.0593 28.9825 53.2191 27.39 54.8116C25.7976 56.4042 23.6378 57.2988 21.3857 57.2988C19.1337 57.2988 16.9738 56.4042 15.3814 54.8116C13.7889 53.2191 12.8943 51.0593 12.8943 48.8074C12.8943 51.0593 11.9997 53.2191 10.4072 54.8116C8.81475 56.4042 6.65491 57.2988 4.40286 57.2988H2.28" stroke="var(--stroke-0, #0F0E0E)" stroke-width="4.56" stroke-linecap="round" stroke-linejoin="round"/>
<path id="Vector_2" d="M42.6143 40.3157C40.4277 37.6572 37.6794 35.516 34.5668 34.046C31.4543 32.5759 28.0548 31.8135 24.6126 31.8135C21.1703 31.8135 17.7708 32.5759 14.6583 34.046C11.5457 35.516 8.7974 37.6572 6.61073 40.3157" stroke="var(--stroke-0, #0F0E0E)" stroke-width="4.56" stroke-linecap="round" stroke-linejoin="round"/>
<path id="Vector_3" d="M27.7546 32.0364C28.0094 22.4411 30.9389 13.6949 37.3075 10.5531" stroke="var(--stroke-0, #0F0E0E)" stroke-width="4.56" stroke-linecap="round" stroke-linejoin="round"/>
<path id="Vector_4" d="M24.6127 2.48642C27.3649 1.94448 30.2201 2.47903 32.5899 3.97988C34.9597 5.48076 36.6633 7.83352 37.3498 10.5533" stroke="var(--stroke-0, #0F0E0E)" stroke-width="4.56" stroke-linecap="round" stroke-linejoin="round"/>
<path id="Vector_5" d="M52.8467 12.1243C50.8924 10.0143 48.2354 8.69035 45.3742 8.40108C42.5127 8.11182 39.6442 8.8772 37.3073 10.5534" stroke="var(--stroke-0, #0F0E0E)" stroke-width="4.56" stroke-linecap="round" stroke-linejoin="round"/>
<path id="Vector_6" d="M21.7253 15.0963C23.389 12.6452 25.8549 10.8507 28.6989 10.0216C31.5428 9.19238 34.5868 9.38043 37.3071 10.5533C40.0356 11.2206 42.398 12.9223 43.8953 15.299C45.3928 17.6757 45.9078 20.5412 45.3317 23.2905" stroke="var(--stroke-0, #0F0E0E)" stroke-width="4.56" stroke-linecap="round" stroke-linejoin="round"/>
</g>
</svg>
