<svg preserveAspectRatio="none" width="100%" height="100%" overflow="visible" style="display: block;" viewBox="0 0 30 30" fill="none" xmlns="http://www.w3.org/2000/svg">
<g id="phone--android-phone-mobile-device-smartphone-iphone">
<path id="Vector" d="M11.2189 27.6156C9.91436 28.4571 8.35977 28.8239 6.81656 28.6543C5.27337 28.4845 3.83567 27.7886 2.74524 26.6835L1.79194 25.7513C1.37401 25.3238 1.14 24.7498 1.14 24.152C1.14 23.5542 1.37401 22.9799 1.79194 22.5526L5.83814 18.5487C6.26205 18.1321 6.83261 17.8987 7.42697 17.8987C8.02131 17.8987 8.59189 18.1321 9.01578 18.5487C9.44326 18.9667 10.0174 19.2007 10.6152 19.2007C11.213 19.2007 11.7871 18.9667 12.2146 18.5487L18.5699 12.1934C18.7819 11.9845 18.9503 11.7355 19.0652 11.4609C19.1801 11.1864 19.2393 10.8917 19.2393 10.594C19.2393 10.2964 19.1801 10.0017 19.0652 9.72708C18.9503 9.45251 18.7819 9.20352 18.5699 8.99459C18.1533 8.5707 17.9199 8.00012 17.9199 7.40578C17.9199 6.81143 18.1533 6.24086 18.5699 5.81695L22.5949 1.79194C23.0224 1.374 23.5964 1.14 24.1942 1.14C24.7922 1.14 25.3663 1.374 25.7938 1.79194L26.7259 2.74524C27.8309 3.83567 28.5268 5.27337 28.6966 6.81656C28.8664 8.35977 28.4996 9.91436 27.6579 11.2189C23.2727 17.6817 17.693 23.247 11.2189 27.6156Z" stroke="var(--stroke-0, #0F0E0E)" stroke-width="2.28" stroke-linecap="round" stroke-linejoin="round"/>
</g>
</svg>
