<svg preserveAspectRatio="none" width="100%" height="100%" overflow="visible" style="display: block;" viewBox="0 0 94 94" fill="none" xmlns="http://www.w3.org/2000/svg">
<g id="information-circle--information-frame-info-more-help-point-circle">
<path id="Vector" d="M46.683 89.8036C70.4982 89.8036 89.8036 70.4982 89.8036 46.683C89.8036 22.8682 70.4982 3.5625 46.683 3.5625C22.8682 3.5625 3.5625 22.8682 3.5625 46.683C3.5625 70.4982 22.8682 89.8036 46.683 89.8036Z" stroke="var(--stroke-0, #0F0E0E)" stroke-width="7.125" stroke-linecap="round" stroke-linejoin="round"/>
<path id="Vector_2" d="M36.7321 66.5849H56.6339" stroke="var(--stroke-0, #0F0E0E)" stroke-width="7.125" stroke-linecap="round" stroke-linejoin="round"/>
<path id="Vector_3" d="M46.6833 66.5849V43.3661H40.0494" stroke="var(--stroke-0, #0F0E0E)" stroke-width="7.125" stroke-linecap="round" stroke-linejoin="round"/>
<g id="Group 2605">
<path id="Ellipse 1111" d="M46.6832 28.4397C45.7673 28.4397 45.0247 27.6971 45.0247 26.7812C45.0247 25.8652 45.7673 25.1227 46.6832 25.1227" stroke="var(--stroke-0, #0F0E0E)" stroke-width="7.125" stroke-linecap="round" stroke-linejoin="round"/>
<path id="Ellipse 1112" d="M46.6829 28.4397C47.5989 28.4397 48.3414 27.6972 48.3414 26.7812C48.3414 25.8653 47.5989 25.1227 46.6829 25.1227" stroke="var(--stroke-0, #0F0E0E)" stroke-width="7.125" stroke-linecap="round" stroke-linejoin="round"/>
</g>
</g>
</svg>
