<svg preserveAspectRatio="none" width="100%" height="100%" overflow="visible" style="display: block;" viewBox="0 0 23 23" fill="none" xmlns="http://www.w3.org/2000/svg">
<g id="beach--island-waves-outdoor-recreation-tree-beach-palm-wave-water-travel-places">
<path id="Vector" d="M21.5529 21.487H20.7568C19.9123 21.487 19.1024 21.1515 18.5052 20.5543C17.908 19.9571 17.5725 19.1472 17.5725 18.3027C17.5725 19.1472 17.237 19.9571 16.6398 20.5543C16.0426 21.1515 15.2327 21.487 14.3882 21.487C13.5437 21.487 12.7338 21.1515 12.1366 20.5543C11.5394 19.9571 11.2039 19.1472 11.2039 18.3027C11.2039 19.1472 10.8684 19.9571 10.2713 20.5543C9.6741 21.1515 8.86416 21.487 8.01964 21.487C7.17512 21.487 6.36518 21.1515 5.76802 20.5543C5.17084 19.9571 4.83536 19.1472 4.83536 18.3027C4.83536 19.1472 4.49988 19.9571 3.9027 20.5543C3.30553 21.1515 2.49559 21.487 1.65107 21.487H0.855" stroke="var(--stroke-0, #0F0E0E)" stroke-width="1.71" stroke-linecap="round" stroke-linejoin="round"/>
<path id="Vector_2" d="M15.9804 15.1183C15.1604 14.1214 14.1298 13.3185 12.9626 12.7672C11.7954 12.2159 10.5205 11.93 9.2297 11.93C7.93886 11.93 6.66404 12.2159 5.49684 12.7672C4.32963 13.3185 3.29902 14.1214 2.47902 15.1183" stroke="var(--stroke-0, #0F0E0E)" stroke-width="1.71" stroke-linecap="round" stroke-linejoin="round"/>
<path id="Vector_3" d="M10.4079 12.0137C10.5034 8.41546 11.602 5.13565 13.9902 3.95746" stroke="var(--stroke-0, #0F0E0E)" stroke-width="1.71" stroke-linecap="round" stroke-linejoin="round"/>
<path id="Vector_4" d="M9.22969 0.932408C10.2618 0.729182 11.3325 0.929637 12.2211 1.49246C13.1098 2.05528 13.7487 2.93757 14.0061 3.95748" stroke="var(--stroke-0, #0F0E0E)" stroke-width="1.71" stroke-linecap="round" stroke-linejoin="round"/>
<path id="Vector_5" d="M19.8174 4.54664C19.0846 3.75537 18.0882 3.2589 17.0153 3.15042C15.9422 3.04195 14.8665 3.32897 13.9902 3.95754" stroke="var(--stroke-0, #0F0E0E)" stroke-width="1.71" stroke-linecap="round" stroke-linejoin="round"/>
<path id="Vector_6" d="M8.14695 5.66114C8.77083 4.74199 9.69556 4.06906 10.762 3.75813C11.8285 3.44718 12.97 3.5177 13.9901 3.95754C15.0133 4.20778 15.8992 4.84591 16.4607 5.73716C17.0223 6.62841 17.2154 7.703 16.9993 8.73397" stroke="var(--stroke-0, #0F0E0E)" stroke-width="1.71" stroke-linecap="round" stroke-linejoin="round"/>
</g>
</svg>
