<svg preserveAspectRatio="none" width="100%" height="100%" overflow="visible" style="display: block;" viewBox="0 0 100 100" fill="none" xmlns="http://www.w3.org/2000/svg">
<g id="Style Two Pin Home Streamline Ultimate Regular - Free">
<path id="Vector" d="M62.5 36.4751V59.3917H37.5V36.4751" stroke="var(--stroke-0, #0F0E0E)" stroke-width="6.25" stroke-linecap="round" stroke-linejoin="round"/>
<path id="Vector_2" d="M31.25 40.6418L50 28.1418L68.75 40.6418" stroke="var(--stroke-0, #0F0E0E)" stroke-width="6.25" stroke-linecap="round" stroke-linejoin="round"/>
<path id="Vector_3" d="M87.5 40.6418C87.5 73.5583 58.6167 92.0208 51.5458 96.0583C51.0746 96.3279 50.5408 96.4696 49.9979 96.4696C49.455 96.4696 48.9212 96.3279 48.45 96.0583C41.3792 92.0167 12.5 73.55 12.5 40.6418C12.5 30.6962 16.4509 21.1579 23.4835 14.1253C30.5161 7.09267 40.0544 3.14178 50 3.14178C59.9454 3.14178 69.4837 7.09267 76.5167 14.1253C83.5492 21.1579 87.5 30.6962 87.5 40.6418Z" stroke="var(--stroke-0, #0F0E0E)" stroke-width="6.25" stroke-linecap="round" stroke-linejoin="round"/>
</g>
</svg>
