<svg preserveAspectRatio="none" width="100%" height="100%" overflow="visible" style="display: block;" viewBox="0 0 100 100" fill="none" xmlns="http://www.w3.org/2000/svg">
<g id="Barbecue Grill Streamline Ultimate Regular - Free">
<path id="Vector" d="M73.458 37.4999C74.156 37.5002 74.8451 37.6542 75.4764 37.951C76.108 38.2478 76.6664 38.68 77.1118 39.217C77.5572 39.754 77.8789 40.3826 78.0543 41.058C78.2293 41.7334 78.2535 42.4392 78.1247 43.1251C76.6847 49.4971 73.1201 55.1901 68.0168 59.2688C62.913 63.3476 56.5743 65.5692 50.0414 65.5692C43.5085 65.5692 37.1697 63.3476 32.0663 59.2688C26.9629 55.1901 23.3983 49.4971 21.9581 43.1251C21.821 42.4346 21.8403 41.7226 22.0147 41.0407C22.189 40.3589 22.514 39.7249 22.9657 39.1853C23.4174 38.6456 23.9843 38.2141 24.6248 37.9225C25.2652 37.6308 25.9628 37.4864 26.6665 37.4999H73.458Z" stroke="var(--stroke-0, #0F0E0E)" stroke-width="6.25" stroke-linecap="round" stroke-linejoin="round"/>
<path id="Vector_2" d="M81.2499 96.8749L67.6249 59.7082" stroke="var(--stroke-0, #0F0E0E)" stroke-width="6.25" stroke-linecap="round" stroke-linejoin="round"/>
<path id="Vector_3" d="M18.75 96.8749L32.375 59.7082" stroke="var(--stroke-0, #0F0E0E)" stroke-width="6.25" stroke-linecap="round" stroke-linejoin="round"/>
<path id="Vector_4" d="M76.6671 84.375H23.3337" stroke="var(--stroke-0, #0F0E0E)" stroke-width="6.25" stroke-linecap="round" stroke-linejoin="round"/>
<path id="Vector_5" d="M28.833 3.12504L26.2497 6.54171C25.2182 7.89458 24.7468 9.59237 24.933 11.2834C25.1191 12.9744 25.9487 14.529 27.2497 15.625C27.9736 16.2266 28.562 16.9747 28.976 17.82C29.39 18.6652 29.6203 19.5887 29.6518 20.5294C29.6833 21.4701 29.5152 22.4068 29.1587 23.2779C28.8021 24.149 28.2651 24.9347 27.583 25.5834" stroke="var(--stroke-0, #0F0E0E)" stroke-width="6.25" stroke-linecap="round" stroke-linejoin="round"/>
<path id="Vector_6" d="M52.3335 3.12504L49.7502 6.54171C48.719 7.89458 48.2473 9.59237 48.4335 11.2834C48.6198 12.9744 49.4494 14.529 50.7502 15.625C51.4627 16.234 52.0406 16.9847 52.4473 17.8293C52.854 18.6739 53.0798 19.5939 53.1115 20.5307C53.1427 21.4676 52.9785 22.4007 52.6294 23.2706C52.2802 24.1405 51.754 24.9281 51.0835 25.5834" stroke="var(--stroke-0, #0F0E0E)" stroke-width="6.25" stroke-linecap="round" stroke-linejoin="round"/>
<path id="Vector_7" d="M74.2085 3.12504L71.6252 6.54171C70.594 7.89458 70.1223 9.59237 70.3085 11.2834C70.4948 12.9744 71.3244 14.529 72.6252 15.625C73.3377 16.234 73.9156 16.9847 74.3223 17.8293C74.729 18.6739 74.9548 19.5939 74.9865 20.5307C75.0177 21.4676 74.8535 22.4007 74.5044 23.2706C74.1552 24.1405 73.629 24.9281 72.9585 25.5834" stroke="var(--stroke-0, #0F0E0E)" stroke-width="6.25" stroke-linecap="round" stroke-linejoin="round"/>
</g>
</svg>
