<svg preserveAspectRatio="none" width="100%" height="100%" overflow="visible" style="display: block;" viewBox="0 0 30 30" fill="none" xmlns="http://www.w3.org/2000/svg">
<g id="information-circle--information-frame-info-more-help-point-circle">
<path id="Vector" d="M14.9386 28.7371C22.5594 28.7371 28.7371 22.5594 28.7371 14.9386C28.7371 7.31783 22.5594 1.14 14.9386 1.14C7.31783 1.14 1.14 7.31783 1.14 14.9386C1.14 22.5594 7.31783 28.7371 14.9386 28.7371Z" stroke="var(--stroke-0, #0F0E0E)" stroke-width="2.28" stroke-linecap="round" stroke-linejoin="round"/>
<path id="Vector_2" d="M11.7543 21.3072H18.1229" stroke="var(--stroke-0, #0F0E0E)" stroke-width="2.28" stroke-linecap="round" stroke-linejoin="round"/>
<path id="Vector_3" d="M14.9387 21.3071V13.8771H12.8159" stroke="var(--stroke-0, #0F0E0E)" stroke-width="2.28" stroke-linecap="round" stroke-linejoin="round"/>
<g id="Group 2605">
<path id="Ellipse 1111" d="M14.9387 9.10068C14.6456 9.10068 14.408 8.86307 14.408 8.56997C14.408 8.27686 14.6456 8.03925 14.9387 8.03925" stroke="var(--stroke-0, #0F0E0E)" stroke-width="2.28" stroke-linecap="round" stroke-linejoin="round"/>
<path id="Ellipse 1112" d="M14.9385 9.1007C15.2316 9.1007 15.4692 8.86309 15.4692 8.56999C15.4692 8.27688 15.2316 8.03927 14.9385 8.03927" stroke="var(--stroke-0, #0F0E0E)" stroke-width="2.28" stroke-linecap="round" stroke-linejoin="round"/>
</g>
</g>
</svg>
