<svg preserveAspectRatio="none" width="100%" height="100%" overflow="visible" style="display: block;" viewBox="0 0 100 100" fill="none" xmlns="http://www.w3.org/2000/svg">
<g id="Smart Toilet Streamline Ultimate Regular - Free">
<path id="Vector" d="M70.9635 52.9906H88.9323C90.5207 52.9906 92.0445 52.3597 93.1677 51.2364C94.291 50.1132 94.9219 48.5894 94.9219 47.001V11.0636C94.9219 9.47507 94.291 7.9516 93.1677 6.82831C92.0445 5.70506 90.5207 5.07402 88.9323 5.07402H76.9531C75.3647 5.07402 73.8409 5.70506 72.7177 6.82831C71.5944 7.9516 70.9635 9.47507 70.9635 11.0636V52.9906Z" stroke="var(--stroke-0, #0F0E0E)" stroke-width="4.16667" stroke-linecap="round" stroke-linejoin="round"/>
<path id="Vector_2" d="M23.0469 41.0115C21.4584 41.0115 19.9348 41.6426 18.8116 42.766C17.6884 43.8892 17.0573 45.4126 17.0573 47.001C17.0573 48.5895 17.6884 50.1132 18.8116 51.2365C19.9348 52.3597 21.4584 52.9906 23.0469 52.9906H70.9635V41.0115H23.0469Z" stroke="var(--stroke-0, #0F0E0E)" stroke-width="4.16667" stroke-linecap="round" stroke-linejoin="round"/>
<path id="Vector_3" d="M80.7465 64.3743C83.128 63.5765 85.198 62.0504 86.665 60.0119C88.1317 57.9735 88.9207 55.5253 88.9203 53.0141H23.0469C23.0458 59.0871 24.7234 65.042 27.8944 70.2214C31.0654 75.4007 35.6063 79.6026 41.0156 82.363L38.0208 94.9252H76.9531V70.0884C76.9184 68.8609 77.2646 67.6526 77.9438 66.6296C78.6226 65.6066 79.6017 64.8188 80.7465 64.3743Z" stroke="var(--stroke-0, #0F0E0E)" stroke-width="4.16667" stroke-linecap="round" stroke-linejoin="round"/>
</g>
</svg>
