<svg preserveAspectRatio="none" width="100%" height="100%" overflow="visible" style="display: block;" viewBox="0 0 32 32" fill="none" xmlns="http://www.w3.org/2000/svg">
<g id="Barbecue Grill Streamline Ultimate Regular - Free">
<path id="Vector" d="M23.5065 12C23.7298 12.0001 23.9504 12.0493 24.1524 12.1443C24.3545 12.2393 24.5332 12.3776 24.6757 12.5494C24.8182 12.7213 24.9212 12.9224 24.9773 13.1385C25.0333 13.3547 25.041 13.5805 24.9998 13.8C24.539 15.8391 23.3984 17.6608 21.7653 18.966C20.1321 20.2712 18.1037 20.9821 16.0132 20.9821C13.9226 20.9821 11.8942 20.2712 10.2611 18.966C8.62805 17.6608 7.4874 15.8391 7.02653 13.8C6.98264 13.5791 6.98883 13.3512 7.04463 13.133C7.10043 12.9148 7.20443 12.712 7.34896 12.5393C7.49351 12.3666 7.67492 12.2285 7.87985 12.1352C8.08479 12.0418 8.30804 11.9956 8.5332 12H23.5065Z" stroke="var(--stroke-0, #0F0E0E)" stroke-width="2" stroke-linecap="round" stroke-linejoin="round"/>
<path id="Vector_2" d="M25.9999 31L21.6399 19.1067" stroke="var(--stroke-0, #0F0E0E)" stroke-width="2" stroke-linecap="round" stroke-linejoin="round"/>
<path id="Vector_3" d="M5.99992 31L10.3599 19.1067" stroke="var(--stroke-0, #0F0E0E)" stroke-width="2" stroke-linecap="round" stroke-linejoin="round"/>
<path id="Vector_4" d="M24.5334 27H7.46672" stroke="var(--stroke-0, #0F0E0E)" stroke-width="2" stroke-linecap="round" stroke-linejoin="round"/>
<path id="Vector_5" d="M9.2265 1L8.39984 2.09333C8.06977 2.52625 7.9189 3.06955 7.97848 3.61067C8.03805 4.15179 8.3035 4.64925 8.71984 5C8.95149 5.19251 9.13976 5.43188 9.27224 5.70237C9.40473 5.97287 9.47844 6.26836 9.48852 6.56939C9.49858 6.87041 9.44481 7.17017 9.3307 7.44892C9.2166 7.72768 9.04477 7.97911 8.8265 8.18667" stroke="var(--stroke-0, #0F0E0E)" stroke-width="2" stroke-linecap="round" stroke-linejoin="round"/>
<path id="Vector_6" d="M16.7467 1L15.92 2.09333C15.59 2.52625 15.4391 3.06955 15.4987 3.61067C15.5583 4.15179 15.8237 4.64925 16.24 5C16.468 5.19487 16.6529 5.43509 16.7831 5.70536C16.9132 5.97564 16.9855 6.27004 16.9956 6.56983C17.0056 6.86961 16.9531 7.1682 16.8413 7.44657C16.7296 7.72493 16.5612 7.97699 16.3467 8.18667" stroke="var(--stroke-0, #0F0E0E)" stroke-width="2" stroke-linecap="round" stroke-linejoin="round"/>
<path id="Vector_7" d="M23.7467 1L22.92 2.09333C22.59 2.52625 22.4391 3.06955 22.4987 3.61067C22.5583 4.15179 22.8237 4.64925 23.24 5C23.468 5.19487 23.6529 5.43509 23.7831 5.70536C23.9132 5.97564 23.9855 6.27004 23.9956 6.56983C24.0056 6.86961 23.9531 7.1682 23.8413 7.44657C23.7296 7.72493 23.5612 7.97699 23.3467 8.18667" stroke="var(--stroke-0, #0F0E0E)" stroke-width="2" stroke-linecap="round" stroke-linejoin="round"/>
</g>
</svg>
