<svg preserveAspectRatio="none" width="100%" height="100%" overflow="visible" style="display: block;" viewBox="0 0 64 64" fill="none" xmlns="http://www.w3.org/2000/svg">
<g id="Smart Toilet Streamline Ultimate Regular - Free">
<path id="Vector" d="M45.4167 33.914H56.9167C57.9333 33.914 58.9085 33.5102 59.6273 32.7913C60.3462 32.0724 60.75 31.0972 60.75 30.0806V7.08068C60.75 6.06403 60.3462 5.08901 59.6273 4.37011C58.9085 3.65122 57.9333 3.24736 56.9167 3.24736H49.25C48.2334 3.24736 47.2582 3.65122 46.5393 4.37011C45.8204 5.08901 45.4167 6.06403 45.4167 7.08068V33.914Z" stroke="var(--stroke-0, #0F0E0E)" stroke-width="2.66667" stroke-linecap="round" stroke-linejoin="round"/>
<path id="Vector_2" d="M14.75 26.2474C13.7333 26.2474 12.7583 26.6512 12.0394 27.3702C11.3205 28.0891 10.9167 29.064 10.9167 30.0806C10.9167 31.0972 11.3205 32.0724 12.0394 32.7913C12.7583 33.5102 13.7333 33.914 14.75 33.914H45.4167V26.2474H14.75Z" stroke="var(--stroke-0, #0F0E0E)" stroke-width="2.66667" stroke-linecap="round" stroke-linejoin="round"/>
<path id="Vector_3" d="M51.6778 41.1996C53.2019 40.689 54.5267 39.7122 55.4656 38.4076C56.4043 37.103 56.9093 35.5362 56.909 33.929H14.75C14.7493 37.8157 15.8229 41.6268 17.8524 44.9417C19.8818 48.2565 22.788 50.9457 26.25 52.7123L24.3333 60.7521H49.25V44.8566C49.2278 44.071 49.4493 43.2977 49.884 42.6429C50.3185 41.9882 50.9451 41.484 51.6778 41.1996Z" stroke="var(--stroke-0, #0F0E0E)" stroke-width="2.66667" stroke-linecap="round" stroke-linejoin="round"/>
</g>
</svg>
