<svg width="62" height="67" viewBox="0 0 62 67" fill="none" xmlns="http://www.w3.org/2000/svg">
<path d="M32.4232 19.9609L40.2615 19.7787L40.4646 19.8901L45.5716 27.9615L50.6279 36.0633L50.2217 36.7823C45.7036 36.8431 41.1854 36.8026 36.6673 36.8127L36.2408 36.5697L29.9053 26.2804H30.6871L24.0875 36.995L23.7524 37.1773L9.37556 37.1064L9.11158 36.6203C9.22326 36.6304 32.3116 0.152001 32.4842 0.435565C32.4537 0.435565 9.68016 36.9444 9.6497 36.9545L9.38572 36.4684L23.7626 36.3975L23.4275 36.5798L29.8951 25.7841H30.6769L37.0835 36.0228L36.6571 35.7797C41.1753 35.7797 45.6934 35.7494 50.2116 35.8101L49.8055 36.5292L44.9015 28.3362L40.0483 20.1129L40.2513 20.2243L32.4131 20.042C32.3319 20.042 32.3725 20.0318 32.3623 19.9407H32.4131L32.4232 19.9609Z" fill="#0F0E0E"/>
<path d="M27.7528 0L37.8451 16.0922L26.8999 0.557L27.7528 0Z" fill="#0F0E0E"/>
<path d="M41.5408 4.33451L40.6879 3.6256L39.8147 4.20286L40.1701 3.19013L39.3172 2.49135L40.3833 2.57237L40.7387 1.55964L41.0433 2.623L42.1094 2.70402L41.2362 3.27115L41.5408 4.33451Z" fill="#0F0E0E"/>
<path d="M37.2359 6.38011L36.7384 5.96489L36.2104 6.30922L36.4236 5.71171L35.916 5.28637L36.5556 5.337L36.7587 4.73949L36.9414 5.36738L37.5811 5.41802L37.0531 5.75222L37.2359 6.38011Z" fill="#0F0E0E"/>
<path d="M35.5504 2.43048L35.2458 1.95449L34.728 2.09628L35.063 1.65068L34.7584 1.17469L35.2661 1.38737L35.6113 0.941767L35.591 1.50889L36.0987 1.72157L35.5707 1.86335L35.5504 2.43048Z" fill="#0F0E0E"/>
<path d="M42.8302 1.52923C42.8302 1.52923 45.3787 1.78241 45.9473 4.09143C45.9473 4.09143 47.257 7.82839 43.1551 8.73985C42.3124 8.93226 41.4088 8.80061 40.6778 8.33475C40.3224 8.11195 39.9366 7.79801 39.5609 7.35241C39.5609 7.35241 41.6829 8.51705 43.409 6.87643C44.0892 6.22828 44.536 5.32695 44.5055 4.38512C44.4852 3.55468 44.1298 2.49132 42.8302 1.52923Z" fill="#0F0E0E"/>
<path d="M8.26216 47.106C8.42664 47.1242 8.51802 47.2336 8.51802 47.3612C8.51802 47.507 8.39009 47.6164 8.18905 47.6164C7.76871 47.5799 7.25699 47.5982 6.85493 47.5982C6.45286 47.5982 5.94114 47.5799 5.5208 47.6164C5.31977 47.6346 5.17356 47.507 5.19184 47.343C5.19184 47.2154 5.28322 47.1242 5.4477 47.106C6.41631 46.9966 6.39804 46.1763 6.39804 45.4471V41.3638C6.39804 41.1998 6.30666 41.0722 6.10562 41.0722H2.43221C2.23118 41.0722 2.1398 41.1998 2.1398 41.3638V45.4471C2.1398 46.1763 2.12152 46.9966 3.09013 47.106C3.25462 47.1242 3.34599 47.2336 3.34599 47.3612C3.34599 47.507 3.21806 47.6164 3.01703 47.6164C2.59669 47.5799 2.08497 47.5982 1.66463 47.5982C1.26257 47.5982 0.750846 47.5799 0.330505 47.6164C0.129472 47.6346 -0.0167333 47.507 0.00154231 47.343C0.019818 47.2154 0.0929208 47.1242 0.257402 47.106C1.22601 46.9784 1.20774 46.1763 1.20774 45.4471V36.9524C1.20774 36.2232 1.20774 35.4211 0.257402 35.33C0.0929208 35.3118 0.00154231 35.2024 0.00154231 35.0566C0.00154231 34.9107 0.129472 34.8014 0.330505 34.8196C0.750846 34.8378 1.26257 34.8378 1.66463 34.8378C2.0667 34.8378 2.59669 34.8378 3.01703 34.8196C3.21806 34.8014 3.34599 34.929 3.34599 35.0748C3.34599 35.2024 3.25462 35.3118 3.09013 35.33C2.1398 35.4211 2.1398 36.2232 2.1398 36.9524V40.4159C2.1398 40.5617 2.23118 40.6894 2.43221 40.6894H6.10562C6.30666 40.6894 6.39804 40.5617 6.39804 40.4159V36.9524C6.39804 36.2232 6.39804 35.4211 5.4477 35.33C5.26494 35.3118 5.17356 35.2024 5.17356 35.0566C5.17356 34.9107 5.31977 34.8014 5.50253 34.8196C5.92287 34.8378 6.45286 34.8378 6.85493 34.8378C7.25699 34.8378 7.78699 34.8378 8.20733 34.8196C8.39009 34.8014 8.51802 34.929 8.51802 35.0748C8.51802 35.2024 8.42664 35.2935 8.26216 35.33C7.31182 35.4394 7.31182 36.2232 7.31182 36.9524V45.4471C7.31182 46.1763 7.29354 46.9966 8.26216 47.106Z" fill="#0F0E0E"/>
<path d="M10.1938 42.0018C10.1755 42.1112 10.2304 42.2024 10.3766 42.2024H11.7107C12.5879 42.2024 13.0448 42.0383 13.0448 41.3821C13.0448 40.744 12.6793 39.7597 11.7838 39.7597C10.6873 39.7597 10.3217 41.1815 10.1938 42.0018ZM13.9769 45.7388C14.0683 45.7753 14.1048 45.8664 14.0865 45.9393C13.7393 46.7232 12.9534 47.9081 11.8021 47.9081C9.79175 47.9081 9.31658 44.9367 9.31658 43.8248C9.31658 42.5487 9.68209 39.231 11.8569 39.231C13.5017 39.231 13.9221 41.1451 13.9403 42.1294C13.9403 42.2935 13.9586 42.5669 13.6662 42.6034H10.3217C10.1755 42.6034 10.1024 42.6763 10.1024 42.8039C10.0842 43.132 10.1024 43.4602 10.1207 43.8248C10.1573 44.6633 10.5045 46.8508 12.0579 46.8508C12.8438 46.8508 13.3738 46.3221 13.7027 45.8117C13.7576 45.7206 13.8672 45.6841 13.9769 45.7388Z" fill="#0F0E0E"/>
<path d="M17.0645 43.1867C18.0696 43.9341 18.5265 44.3534 18.5265 45.4107C18.5265 46.4315 18.0514 47.9081 16.4431 47.9081C16.0228 47.9081 14.9628 47.6529 14.8897 47.1242L14.7435 45.2831C14.7435 45.2102 14.8166 45.119 14.9262 45.119C15.0359 45.119 15.109 45.1737 15.1272 45.2466C15.2186 45.9758 15.4562 47.343 16.5345 47.343C17.4665 47.343 17.7407 46.6867 17.7407 46.0852C17.7407 45.1555 17.2472 44.6451 16.3883 43.9706C15.4197 43.2414 14.8531 42.6216 14.8531 41.5643C14.8531 40.6894 15.3648 39.231 16.7721 39.231C17.229 39.231 17.6493 39.3951 17.9783 39.6138C18.1062 39.6868 18.161 39.7961 18.161 39.9055L18.2524 41.4914C18.2524 41.5826 18.1793 41.6555 18.0696 41.6555C17.96 41.6555 17.9052 41.6008 17.8869 41.5279C17.8138 40.9081 17.631 39.8326 16.6441 39.8326C15.8217 39.8326 15.4928 40.4341 15.4928 40.9628C15.4928 41.9289 16.2238 42.5669 17.0645 43.1867Z" fill="#0F0E0E"/>
<path d="M21.5799 43.1867C22.585 43.9341 23.0419 44.3534 23.0419 45.4107C23.0419 46.4315 22.5667 47.9081 20.9585 47.9081C20.5381 47.9081 19.4781 47.6529 19.405 47.1242L19.2588 45.2831C19.2588 45.2102 19.3319 45.119 19.4416 45.119C19.5513 45.119 19.6244 45.1737 19.6426 45.2466C19.734 45.9758 19.9716 47.343 21.0499 47.343C21.9819 47.343 22.2561 46.6867 22.2561 46.0852C22.2561 45.1555 21.7626 44.6451 20.9037 43.9706C19.935 43.2414 19.3685 42.6216 19.3685 41.5643C19.3685 40.6894 19.8802 39.231 21.2874 39.231C21.7443 39.231 22.1647 39.3951 22.4936 39.6138C22.6216 39.6868 22.6764 39.7961 22.6764 39.9055L22.7678 41.4914C22.7678 41.5826 22.6947 41.6555 22.585 41.6555C22.4754 41.6555 22.4205 41.6008 22.4023 41.5279C22.3292 40.9081 22.1464 39.8326 21.1595 39.8326C20.3371 39.8326 20.0081 40.4341 20.0081 40.9628C20.0081 41.9289 20.7392 42.5669 21.5799 43.1867Z" fill="#0F0E0E"/>
<path d="M24.5966 42.0018C24.5784 42.1112 24.6332 42.2024 24.7794 42.2024H26.1135C26.9907 42.2024 27.4476 42.0383 27.4476 41.3821C27.4476 40.744 27.0821 39.7597 26.1866 39.7597C25.0901 39.7597 24.7246 41.1815 24.5966 42.0018ZM28.3797 45.7388C28.4711 45.7753 28.5076 45.8664 28.4894 45.9393C28.1421 46.7232 27.3563 47.9081 26.2049 47.9081C24.1946 47.9081 23.7194 44.9367 23.7194 43.8248C23.7194 42.5487 24.0849 39.231 26.2597 39.231C27.9045 39.231 28.3249 41.1451 28.3431 42.1294C28.3431 42.2935 28.3614 42.5669 28.069 42.6034H24.7246C24.5784 42.6034 24.5053 42.6763 24.5053 42.8039C24.487 43.132 24.5053 43.4602 24.5235 43.8248C24.5601 44.6633 24.9073 46.8508 26.4608 46.8508C27.2466 46.8508 27.7766 46.3221 28.1056 45.8117C28.1604 45.7206 28.27 45.6841 28.3797 45.7388Z" fill="#0F0E0E"/>
<path d="M31.5051 47.106C31.6513 47.1424 31.7427 47.2518 31.7427 47.3977C31.7244 47.5435 31.5965 47.6346 31.432 47.6346C31.1579 47.6164 30.7375 47.5982 30.4451 47.5982C30.1345 47.5982 29.7872 47.6164 29.4583 47.6346C29.2755 47.6346 29.1658 47.5435 29.1476 47.3977C29.1293 47.2518 29.2207 47.1424 29.3669 47.106C30.0613 46.9966 30.0065 46.3404 30.0065 45.83V36.2961C30.0065 35.7675 30.0613 35.0748 29.1476 35.0201C29.0379 35.0019 28.9465 34.9472 28.91 34.8925C28.8552 34.8014 28.8734 34.692 28.9465 34.6191C29.2755 34.2727 30.0248 33.8352 30.5 33.7623C30.5731 33.7441 30.6644 33.7805 30.7375 33.817C30.8472 33.8717 30.9203 33.9628 30.902 34.054C30.8655 34.6191 30.8655 35.1113 30.8655 35.6764V45.83C30.8655 46.3768 30.8107 47.0148 31.5051 47.106Z" fill="#0F0E0E"/>
<path d="M33.7609 47.3612C33.0116 46.9966 32.8837 46.1581 32.975 45.5018C32.9933 45.4107 33.0299 45.3378 33.103 45.2831C33.3405 45.0826 33.5964 44.8456 33.7974 44.6268C33.8523 44.5539 33.834 44.4628 33.7609 44.4081C33.0116 43.7883 32.8106 42.9133 32.8106 42.0748C32.8106 40.8899 33.3588 39.231 35.1498 39.231C35.8809 39.231 36.5205 39.7232 37.3246 39.7232C37.416 39.7232 37.5988 39.7232 37.7267 39.705C37.8729 39.6868 37.9826 39.7779 37.9826 39.9055C37.9826 40.0149 37.8912 40.106 37.745 40.106H36.8495C36.7581 40.106 36.7216 40.1789 36.7581 40.2519C37.1419 40.744 37.2698 41.5279 37.2698 41.9472C37.2698 43.0591 36.8312 44.7909 34.9488 44.7909C34.7661 44.7909 34.565 44.7727 34.364 44.718C34.2726 44.6815 34.163 44.6997 34.1081 44.7727C33.8705 45.0461 33.7974 45.2649 33.7974 45.6294C33.7974 46.1945 33.9985 46.5591 34.7661 46.5591C35.3326 46.5591 35.8991 46.5773 36.4474 46.5773C37.9095 46.5773 38.2384 47.7258 38.2384 48.619C38.2384 50.0591 37.0688 51.7544 34.9671 51.7544C33.2857 51.7544 32.4085 50.843 32.3537 49.1476C32.3537 49.0383 32.3902 48.9289 32.4816 48.856C32.6643 48.6737 33.5964 47.7805 33.7974 47.5617C33.8523 47.507 33.834 47.4159 33.7609 47.3612ZM33.7609 41.8925C33.7609 42.494 33.8888 44.2623 35.0585 44.2623C36.2647 44.2623 36.4109 42.8039 36.4109 42.1294C36.4109 41.4732 36.1916 39.7597 35.0219 39.7597C33.9436 39.7597 33.7609 41.3274 33.7609 41.8925ZM33.2674 49.3482C33.2674 50.2414 33.8523 51.1164 35.1681 51.1164C36.6484 51.1164 37.4526 50.2779 37.4526 49.1659C37.4526 48.1815 36.8312 47.6529 35.5885 47.6529H34.4919C34.3823 47.6529 34.2909 47.6711 34.2178 47.7258C33.6147 48.145 33.2674 48.6737 33.2674 49.3482Z" fill="#0F0E0E"/>
<path d="M42.2737 45.3378V44.7544C42.2737 44.6815 42.2188 44.6268 42.1274 44.6268C40.8481 44.6268 39.7333 44.6633 39.7333 45.7024C39.7333 46.2857 39.7882 46.9966 40.7568 46.9966C41.5609 46.9966 42.2737 46.1034 42.2737 45.3378ZM44.284 46.705C44.3571 46.7596 44.3754 46.8508 44.3388 46.9237C44.0464 47.3065 43.4616 47.9081 42.9864 47.9081C42.5295 47.9081 42.365 47.2883 42.2919 46.8508C42.2919 46.7596 42.1457 46.705 42.0726 46.8143C41.6523 47.343 41.0126 47.9081 40.1902 47.9081C39.1485 47.9081 38.8744 46.6685 38.8744 46.0669C38.8744 44.5175 39.6968 44.244 42.1274 44.244C42.2188 44.244 42.2737 44.1711 42.2737 44.1164V41.8013C42.2737 41.1815 42.2006 39.9966 41.104 39.9966C40.4644 39.9966 39.7699 40.9263 40.1171 41.8378C40.1902 42.0201 39.8795 42.3482 39.5689 42.3482C39.2216 42.3482 39.0389 42.0383 39.0389 41.7102C39.0389 40.9446 39.6968 40.3248 40.373 39.8326C40.7202 39.5774 41.1223 39.231 41.6157 39.231C42.8036 39.231 43.1143 40.5071 43.1143 41.1998V45.8482C43.1143 46.468 43.2057 46.8326 43.4433 46.9055C43.6078 46.9602 43.7905 46.9237 43.9916 46.7232C44.0647 46.6503 44.1926 46.632 44.284 46.705Z" fill="#0F0E0E"/>
<path d="M48.4488 45.3378V44.7544C48.4488 44.6815 48.394 44.6268 48.3026 44.6268C47.0233 44.6268 45.9085 44.6633 45.9085 45.7024C45.9085 46.2857 45.9633 46.9966 46.932 46.9966C47.7361 46.9966 48.4488 46.1034 48.4488 45.3378ZM50.4592 46.705C50.5323 46.7596 50.5505 46.8508 50.514 46.9237C50.2216 47.3065 49.6368 47.9081 49.1616 47.9081C48.7047 47.9081 48.5402 47.2883 48.4671 46.8508C48.4671 46.7596 48.3209 46.705 48.2478 46.8143C47.8275 47.343 47.1878 47.9081 46.3654 47.9081C45.3237 47.9081 45.0496 46.6685 45.0496 46.0669C45.0496 44.5175 45.872 44.244 48.3026 44.244C48.394 44.244 48.4488 44.1711 48.4488 44.1164V41.8013C48.4488 41.1815 48.3757 39.9966 47.2792 39.9966C46.6395 39.9966 45.9451 40.9263 46.2923 41.8378C46.3654 42.0201 46.0547 42.3482 45.744 42.3482C45.3968 42.3482 45.214 42.0383 45.214 41.7102C45.214 40.9446 45.872 40.3248 46.5482 39.8326C46.8954 39.5774 47.2975 39.231 47.7909 39.231C48.9788 39.231 49.2895 40.5071 49.2895 41.1998V45.8482C49.2895 46.468 49.3809 46.8326 49.6185 46.9055C49.783 46.9602 49.9657 46.9237 50.1668 46.7232C50.2399 46.6503 50.3678 46.632 50.4592 46.705Z" fill="#0F0E0E"/>
<path d="M54.5182 39.2675C55.103 39.2675 55.2858 39.7597 55.2858 40.106C55.2858 40.343 55.1579 40.981 54.7375 40.981C54.3172 40.981 54.2989 40.3977 53.8786 40.3977C53.2755 40.3977 52.7638 41.5097 52.7638 42.1294V45.83C52.7638 46.6685 52.782 47.0513 53.8237 47.106C54.0065 47.1242 54.1162 47.2518 54.1162 47.3794C54.0979 47.5253 53.97 47.6164 53.8055 47.6164C53.4034 47.5982 52.9831 47.5982 52.5993 47.5982C52.1607 47.5982 51.6855 47.5982 51.2469 47.6164C51.0641 47.6164 50.9362 47.507 50.9362 47.3612C50.9362 47.2154 51.0458 47.1242 51.192 47.106C51.9596 47.0148 51.9048 46.468 51.9048 45.83V41.619C51.9048 40.9081 51.8683 40.3612 51.3017 40.3065C51.2103 40.2883 51.1189 40.2336 51.0824 40.1789C51.0276 40.0878 51.0458 39.9966 51.1007 39.9055C51.3565 39.6321 52.0327 39.2675 52.4165 39.231C52.4531 39.231 52.5262 39.231 52.581 39.2493C52.7455 39.2857 52.8003 39.4133 52.8003 39.5956C52.8003 39.9784 52.782 40.2883 52.7638 40.6711C52.7638 40.7805 52.91 40.7987 52.9465 40.7258C53.2938 40.1425 53.97 39.2675 54.5182 39.2675Z" fill="#0F0E0E"/>
<path d="M58.4305 46.8143C59.0884 46.8143 59.9108 46.1399 59.9108 45.593V41.4185C59.9108 40.7258 59.5636 39.7232 58.4488 39.7232C56.7126 39.7232 56.3836 41.9472 56.3836 43.3873C56.3836 44.4081 56.7126 46.8143 58.4305 46.8143ZM61.9394 46.705C62.0125 46.7596 62.0125 46.8508 61.976 46.9237C61.7019 47.2883 61.0988 47.9081 60.6236 47.9081C60.1667 47.9081 60.0022 47.2883 59.9474 46.8508C59.9291 46.7596 59.8195 46.7414 59.7464 46.8143C59.326 47.3247 58.6681 47.9081 57.9188 47.9081C55.9633 47.9081 55.4881 44.9185 55.4881 43.8612C55.4881 42.4393 56.2009 39.231 58.595 39.231C59.0153 39.231 59.3626 39.3769 59.6733 39.5591C59.7829 39.6321 59.9108 39.5774 59.9108 39.468V36.2961C59.9108 35.7493 60.0022 35.0566 59.0519 35.0019C58.9422 34.9836 58.8508 34.9472 58.8143 34.8743C58.7595 34.7831 58.7777 34.692 58.8508 34.6008C59.1798 34.2545 59.9108 33.817 60.386 33.7623C60.4408 33.7441 60.5139 33.7441 60.5505 33.7623C60.715 33.817 60.8063 33.9264 60.8063 34.054C60.7698 34.6008 60.7515 35.093 60.7515 35.7128V45.8482C60.7515 46.468 60.8429 46.8326 61.0805 46.9055C61.245 46.9602 61.446 46.8872 61.6653 46.705C61.7201 46.632 61.8481 46.6138 61.9394 46.705Z" fill="#0F0E0E"/>
<path d="M9.81074 50.1016C6.35663 50.1016 4.2001 52.7813 4.2001 56.2448C4.2001 59.9636 6.50283 62.6979 10.1031 62.6979C11.2728 62.6979 12.6069 62.4427 13.3745 61.7683C13.5755 61.6042 13.7217 61.4037 13.7217 61.1302V58.1407C13.7217 57.2657 13.3014 56.9558 12.2414 56.9193C12.0952 56.9011 11.9855 56.7917 11.9855 56.6459C12.0038 56.5 12.1135 56.3907 12.2597 56.3907C12.9176 56.4089 13.5573 56.4271 14.2152 56.4271C14.4528 56.4271 14.6355 56.6094 14.6355 56.8464C14.6355 57.1563 14.6172 57.8855 14.6172 58.1954C14.6172 58.961 14.6172 60.9662 14.6172 61.75C14.6172 61.9688 14.471 62.1693 14.27 62.2422C13.3014 62.5156 11.8942 63.099 9.86556 63.099C5.79008 63.099 3.21321 60.1094 3.21321 56.3178C3.21321 52.5443 5.89974 49.7188 9.73763 49.7188C11.0718 49.7188 12.4607 50.0834 13.7035 50.5391C13.9593 50.6121 14.1238 50.8308 14.1421 51.086L14.3797 53.1277C14.3797 53.2553 14.2883 53.3646 14.1604 53.3464C14.069 53.3464 13.9959 53.2917 13.9776 53.2006C13.5755 51.1042 11.9673 50.1016 9.81074 50.1016Z" fill="#0F0E0E"/>
<path d="M18.1553 62.2969C18.3015 62.3334 18.3929 62.4427 18.3929 62.5886C18.3746 62.7344 18.2467 62.8255 18.0822 62.8255C17.8081 62.8073 17.3877 62.7891 17.0953 62.7891C16.7846 62.7891 16.4374 62.8073 16.1084 62.8255C15.9257 62.8255 15.816 62.7344 15.7977 62.5886C15.7795 62.4427 15.8708 62.3334 16.017 62.2969C16.7115 62.1875 16.6567 61.5313 16.6567 61.0209V51.487C16.6567 50.9584 16.7115 50.2657 15.7977 50.211C15.6881 50.1928 15.5967 50.1381 15.5602 50.0834C15.5053 49.9923 15.5236 49.8829 15.5967 49.81C15.9257 49.4636 16.675 49.0261 17.1501 48.9532C17.2232 48.935 17.3146 48.9714 17.3877 49.0079C17.4974 49.0626 17.5705 49.1537 17.5522 49.2449C17.5157 49.81 17.5157 50.3022 17.5157 50.8673V61.0209C17.5157 61.5677 17.4608 62.2058 18.1553 62.2969Z" fill="#0F0E0E"/>
<path d="M22.6773 60.5287V59.9453C22.6773 59.8724 22.6224 59.8177 22.531 59.8177C21.2517 59.8177 20.1369 59.8542 20.1369 60.8933C20.1369 61.4766 20.1918 62.1875 21.1604 62.1875C21.9645 62.1875 22.6773 61.2943 22.6773 60.5287ZM24.6876 61.8959C24.7607 61.9505 24.779 62.0417 24.7424 62.1146C24.45 62.4974 23.8652 63.099 23.39 63.099C22.9331 63.099 22.7686 62.4792 22.6955 62.0417C22.6955 61.9505 22.5493 61.8959 22.4762 62.0052C22.0559 62.5339 21.4162 63.099 20.5938 63.099C19.5521 63.099 19.278 61.8594 19.278 61.2578C19.278 59.7084 20.1004 59.4349 22.531 59.4349C22.6224 59.4349 22.6773 59.362 22.6773 59.3073V56.9922C22.6773 56.3724 22.6041 55.1876 21.5076 55.1876C20.868 55.1876 20.1735 56.1172 20.5207 57.0287C20.5938 57.211 20.2831 57.5391 19.9725 57.5391C19.6252 57.5391 19.4425 57.2292 19.4425 56.9011C19.4425 56.1355 20.1004 55.5157 20.7766 55.0235C21.1238 54.7683 21.5259 54.4219 22.0193 54.4219C23.2072 54.4219 23.5179 55.698 23.5179 56.3907V61.0391C23.5179 61.6589 23.6093 62.0235 23.8469 62.0964C24.0114 62.1511 24.1941 62.1146 24.3952 61.9141C24.4683 61.8412 24.5962 61.8229 24.6876 61.8959Z" fill="#0F0E0E"/>
<path d="M34.7411 62.2969C34.9055 62.3151 34.9969 62.4245 34.9787 62.5703C34.9787 62.7162 34.8507 62.8255 34.6862 62.8073C34.0283 62.8073 33.3704 62.8073 32.7125 62.8073C32.5297 62.8255 32.4018 62.7162 32.4018 62.5886C32.3835 62.4427 32.4566 62.3151 32.6211 62.2969C33.2973 62.1875 33.2607 61.5313 33.2607 61.0209V58.2865C33.2607 57.4662 33.4252 55.4792 32.1094 55.4792C31.5794 55.4792 30.9946 56.0261 30.6656 56.3907C30.5742 56.4818 30.5377 56.5912 30.5377 56.7188C30.5377 56.9011 30.5377 57.0834 30.5377 57.211V61.0209C30.5377 61.5495 30.4646 62.1875 31.1956 62.2969C31.3418 62.3151 31.4332 62.4245 31.4149 62.5703C31.4149 62.7162 31.3052 62.8255 31.1225 62.8073C30.4646 62.8073 29.8066 62.8073 29.1487 62.8073C28.9842 62.8255 28.838 62.7162 28.838 62.5886C28.8197 62.4427 28.8928 62.3151 29.0573 62.2969C29.7335 62.1875 29.697 61.5313 29.697 61.0209V58.2865C29.697 57.4662 29.8615 55.4792 28.5639 55.4792C28.0704 55.4792 26.9008 56.3178 26.9008 56.7917V61.0209C26.9008 61.5495 26.846 62.1875 27.5404 62.2969C27.7049 62.3151 27.7963 62.4245 27.778 62.5703C27.778 62.7162 27.6501 62.8255 27.4673 62.8073C26.8094 62.8073 26.1698 62.8073 25.5118 62.8073C25.3291 62.8255 25.2012 62.7162 25.1829 62.5886C25.1646 62.4245 25.2743 62.3151 25.4205 62.2969C26.1149 62.1875 26.0418 61.5313 26.0418 61.0209C26.0418 59.3802 26.0418 58.4141 26.0418 56.7917C26.0418 56.0625 26.0053 55.5521 25.4387 55.4974C25.3474 55.4792 25.256 55.4245 25.2194 55.3698C25.1646 55.2787 25.1829 55.1876 25.2377 55.0964C25.4936 54.823 26.1698 54.4584 26.5536 54.4219C26.6084 54.4219 26.6998 54.4219 26.7546 54.4584C26.8825 54.5131 26.9373 54.6225 26.9373 54.7865C26.9373 55.1146 26.9191 55.3881 26.9191 55.6797C26.9008 55.8073 27.0287 55.8256 27.1018 55.7527C27.5953 55.224 28.3994 54.4219 29.167 54.4219C29.9711 54.4219 30.3001 55.0599 30.4463 55.7527C30.4646 55.8438 30.5742 55.8438 30.629 55.7891C31.1225 55.2605 31.9632 54.4219 32.7307 54.4219C34.138 54.4219 34.1014 56.336 34.1014 57.211V61.0209C34.1014 61.5495 34.0283 62.1875 34.7411 62.2969Z" fill="#0F0E0E"/>
<path d="M37.3933 56.5912V60.7657C37.3933 61.4766 37.7406 62.4792 38.8919 62.4792C40.6464 62.4792 40.9754 60.237 40.9754 58.8151C40.9754 57.7943 40.6464 55.3698 38.8919 55.3698C38.234 55.3698 37.3933 56.0443 37.3933 56.5912ZM37.3933 62.862V65.3411C37.3933 65.9427 37.3751 66.3984 38.1061 66.4714C38.2706 66.4896 38.3619 66.599 38.3619 66.7266C38.3619 66.8724 38.234 67 38.0513 67C37.7223 66.9818 37.3568 66.9635 37.0278 66.9635C36.6806 66.9635 36.3151 66.9818 35.9861 66.9818C35.7851 67 35.6571 66.8724 35.6571 66.7266C35.6571 66.599 35.7485 66.4896 35.913 66.4714C36.5526 66.3984 36.5526 65.9062 36.5526 65.3411V56.7917C36.5526 56.0808 36.4795 55.5521 35.9313 55.4974C35.8216 55.4974 35.7485 55.4428 35.712 55.3698C35.6571 55.2969 35.6754 55.1876 35.7302 55.1146C35.9861 54.823 36.6623 54.4584 37.0461 54.4402C37.0644 54.4219 37.1557 54.4402 37.2106 54.4584C37.3751 54.4948 37.4299 54.6042 37.4299 54.7865C37.4299 55.0235 37.4116 55.224 37.4116 55.4428C37.4116 55.5339 37.5213 55.5704 37.5944 55.4974C37.9964 54.987 38.6544 54.4219 39.3854 54.4219C41.3409 54.4219 41.816 57.4115 41.816 58.4688C41.816 59.8907 41.1033 63.099 38.7092 63.099C38.2888 63.099 37.9964 62.9896 37.6309 62.7709C37.5395 62.7162 37.3933 62.7709 37.3933 62.862Z" fill="#0F0E0E"/>
<path d="M44.4656 50.8855C44.4656 51.3048 44.1184 51.6511 43.698 51.6511C43.2777 51.6511 42.9487 51.3048 42.9487 50.8855C42.9487 50.4844 43.2777 50.1381 43.698 50.1381C44.1184 50.1381 44.4656 50.4844 44.4656 50.8855ZM45.0139 62.2969C45.1783 62.3334 45.2514 62.4427 45.2514 62.5521C45.2514 62.7162 45.1052 62.8255 44.9408 62.8255C44.6301 62.8073 44.2828 62.7891 43.9721 62.7891C43.6615 62.7891 43.3142 62.8073 43.0035 62.8255C42.8208 62.8255 42.6746 62.7162 42.6746 62.5521C42.6746 62.4427 42.7477 62.3334 42.8939 62.2969C43.5701 62.2058 43.5335 61.6953 43.5335 61.1667V56.7917C43.5335 56.0808 43.497 55.5521 42.9304 55.4974C42.8391 55.4974 42.7477 55.4428 42.7111 55.3698C42.6563 55.2969 42.6746 55.1876 42.7294 55.1146C42.9853 54.823 43.6615 54.4584 44.0453 54.4402C44.0818 54.4219 44.1549 54.4402 44.2097 54.4584C44.3742 54.4948 44.429 54.6042 44.429 54.7865C44.429 55.3516 44.3925 55.7709 44.3925 56.3542V61.1667C44.3925 61.7136 44.3742 62.2058 45.0139 62.2969Z" fill="#0F0E0E"/>
<path d="M52.0953 62.2969C52.2598 62.3334 52.3329 62.4427 52.3329 62.5521C52.3329 62.6979 52.2049 62.8255 52.0039 62.8073C51.7115 62.8073 51.2911 62.7891 50.9987 62.7891C50.6698 62.7891 50.3225 62.8073 49.9936 62.8255C49.8108 62.8255 49.6829 62.7162 49.6829 62.5521C49.7012 62.4245 49.7925 62.3334 49.957 62.2969C50.6515 62.2058 50.5784 61.586 50.5784 61.0209V58.2865C50.5784 57.4844 50.7429 55.4792 49.427 55.4792C48.9518 55.4792 47.7822 56.3178 47.7822 56.7917V61.0209C47.7822 61.5677 47.7274 62.2058 48.4219 62.2969C48.5863 62.3334 48.6594 62.4427 48.6594 62.5886C48.6594 62.7162 48.5315 62.8255 48.367 62.8073C48.0746 62.8073 47.6726 62.7891 47.3619 62.7891C47.0512 62.7891 46.7222 62.8073 46.3932 62.8255C46.2105 62.8255 46.0826 62.7162 46.0643 62.5886C46.046 62.4427 46.1374 62.3334 46.3019 62.2969C46.9781 62.1875 46.9232 61.5313 46.9232 61.0209V56.7917C46.9232 56.0808 46.8684 55.5521 46.3201 55.4974C46.2105 55.4974 46.1374 55.4428 46.1008 55.3698C46.046 55.2969 46.0643 55.1876 46.1191 55.1146C46.375 54.823 47.0512 54.4584 47.435 54.4402C47.4898 54.4219 47.5812 54.4402 47.636 54.4584C47.7639 54.5131 47.8188 54.6225 47.8188 54.7865C47.8188 55.1329 47.8005 55.4063 47.7822 55.7162C47.7822 55.8073 47.8919 55.8438 47.965 55.7709C48.2208 55.5157 48.5132 55.2058 48.9153 54.8959C49.2808 54.6042 49.6646 54.4402 50.0484 54.4402C51.4556 54.4402 51.4191 56.336 51.4191 57.2292V61.0209C51.4191 61.5677 51.3277 62.1875 52.0953 62.2969Z" fill="#0F0E0E"/>
<path d="M54.3389 62.5521C53.5896 62.1875 53.4617 61.349 53.553 60.6927C53.5713 60.6016 53.6079 60.5287 53.681 60.474C53.9186 60.2735 54.1744 60.0365 54.3754 59.8177C54.4303 59.7448 54.412 59.6537 54.3389 59.599C53.5896 58.9792 53.3886 58.1042 53.3886 57.2657C53.3886 56.0808 53.9368 54.4219 55.7278 54.4219C56.4589 54.4219 57.0985 54.9141 57.9027 54.9141C57.994 54.9141 58.1768 54.9141 58.3047 54.8959C58.4509 54.8777 58.5606 54.9688 58.5606 55.0964C58.5606 55.2058 58.4692 55.2969 58.323 55.2969H57.4275C57.3361 55.2969 57.2996 55.3698 57.3361 55.4428C57.7199 55.9349 57.8478 56.7188 57.8478 57.1381C57.8478 58.25 57.4092 59.9818 55.5268 59.9818C55.3441 59.9818 55.143 59.9636 54.942 59.9089C54.8506 59.8724 54.741 59.8907 54.6861 59.9636C54.4485 60.237 54.3754 60.4558 54.3754 60.8203C54.3754 61.3854 54.5765 61.75 55.3441 61.75C55.9106 61.75 56.4772 61.7683 57.0254 61.7683C58.4875 61.7683 58.8164 62.9167 58.8164 63.8099C58.8164 65.25 57.6468 66.9453 55.5451 66.9453C53.8637 66.9453 52.9865 66.0339 52.9317 64.3386C52.9317 64.2292 52.9682 64.1198 53.0596 64.0469C53.2424 63.8646 54.1744 62.9714 54.3754 62.7526C54.4303 62.6979 54.412 62.6068 54.3389 62.5521ZM54.3389 57.0834C54.3389 57.6849 54.4668 59.4532 55.6365 59.4532C56.8427 59.4532 56.9889 57.9948 56.9889 57.3204C56.9889 56.6641 56.7696 54.9506 55.5999 54.9506C54.5217 54.9506 54.3389 56.5183 54.3389 57.0834ZM53.8455 64.5391C53.8455 65.4323 54.4303 66.3073 55.7461 66.3073C57.2265 66.3073 58.0306 65.4688 58.0306 64.3568C58.0306 63.3724 57.4092 62.8438 56.1665 62.8438H55.0699C54.9603 62.8438 54.8689 62.862 54.7958 62.9167C54.1927 63.336 53.8455 63.8646 53.8455 64.5391Z" fill="#0F0E0E"/>
</svg>
