<svg xmlns="http://www.w3.org/2000/svg" width="62" height="67" fill="none" viewBox="0 0 62 67"><path fill="#0f0e0e" d="m32.423 19.96 7.838-.181.204.111 5.107 8.072 5.056 8.101-.406.72c-4.518.06-9.037.02-13.555.03l-.426-.243-6.336-10.29h.782l-6.6 10.715-.335.182-14.376-.07-.264-.487c.111.01 23.2-36.468 23.372-36.184-.03 0-22.804 36.508-22.834 36.519l-.264-.487 14.377-.07-.336.182 6.468-10.796h.782l6.407 10.239-.427-.243c4.518 0 9.036-.03 13.555.03l-.407.72-4.904-8.194-4.853-8.223.203.111-7.838-.182c-.081 0-.04-.01-.05-.101h.05z"/><path fill="#0f0e0e" d="m27.753 0 10.092 16.092L26.9.557zM41.54 4.335l-.852-.71-.873.578.355-1.013-.853-.699 1.066.081.356-1.012.304 1.063 1.066.081-.873.567zM37.236 6.38l-.498-.415-.528.344.214-.597-.508-.426.64.051.203-.598.182.628.64.051-.528.334zM35.55 2.43l-.304-.476-.518.142.335-.445-.305-.476.508.212.345-.445-.02.567.508.213-.528.141z"/><path fill="#0f0e0e" d="M42.83 1.53s2.549.252 3.117 2.561c0 0 1.31 3.737-2.792 4.649-.843.192-1.746.06-2.477-.405a4.8 4.8 0 0 1-1.117-.983s2.122 1.165 3.848-.476c.68-.648 1.127-1.55 1.096-2.49-.02-.831-.375-1.895-1.675-2.857M8.262 47.106c.165.018.256.128.256.255 0 .146-.128.255-.329.255-.42-.036-.932-.018-1.334-.018s-.914-.018-1.334.018c-.201.019-.347-.109-.33-.273 0-.128.092-.219.257-.237.968-.11.95-.93.95-1.659v-4.083c0-.164-.091-.292-.292-.292H2.432c-.2 0-.292.128-.292.292v4.083c0 .73-.018 1.55.95 1.659.165.018.256.128.256.255 0 .146-.128.255-.329.255-.42-.036-.932-.018-1.352-.018-.402 0-.914-.018-1.334.018-.202.019-.348-.109-.33-.273.019-.128.092-.219.256-.237.969-.128.95-.93.95-1.659v-8.495c0-.729 0-1.53-.95-1.622-.164-.018-.255-.128-.255-.273s.127-.256.329-.237c.42.018.932.018 1.334.018s.932 0 1.352-.018c.201-.019.329.109.329.255 0 .127-.091.237-.256.255-.95.091-.95.893-.95 1.622v3.464c0 .146.091.273.292.273h3.674c.2 0 .292-.127.292-.273v-3.464c0-.729 0-1.53-.95-1.622-.183-.018-.274-.128-.274-.273s.146-.256.329-.237c.42.018.95.018 1.352.018s.932 0 1.352-.018c.183-.019.311.109.311.255 0 .127-.091.218-.256.255-.95.11-.95.893-.95 1.622v8.495c0 .73-.018 1.55.95 1.659M10.194 42.002c-.019.11.036.2.183.2h1.334c.877 0 1.334-.164 1.334-.82 0-.638-.366-1.622-1.261-1.622-1.097 0-1.462 1.422-1.59 2.242m3.783 3.737a.174.174 0 0 1 .11.2c-.348.784-1.134 1.97-2.285 1.97-2.01 0-2.485-2.972-2.485-4.084 0-1.276.365-4.594 2.54-4.594 1.645 0 2.065 1.914 2.083 2.898 0 .165.019.438-.274.474h-3.344c-.146 0-.22.073-.22.2-.018.329 0 .657.019 1.022.036.838.383 3.026 1.937 3.026.786 0 1.316-.529 1.645-1.04.055-.09.164-.127.274-.072M17.065 43.187c1.005.747 1.461 1.166 1.461 2.224 0 1.02-.475 2.497-2.083 2.497-.42 0-1.48-.255-1.553-.784l-.147-1.84c0-.074.074-.165.183-.165.11 0 .183.055.201.128.092.729.33 2.096 1.408 2.096.931 0 1.206-.656 1.206-1.258 0-.93-.494-1.44-1.353-2.114-.968-.73-1.535-1.35-1.535-2.407 0-.875.512-2.333 1.92-2.333.456 0 .876.164 1.205.383a.33.33 0 0 1 .183.292l.091 1.585c0 .092-.073.165-.182.165-.11 0-.165-.055-.183-.128-.073-.62-.256-1.695-1.243-1.695-.822 0-1.151.601-1.151 1.13 0 .966.73 1.604 1.571 2.224M21.58 43.187c1.005.747 1.462 1.166 1.462 2.224 0 1.02-.475 2.497-2.084 2.497-.42 0-1.48-.255-1.553-.784l-.146-1.84c0-.074.073-.165.183-.165s.182.055.2.128c.092.729.33 2.096 1.408 2.096.932 0 1.206-.656 1.206-1.258 0-.93-.493-1.44-1.352-2.114-.969-.73-1.535-1.35-1.535-2.407 0-.875.511-2.333 1.918-2.333.457 0 .878.164 1.207.383a.33.33 0 0 1 .182.292l.092 1.585c0 .092-.073.165-.183.165s-.165-.055-.183-.128c-.073-.62-.256-1.695-1.242-1.695-.823 0-1.152.601-1.152 1.13 0 .966.731 1.604 1.572 2.224M24.597 42.002c-.019.11.036.2.182.2h1.334c.878 0 1.335-.164 1.335-.82 0-.638-.366-1.622-1.261-1.622-1.097 0-1.462 1.422-1.59 2.242m3.783 3.737a.174.174 0 0 1 .11.2c-.348.784-1.134 1.97-2.285 1.97-2.01 0-2.486-2.972-2.486-4.084 0-1.276.366-4.594 2.54-4.594 1.645 0 2.066 1.914 2.084 2.898 0 .165.018.438-.274.474h-3.344c-.147 0-.22.073-.22.2-.018.329 0 .657.018 1.022.037.838.384 3.026 1.938 3.026.786 0 1.316-.529 1.645-1.04.054-.09.164-.127.274-.072M31.505 47.106c.146.036.238.146.238.292-.019.145-.146.237-.311.237a17 17 0 0 0-.987-.037c-.31 0-.658.018-.987.037-.182 0-.292-.091-.31-.237s.073-.256.219-.292c.694-.11.64-.766.64-1.276v-9.534c0-.529.054-1.221-.86-1.276-.11-.018-.2-.073-.237-.128a.22.22 0 0 1 .037-.273c.329-.346 1.078-.784 1.553-.857.073-.018.164.019.238.055.11.055.182.146.164.237-.037.565-.037 1.057-.037 1.622V45.83c0 .547-.054 1.185.64 1.276M33.76 47.361c-.748-.364-.876-1.203-.785-1.86a.34.34 0 0 1 .128-.218c.237-.2.493-.437.694-.656.055-.073.037-.164-.036-.219-.75-.62-.95-1.495-.95-2.333 0-1.185.548-2.844 2.339-2.844.73 0 1.37.492 2.175.492.091 0 .274 0 .402-.018.146-.018.256.073.256.2 0 .11-.092.201-.238.201h-.895c-.092 0-.128.073-.092.146.384.492.512 1.276.512 1.695 0 1.112-.439 2.844-2.321 2.844-.183 0-.384-.018-.585-.073-.091-.037-.201-.018-.256.055-.237.273-.31.492-.31.856 0 .566.2.93.968.93.567 0 1.133.018 1.681.018 1.462 0 1.791 1.149 1.791 2.042 0 1.44-1.17 3.135-3.27 3.135-1.682 0-2.56-.911-2.614-2.606 0-.11.036-.22.128-.292.182-.182 1.114-1.075 1.315-1.294.055-.055.037-.146-.036-.2m0-5.468c0 .601.129 2.37 1.299 2.37 1.206 0 1.352-1.46 1.352-2.134 0-.656-.22-2.37-1.39-2.37-1.077 0-1.26 1.568-1.26 2.133m-.493 7.455c0 .893.585 1.768 1.901 1.768 1.48 0 2.285-.838 2.285-1.95 0-.984-.622-1.513-1.864-1.513h-1.097a.44.44 0 0 0-.274.073c-.603.419-.95.948-.95 1.622M42.274 45.338v-.584c0-.072-.055-.127-.147-.127-1.279 0-2.394.036-2.394 1.075 0 .584.055 1.295 1.024 1.295.804 0 1.517-.894 1.517-1.66m2.01 1.367a.174.174 0 0 1 .055.219c-.293.383-.877.984-1.353.984-.456 0-.621-.62-.694-1.057 0-.091-.146-.146-.22-.037-.42.529-1.06 1.094-1.882 1.094-1.041 0-1.316-1.24-1.316-1.841 0-1.55.823-1.823 3.253-1.823.092 0 .147-.073.147-.128v-2.315c0-.62-.073-1.804-1.17-1.804-.64 0-1.334.93-.987 1.84.073.183-.237.511-.548.511-.347 0-.53-.31-.53-.638 0-.765.658-1.385 1.334-1.877.347-.256.75-.602 1.243-.602 1.188 0 1.498 1.276 1.498 1.969v4.648c0 .62.092.985.33 1.058.164.054.346.018.548-.183a.22.22 0 0 1 .292-.018M48.449 45.338v-.584c0-.072-.055-.127-.146-.127-1.28 0-2.395.036-2.395 1.075 0 .584.055 1.295 1.024 1.295.804 0 1.517-.894 1.517-1.66m2.01 1.367a.174.174 0 0 1 .055.219c-.292.383-.877.984-1.352.984-.457 0-.622-.62-.695-1.057 0-.091-.146-.146-.22-.037-.42.529-1.06 1.094-1.882 1.094-1.041 0-1.315-1.24-1.315-1.841 0-1.55.822-1.823 3.253-1.823.091 0 .146-.073.146-.128v-2.315c0-.62-.073-1.804-1.17-1.804-.64 0-1.334.93-.987 1.84.073.183-.237.511-.548.511-.347 0-.53-.31-.53-.638 0-.765.658-1.385 1.334-1.877.347-.256.75-.602 1.243-.602 1.188 0 1.499 1.276 1.499 1.969v4.648c0 .62.09.985.328 1.058.165.054.348.018.549-.183a.22.22 0 0 1 .292-.018M54.518 39.268c.585 0 .768.492.768.838 0 .237-.128.875-.549.875-.42 0-.438-.583-.858-.583-.603 0-1.115 1.112-1.115 1.731v3.701c0 .839.018 1.221 1.06 1.276.183.018.292.146.292.273-.018.146-.146.237-.31.237-.403-.018-.823-.018-1.207-.018-.438 0-.913 0-1.352.018-.183 0-.31-.109-.31-.255s.109-.237.255-.255c.768-.091.713-.638.713-1.276v-4.211c0-.71-.037-1.258-.603-1.312a.37.37 0 0 1-.22-.128c-.054-.091-.036-.182.019-.273.255-.274.932-.639 1.316-.675.036 0 .11 0 .164.018.164.037.22.164.22.347 0 .382-.019.692-.037 1.075 0 .11.146.128.182.055.348-.584 1.024-1.459 1.572-1.459M58.43 46.814c.658 0 1.48-.674 1.48-1.221v-4.175c0-.692-.346-1.695-1.461-1.695-1.736 0-2.065 2.224-2.065 3.664 0 1.021.329 3.427 2.047 3.427m3.51-.109c.073.055.073.146.036.219-.274.364-.877.984-1.352.984-.457 0-.622-.62-.677-1.057-.018-.091-.128-.11-.2-.037-.421.51-1.079 1.094-1.828 1.094-1.956 0-2.43-2.99-2.43-4.047 0-1.422.712-4.63 3.106-4.63.42 0 .768.146 1.078.328.11.073.238.018.238-.091v-3.172c0-.547.091-1.24-.86-1.294-.109-.018-.2-.055-.237-.128-.054-.09-.036-.182.037-.273.329-.346 1.06-.784 1.535-.839a.25.25 0 0 1 .164 0c.165.055.256.164.256.292a24 24 0 0 0-.054 1.659v10.135c0 .62.09.985.328 1.058.165.054.366-.019.585-.201.055-.073.183-.091.274 0M9.81 50.102c-3.453 0-5.61 2.68-5.61 6.143 0 3.719 2.303 6.453 5.903 6.453 1.17 0 2.504-.255 3.271-.93.201-.164.348-.364.348-.638v-2.99c0-.874-.42-1.184-1.48-1.22-.147-.019-.257-.128-.257-.274.019-.146.129-.255.275-.255.658.018 1.297.036 1.955.036.238 0 .42.182.42.42 0 .31-.018 1.038-.018 1.348v3.555c0 .219-.146.42-.347.492-.969.274-2.376.857-4.404.857-4.076 0-6.653-2.99-6.653-6.781 0-3.774 2.687-6.6 6.525-6.6 1.334 0 2.723.365 3.966.821.255.073.42.292.438.547l.238 2.042c0 .127-.092.237-.22.218a.18.18 0 0 1-.182-.145c-.402-2.097-2.01-3.1-4.167-3.1M18.155 62.297c.146.036.238.146.238.292-.018.145-.146.236-.31.236a17 17 0 0 0-.988-.036c-.31 0-.658.018-.987.036-.182 0-.292-.09-.31-.236s.073-.256.219-.292c.695-.11.64-.766.64-1.276v-9.534c0-.529.055-1.221-.86-1.276-.109-.018-.2-.073-.237-.128a.22.22 0 0 1 .037-.273c.329-.346 1.078-.784 1.553-.857.073-.018.165.018.238.055.11.055.182.146.164.237-.036.565-.036 1.057-.036 1.622v10.154c0 .547-.055 1.185.64 1.276M22.677 60.529v-.584c0-.073-.055-.127-.146-.127-1.28 0-2.394.036-2.394 1.075 0 .584.055 1.294 1.023 1.294.805 0 1.517-.893 1.517-1.658m2.01 1.367a.174.174 0 0 1 .055.219c-.292.382-.877.984-1.352.984-.457 0-.621-.62-.695-1.057 0-.092-.146-.146-.219-.037-.42.529-1.06 1.094-1.882 1.094-1.042 0-1.316-1.24-1.316-1.841 0-1.55.822-1.823 3.253-1.823.091 0 .146-.073.146-.128v-2.315c0-.62-.073-1.804-1.17-1.804-.639 0-1.334.93-.986 1.84.073.183-.238.511-.549.511-.347 0-.53-.31-.53-.638 0-.766.658-1.385 1.335-1.878.347-.255.749-.601 1.242-.601 1.188 0 1.499 1.276 1.499 1.969v4.648c0 .62.091.984.329 1.057.164.055.347.019.548-.182a.22.22 0 0 1 .293-.018M34.741 62.297c.165.018.256.128.238.273 0 .146-.128.255-.293.237h-1.974c-.182.018-.31-.09-.31-.218-.019-.146.055-.274.22-.292.675-.11.639-.766.639-1.276v-2.735c0-.82.164-2.807-1.152-2.807-.53 0-1.114.547-1.443.912a.44.44 0 0 0-.128.328v4.302c0 .529-.073 1.166.658 1.276.146.018.237.128.219.273 0 .146-.11.255-.293.237H29.15c-.165.018-.311-.09-.311-.218-.018-.146.055-.274.22-.292.675-.11.639-.766.639-1.276v-2.735c0-.82.165-2.807-1.133-2.807-.494 0-1.663.839-1.663 1.313v4.229c0 .529-.055 1.166.64 1.276.164.018.255.128.237.273 0 .146-.128.255-.31.237h-1.956c-.183.018-.31-.09-.33-.218-.017-.164.092-.274.239-.292.694-.11.62-.766.62-1.276v-4.23c0-.728-.036-1.239-.602-1.294a.37.37 0 0 1-.22-.127c-.054-.091-.036-.182.019-.274.256-.273.932-.638 1.316-.674.054 0 .146 0 .2.036.128.055.183.165.183.328 0 .329-.018.602-.018.894-.018.127.11.146.183.073.493-.529 1.297-1.331 2.065-1.331.804 0 1.133.638 1.28 1.33.018.092.127.092.182.037.493-.529 1.334-1.367 2.102-1.367 1.407 0 1.37 1.914 1.37 2.789v3.81c0 .529-.073 1.166.64 1.276M37.393 56.591v4.175c0 .71.348 1.713 1.499 1.713 1.754 0 2.083-2.242 2.083-3.664 0-1.02-.329-3.445-2.083-3.445-.658 0-1.499.674-1.499 1.221m0 6.271v2.48c0 .6-.018 1.056.713 1.13.165.018.256.127.256.255 0 .145-.128.273-.31.273a19 19 0 0 0-1.024-.037c-.347 0-.713.019-1.042.019-.2.018-.329-.11-.329-.255 0-.128.092-.237.256-.256.64-.073.64-.565.64-1.13v-8.55c0-.71-.073-1.239-.622-1.294a.23.23 0 0 1-.219-.127c-.055-.073-.037-.182.018-.255.256-.292.932-.657 1.316-.675.018-.018.11 0 .165.018.164.037.219.146.219.328 0 .237-.018.438-.018.657 0 .09.11.127.182.054.402-.51 1.06-1.075 1.791-1.075 1.956 0 2.431 2.99 2.431 4.047 0 1.422-.713 4.63-3.107 4.63-.42 0-.713-.11-1.078-.328-.092-.055-.238 0-.238.091M44.466 50.886c0 .419-.348.765-.768.765a.756.756 0 0 1-.75-.766c0-.4.33-.747.75-.747s.768.346.768.748m.548 11.41c.164.037.237.147.237.256 0 .164-.146.273-.31.273-.31-.018-.658-.036-.969-.036s-.658.018-.968.036c-.183 0-.33-.109-.33-.273 0-.11.074-.219.22-.255.676-.091.64-.602.64-1.13v-4.375c0-.711-.037-1.24-.604-1.295a.25.25 0 0 1-.219-.127c-.055-.073-.036-.182.018-.255.256-.292.932-.657 1.316-.675.037-.018.11 0 .165.018.164.037.219.146.219.328 0 .566-.037.985-.037 1.568v4.813c0 .547-.018 1.039.622 1.13M52.095 62.297c.165.036.238.146.238.255 0 .146-.128.273-.33.255-.291 0-.712-.018-1.004-.018-.33 0-.677.018-1.005.036-.183 0-.311-.109-.311-.273.018-.127.11-.219.274-.255.694-.091.621-.711.621-1.276v-2.735c0-.802.165-2.807-1.151-2.807-.475 0-1.645.839-1.645 1.313v4.229c0 .547-.055 1.185.64 1.276.164.036.237.146.237.292 0 .127-.127.236-.292.218-.292 0-.694-.018-1.005-.018s-.64.018-.969.036c-.182 0-.31-.109-.329-.236-.018-.146.073-.256.238-.292.676-.11.621-.766.621-1.276v-4.23c0-.71-.055-1.239-.603-1.294a.23.23 0 0 1-.22-.127c-.054-.073-.036-.182.02-.255.255-.292.931-.657 1.315-.675.055-.018.146 0 .201.018.128.055.183.165.183.328 0 .347-.019.62-.037.93 0 .091.11.128.183.055.256-.255.548-.565.95-.875.366-.292.75-.456 1.133-.456 1.408 0 1.371 1.896 1.371 2.79v3.79c0 .548-.091 1.167.676 1.277M54.339 62.552c-.75-.364-.877-1.203-.786-1.86a.34.34 0 0 1 .128-.218c.238-.2.493-.437.694-.656.055-.073.037-.164-.036-.219-.75-.62-.95-1.495-.95-2.333 0-1.185.548-2.844 2.339-2.844.73 0 1.37.492 2.175.492.091 0 .274 0 .402-.018.146-.018.256.073.256.2 0 .11-.092.2-.238.2h-.895c-.092 0-.128.074-.092.147.384.492.512 1.276.512 1.695 0 1.112-.439 2.844-2.321 2.844-.183 0-.384-.018-.585-.073-.091-.037-.201-.018-.256.055-.237.273-.31.492-.31.856 0 .565.2.93.968.93.567 0 1.133.018 1.681.018 1.462 0 1.791 1.149 1.791 2.042 0 1.44-1.17 3.135-3.27 3.135-1.682 0-2.56-.911-2.614-2.606 0-.11.036-.22.128-.292.182-.182 1.114-1.076 1.315-1.294.055-.055.037-.146-.036-.2m0-5.469c0 .602.128 2.37 1.297 2.37 1.207 0 1.353-1.458 1.353-2.133 0-.656-.22-2.37-1.39-2.37-1.077 0-1.26 1.568-1.26 2.133m-.493 7.456c0 .893.584 1.768 1.9 1.768 1.48 0 2.285-.838 2.285-1.95 0-.985-.622-1.513-1.864-1.513H55.07a.44.44 0 0 0-.274.073c-.603.419-.95.948-.95 1.622"/></svg>